SplineFontDB: 3.0
FontName: Antonio-Regular
FullName: Antonio Regular
FamilyName: Antonio
Weight: Book
Copyright: Copyright (c) 2011-12, vernon adams (vern@newtypography.co.uk), with Reserved Font Names 'Antonio'
Version: 1
ItalicAngle: 0
UnderlinePosition: 0
UnderlineWidth: 0
Ascent: 1638
Descent: 410
sfntRevision: 0x00010000
LayerCount: 2
Layer: 0 1 "Back"  1
Layer: 1 1 "Fore"  0
XUID: [1021 865 679097947 7486219]
FSType: 0
OS2Version: 4
OS2_WeightWidthSlopeOnly: 0
OS2_UseTypoMetrics: 1
CreationTime: 1358482083
ModificationTime: 1362109069
PfmFamily: 17
TTFWeight: 400
TTFWidth: 1
LineGap: 0
VLineGap: 0
Panose: 2 0 5 3 0 0 0 0 0 0
OS2TypoAscent: 2342
OS2TypoAOffset: 0
OS2TypoDescent: -612
OS2TypoDOffset: 0
OS2TypoLinegap: 0
OS2WinAscent: 2342
OS2WinAOffset: 0
OS2WinDescent: 612
OS2WinDOffset: 0
HheadAscent: 2342
HheadAOffset: 0
HheadDescent: -612
HheadDOffset: 0
OS2SubXSize: 1331
OS2SubYSize: 1433
OS2SubXOff: 0
OS2SubYOff: 286
OS2SupXSize: 1331
OS2SupYSize: 1433
OS2SupXOff: 0
OS2SupYOff: 983
OS2StrikeYSize: 102
OS2StrikeYPos: 530
OS2Vendor: 'newt'
OS2CodePages: 20000093.00000000
OS2UnicodeRanges: a00000ef.5000204b.00000000.00000000
Lookup: 258 0 0 "'kern' Horizontal Kerning in Latin lookup 0"  {"'kern' Horizontal Kerning in Latin lookup 0 per glyph data 0"  "'kern' Horizontal Kerning in Latin lookup 0 kerning class 1"  } ['kern' ('DFLT' <'dflt' > 'latn' <'dflt' > ) ]
MarkAttachClasses: 1
DEI: 91125
KernClass2: 24 29 "'kern' Horizontal Kerning in Latin lookup 0 kerning class 1" 
 89 A Agrave Aacute Acircumflex Atilde Adieresis Aring Amacron Abreve Aogonek uni0200 uni0202
 9 B uni1E02
 47 C Ccedilla Cacute Ccircumflex Cdotaccent Ccaron
 16 D Dcaron uni1E0A
 9 F uni1E1E
 52 G Gcircumflex Gbreve Gdotaccent Gcommaaccent uni01F4
 13 J Jcircumflex
 14 K Kcommaaccent
 28 L Lacute Lcommaaccent Lcaron
 89 O Ograve Oacute Ocircumflex Otilde Odieresis Omacron Obreve Ohungarumlaut uni020C uni020E
 9 P uni1E56
 44 R Racute Rcommaaccent Rcaron uni0210 uni0212
 1 V

StartChar: .notdef
Encoding: 65536 -1 0
Width: 1024
Flags: W
LayerCount: 2
UndoRedoHistory
Layer: 1
Undoes
EndUndoes
Redoes
EndRedoes
EndUndoRedoHistory
Fore
SplineSet
102 1092 m 1,0,-1
 922 1092 l 1,1,-1
 922 0 l 1,2,-1
 102 0 l 1,3,-1
 102 1092 l 1,0,-1
820 102 m 1,4,-1
 820 990 l 1,5,-1
 204 990 l 1,6,-1
 204 102 l 1,7,-1
 820 102 l 1,4,-1
EndSplineSet
Validated: 1
EndChar

StartChar: exclam
Encoding: 33 33 4
Width: 528
GlyphClass: 2
Flags: W
LayerCount: 2
UndoRedoHistory
Layer: 1
Undoes
EndUndoes
Redoes
EndRedoes
EndUndoRedoHistory
Fore
SplineSet
146 1760 m 1,0,-1
 381 1760 l 1,1,-1
 306 395 l 1,2,-1
 222 395 l 1,3,-1
 146 1760 l 1,0,-1
151 228 m 1,4,-1
 373 228 l 1,5,-1
 373 0 l 1,6,-1
 151 0 l 1,7,-1
 151 228 l 1,4,-1
EndSplineSet
Validated: 1
EndChar

StartChar: quotedbl
Encoding: 34 34 5
Width: 944
GlyphClass: 2
Flags: W
LayerCount: 2
UndoRedoHistory
Layer: 1
Undoes
EndUndoes
Redoes
EndRedoes
EndUndoRedoHistory
Fore
SplineSet
535 1761 m 1,0,-1
 734 1761 l 1,1,-1
 669 1125 l 1,2,-1
 599 1125 l 1,3,-1
 535 1761 l 1,0,-1
220 1761 m 1,4,-1
 419 1761 l 1,5,-1
 354 1125 l 1,6,-1
 284 1125 l 1,7,-1
 220 1761 l 1,4,-1
EndSplineSet
Validated: 1
EndChar

StartChar: numbersign
Encoding: 35 35 6
Width: 1288
GlyphClass: 2
Flags: W
LayerCount: 2
UndoRedoHistory
Layer: 1
Undoes
EndUndoes
Redoes
EndRedoes
EndUndoRedoHistory
Fore
SplineSet
907 1761 m 1,0,-1
 1079 1761 l 1,1,-1
 962 1170 l 1,2,-1
 1106 1170 l 1,3,-1
 1106 1036 l 1,4,-1
 935 1036 l 1,5,-1
 881 760 l 1,6,-1
 1051 760 l 1,7,-1
 1051 626 l 1,8,-1
 854 626 l 1,9,-1
 730 0 l 1,10,-1
 559 0 l 1,11,-1
 681 626 l 1,12,-1
 478 626 l 1,13,-1
 356 0 l 1,14,-1
 185 0 l 1,15,-1
 308 626 l 1,16,-1
 161 626 l 1,17,-1
 161 760 l 1,18,-1
 335 760 l 1,19,-1
 389 1036 l 1,20,-1
 216 1036 l 1,21,-1
 216 1170 l 1,22,-1
 416 1170 l 1,23,-1
 533 1761 l 1,24,-1
 705 1761 l 1,25,-1
 586 1170 l 1,26,-1
 788 1170 l 1,27,-1
 907 1761 l 1,0,-1
709 759 m 1,28,-1
 763 1032 l 1,29,-1
 559 1032 l 1,30,-1
 504 759 l 1,31,-1
 709 759 l 1,28,-1
EndSplineSet
Validated: 1
EndChar

StartChar: dollar
Encoding: 36 36 7
Width: 881
GlyphClass: 2
Flags: W
LayerCount: 2
UndoRedoHistory
Layer: 1
Undoes
EndUndoes
Redoes
EndRedoes
EndUndoRedoHistory
Fore
SplineSet
745 354 m 0,0,1
 745 33 745 33 496 -5 c 1,2,-1
 496 -246 l 1,3,-1
 371 -246 l 1,4,-1
 371 -7 l 1,5,6
 248 8 248 8 174 102 c 128,-1,7
 100 196 100 196 100 424 c 2,8,-1
 100 537 l 1,9,-1
 299 537 l 1,10,-1
 299 425 l 2,11,12
 299 165 299 165 417 165 c 0,13,14
 482 165 482 165 510.5 207 c 128,-1,15
 539 249 539 249 539 353 c 0,16,17
 539 516 539 516 389 663 c 0,18,19
 378 674 378 674 337 712.5 c 128,-1,20
 296 751 296 751 283 764 c 0,21,22
 88 950 88 950 88 1175 c 0,23,24
 88 1494 88 1494 356 1525 c 1,25,-1
 356 1760 l 1,26,-1
 481 1760 l 1,27,-1
 481 1522 l 1,28,29
 540 1512 540 1512 582 1485 c 0,30,31
 720 1395 720 1395 720 1060 c 2,32,-1
 720 988 l 1,33,-1
 525 988 l 1,34,-1
 525 1092 l 2,35,36
 525 1223 525 1223 499.5 1287.5 c 128,-1,37
 474 1352 474 1352 412 1352 c 128,-1,38
 350 1352 350 1352 319 1313 c 128,-1,39
 288 1274 288 1274 288 1181 c 0,40,41
 288 1035 288 1035 425 899 c 1,42,-1
 533 798 l 1,43,44
 745 595 745 595 745 354 c 0,0,1
EndSplineSet
Validated: 1
EndChar

StartChar: percent
Encoding: 37 37 8
Width: 2178
GlyphClass: 2
Flags: W
LayerCount: 2
UndoRedoHistory
Layer: 1
Undoes
EndUndoes
Redoes
EndRedoes
EndUndoRedoHistory
Fore
SplineSet
1360 1760 m 1,0,-1
 1531 1760 l 1,1,-1
 831 0 l 1,2,-1
 652 0 l 1,3,-1
 1360 1760 l 1,0,-1
591 1433 m 2,4,5
 591 1541 591 1541 565 1581 c 128,-1,6
 539 1621 539 1621 466 1621 c 128,-1,7
 393 1621 393 1621 367 1580.5 c 128,-1,8
 341 1540 341 1540 341 1433 c 2,9,-1
 341 937 l 2,10,11
 341 827 341 827 367.5 784.5 c 128,-1,12
 394 742 394 742 466 742 c 128,-1,13
 538 742 538 742 564.5 784.5 c 128,-1,14
 591 827 591 827 591 937 c 2,15,-1
 591 1433 l 2,4,5
156 1364 m 2,16,17
 156 1598 156 1598 224 1690 c 128,-1,18
 292 1782 292 1782 466.5 1782 c 128,-1,19
 641 1782 641 1782 709 1690 c 128,-1,20
 777 1598 777 1598 777 1364 c 2,21,-1
 777 1009 l 2,22,23
 777 771 777 771 708 676 c 128,-1,24
 639 581 639 581 466.5 581 c 128,-1,25
 294 581 294 581 225 676 c 128,-1,26
 156 771 156 771 156 1009 c 2,27,-1
 156 1364 l 2,16,17
1401 763 m 2,28,29
 1401 997 1401 997 1469 1089 c 128,-1,30
 1537 1181 1537 1181 1711.5 1181 c 128,-1,31
 1886 1181 1886 1181 1954 1089 c 128,-1,32
 2022 997 2022 997 2022 763 c 2,33,-1
 2022 408 l 2,34,35
 2022 170 2022 170 1953 75 c 128,-1,36
 1884 -20 1884 -20 1711.5 -20 c 128,-1,37
 1539 -20 1539 -20 1470 75 c 128,-1,38
 1401 170 1401 170 1401 408 c 2,39,-1
 1401 763 l 2,28,29
1837 832 m 2,40,41
 1837 940 1837 940 1811 980 c 128,-1,42
 1785 1020 1785 1020 1712 1020 c 128,-1,43
 1639 1020 1639 1020 1613 979.5 c 128,-1,44
 1587 939 1587 939 1587 832 c 2,45,-1
 1587 336 l 2,46,47
 1587 226 1587 226 1613.5 183.5 c 128,-1,48
 1640 141 1640 141 1711.5 141 c 128,-1,49
 1783 141 1783 141 1810 183.5 c 128,-1,50
 1837 226 1837 226 1837 336 c 2,51,-1
 1837 832 l 2,40,41
EndSplineSet
Validated: 1
EndChar

StartChar: ampersand
Encoding: 38 38 9
Width: 981
GlyphClass: 2
Flags: W
LayerCount: 2
UndoRedoHistory
Layer: 1
Undoes
EndUndoes
Redoes
EndRedoes
EndUndoRedoHistory
Fore
SplineSet
610 357 m 1,0,1
 493 604 493 604 423 763 c 1,2,3
 254 538 254 538 254 346.5 c 128,-1,4
 254 155 254 155 409 155 c 0,5,6
 469 155 469 155 513.5 204.5 c 128,-1,7
 558 254 558 254 610 357 c 1,0,1
480 1098 m 1,8,9
 627 1284 627 1284 627 1445 c 0,10,11
 627 1547 627 1547 603.5 1590 c 128,-1,12
 580 1633 580 1633 513.5 1633 c 128,-1,13
 447 1633 447 1633 420 1597 c 128,-1,14
 393 1561 393 1561 389 1524 c 128,-1,15
 385 1487 385 1487 385 1441 c 0,16,17
 385 1350 385 1350 480 1098 c 1,8,9
982 690 m 1,18,19
 898 589 898 589 794 365 c 1,20,21
 953 15 953 15 959 0 c 1,22,-1
 775 0 l 1,23,24
 759 39 759 39 697 173 c 1,25,26
 639 80 639 80 565 30 c 128,-1,27
 491 -20 491 -20 363 -20 c 128,-1,28
 235 -20 235 -20 150.5 78.5 c 128,-1,29
 66 177 66 177 66 357 c 128,-1,30
 66 537 66 537 145 668 c 128,-1,31
 224 799 224 799 346 940 c 1,32,33
 191 1309 191 1309 191 1437 c 0,34,35
 191 1606 191 1606 270.5 1694 c 128,-1,36
 350 1782 350 1782 502 1782 c 128,-1,37
 654 1782 654 1782 721 1695 c 128,-1,38
 788 1608 788 1608 788 1451 c 128,-1,39
 788 1294 788 1294 720.5 1175.5 c 128,-1,40
 653 1057 653 1057 549 924 c 1,41,42
 606 784 606 784 709 554 c 1,43,44
 796 717 796 717 894 834 c 1,45,-1
 982 690 l 1,18,19
EndSplineSet
Validated: 1
EndChar

StartChar: quotesingle
Encoding: 39 39 10
Width: 413
GlyphClass: 2
Flags: W
LayerCount: 2
UndoRedoHistory
Layer: 1
Undoes
EndUndoes
Redoes
EndRedoes
EndUndoRedoHistory
Fore
SplineSet
112 1761 m 1,0,-1
 309 1761 l 1,1,-1
 244 1125 l 1,2,-1
 172 1125 l 1,3,-1
 112 1761 l 1,0,-1
EndSplineSet
Validated: 1
EndChar

StartChar: parenleft
Encoding: 40 40 11
Width: 567
GlyphClass: 2
Flags: W
LayerCount: 2
UndoRedoHistory
Layer: 1
Undoes
EndUndoes
Redoes
EndRedoes
EndUndoRedoHistory
Fore
SplineSet
131 1391 m 2,0,1
 131 1591 131 1591 172 1683 c 0,2,3
 214 1777 214 1777 336 1800 c 0,4,5
 390 1810 390 1810 475 1811 c 1,6,-1
 475 1656 l 1,7,8
 405 1656 405 1656 381 1638.5 c 128,-1,9
 357 1621 357 1621 346.5 1573 c 128,-1,10
 336 1525 336 1525 336 1385 c 2,11,-1
 336 309 l 2,12,13
 336 88 336 88 370.5 63 c 128,-1,14
 405 38 405 38 475 38 c 1,15,-1
 475 -117 l 1,16,17
 318 -116 318 -116 240 -70 c 0,18,19
 132 -5 132 -5 131 313 c 2,20,21
 131 1391 l 2,0,1
EndSplineSet
Validated: 1
EndChar

StartChar: parenright
Encoding: 41 41 12
Width: 567
GlyphClass: 2
Flags: W
LayerCount: 2
UndoRedoHistory
Layer: 1
Undoes
EndUndoes
Redoes
EndRedoes
EndUndoRedoHistory
Fore
SplineSet
92 1656 m 1,0,-1
 92 1811 l 1,1,2
 198 1811 198 1811 259.5 1795.5 c 128,-1,3
 321 1780 321 1780 363.5 1732 c 128,-1,4
 406 1684 406 1684 421.5 1602 c 128,-1,5
 437 1520 437 1520 437 1381 c 2,6,-1
 437 313 l 2,7,8
 437 174 437 174 421.5 92 c 128,-1,9
 406 10 406 10 363.5 -38 c 128,-1,10
 321 -86 321 -86 259.5 -101.5 c 128,-1,11
 198 -117 198 -117 92 -117 c 1,12,-1
 92 38 l 1,13,14
 162 38 162 38 186 55.5 c 128,-1,15
 210 73 210 73 220.5 121.5 c 128,-1,16
 231 170 231 170 231 309 c 2,17,-1
 231 1385 l 2,18,19
 231 1606 231 1606 196.5 1631 c 128,-1,20
 162 1656 162 1656 92 1656 c 1,0,-1
EndSplineSet
Validated: 1
EndChar

StartChar: asterisk
Encoding: 42 42 13
Width: 960
GlyphClass: 2
Flags: W
LayerCount: 2
UndoRedoHistory
Layer: 1
Undoes
EndUndoes
Redoes
EndRedoes
EndUndoRedoHistory
Fore
SplineSet
400 1727 m 1,0,-1
 560 1727 l 1,1,-1
 536 1454 l 1,2,-1
 762 1626 l 1,3,-1
 843 1487 l 1,4,-1
 586 1361 l 1,5,-1
 843 1228 l 1,6,-1
 762 1088 l 1,7,-1
 536 1266 l 1,8,-1
 560 988 l 1,9,-1
 400 988 l 1,10,-1
 430 1271 l 1,11,-1
 203 1095 l 1,12,-1
 123 1235 l 1,13,-1
 373 1361 l 1,14,-1
 117 1480 l 1,15,-1
 198 1619 l 1,16,-1
 429 1451 l 1,17,-1
 400 1727 l 1,0,-1
EndSplineSet
Validated: 1
EndChar

StartChar: plus
Encoding: 43 43 14
Width: 808
GlyphClass: 2
Flags: W
LayerCount: 2
UndoRedoHistory
Layer: 1
Undoes
EndUndoes
Redoes
EndRedoes
EndUndoRedoHistory
Fore
SplineSet
327 1137 m 1,0,-1
 476 1137 l 1,1,-1
 476 891 l 1,2,-1
 703 891 l 1,3,-1
 703 751 l 1,4,-1
 476 751 l 1,5,-1
 476 501 l 1,6,-1
 327 501 l 1,7,-1
 327 751 l 1,8,-1
 103 751 l 1,9,-1
 103 891 l 1,10,-1
 327 891 l 1,11,-1
 327 1137 l 1,0,-1
EndSplineSet
Validated: 1
EndChar

StartChar: comma
Encoding: 44 44 15
Width: 462
GlyphClass: 2
Flags: W
LayerCount: 2
UndoRedoHistory
Layer: 1
Undoes
EndUndoes
Redoes
EndRedoes
EndUndoRedoHistory
Fore
SplineSet
119 235 m 1,0,-1
 377 235 l 1,1,-1
 377 9 l 1,2,-1
 276 -344 l 1,3,-1
 170 -344 l 1,4,-1
 243 0 l 1,5,-1
 119 0 l 1,6,-1
 119 235 l 1,0,-1
EndSplineSet
Validated: 1
EndChar

StartChar: hyphen
Encoding: 45 45 16
Width: 696
GlyphClass: 2
Flags: W
LayerCount: 2
UndoRedoHistory
Layer: 1
Undoes
EndUndoes
Redoes
EndRedoes
EndUndoRedoHistory
Fore
SplineSet
88 899 m 1,0,-1
 540 899 l 1,1,-1
 540 763 l 1,2,-1
 88 763 l 1,3,-1
 88 899 l 1,0,-1
EndSplineSet
Validated: 1
EndChar

StartChar: period
Encoding: 46 46 17
Width: 532
GlyphClass: 2
Flags: W
LayerCount: 2
UndoRedoHistory
Layer: 1
Undoes
EndUndoes
Redoes
EndRedoes
EndUndoRedoHistory
Fore
SplineSet
171 198 m 1,0,-1
 346 198 l 1,1,-1
 346 0 l 1,2,-1
 171 0 l 1,3,-1
 171 198 l 1,0,-1
EndSplineSet
Validated: 1
EndChar

StartChar: slash
Encoding: 47 47 18
Width: 783
GlyphClass: 2
Flags: W
LayerCount: 2
UndoRedoHistory
Layer: 1
Undoes
EndUndoes
Redoes
EndRedoes
EndUndoRedoHistory
Fore
SplineSet
526 1768 m 1,0,-1
 709 1768 l 1,1,-1
 269 0 l 1,2,-1
 87 0 l 1,3,-1
 526 1768 l 1,0,-1
EndSplineSet
Validated: 1
EndChar

StartChar: zero
Encoding: 48 48 19
Width: 915
GlyphClass: 2
Flags: W
LayerCount: 2
UndoRedoHistory
Layer: 1
Undoes
EndUndoes
Redoes
EndRedoes
EndUndoRedoHistory
Fore
SplineSet
101 1316 m 2,0,1
 101 1550 101 1550 174.5 1665.5 c 128,-1,2
 248 1781 248 1781 454.5 1781 c 128,-1,3
 661 1781 661 1781 736 1666 c 128,-1,4
 811 1551 811 1551 811 1316 c 2,5,-1
 811 475 l 2,6,7
 811 232 811 232 738.5 105.5 c 128,-1,8
 666 -21 666 -21 455.5 -21 c 128,-1,9
 245 -21 245 -21 173 104.5 c 128,-1,10
 101 230 101 230 101 475 c 2,11,-1
 101 1316 l 2,0,1
605 1327 m 2,12,13
 605 1583 605 1583 496 1602 c 0,14,15
 479 1605 479 1605 447 1605 c 128,-1,16
 415 1605 415 1605 385.5 1593 c 128,-1,17
 356 1581 356 1581 331.5 1522 c 128,-1,18
 307 1463 307 1463 307 1328 c 2,19,-1
 307 470 l 1,20,21
 307 466 307 466 307 462 c 0,22,23
 307 224 307 224 366 178 c 0,24,25
 396 154 396 154 438.5 154 c 128,-1,26
 481 154 481 154 499 158 c 1,27,28
 518 160 518 160 540 178 c 0,29,30
 605 228 605 228 605 463 c 0,31,32
 605 467 605 467 605 470 c 1,33,-1
 605 1327 l 2,12,13
EndSplineSet
Validated: 1
EndChar

StartChar: one
Encoding: 49 49 20
Width: 645
GlyphClass: 2
Flags: W
LayerCount: 2
UndoRedoHistory
Layer: 1
Undoes
EndUndoes
Redoes
EndRedoes
EndUndoRedoHistory
Fore
SplineSet
325 1761 m 1,0,-1
 471 1761 l 1,1,-1
 471 0 l 1,2,-1
 265 0 l 1,3,-1
 265 1483 l 1,4,5
 231 1442 231 1442 169 1419.5 c 128,-1,6
 107 1397 107 1397 47 1397 c 1,7,-1
 47 1541 l 1,8,9
 132 1553 132 1553 208.5 1610 c 128,-1,10
 285 1667 285 1667 325 1761 c 1,0,-1
EndSplineSet
Validated: 1
EndChar

StartChar: two
Encoding: 50 50 21
Width: 892
GlyphClass: 2
Flags: W
LayerCount: 2
UndoRedoHistory
Layer: 1
Undoes
EndUndoes
Redoes
EndRedoes
EndUndoRedoHistory
Fore
SplineSet
162 1173 m 2,0,1
 162 1585 162 1585 248 1680 c 0,2,3
 281 1716 281 1716 315 1738 c 0,4,5
 380 1780 380 1780 497 1780 c 0,6,7
 786 1780 786 1780 786 1293 c 0,8,9
 786 1051 786 1051 661 815 c 0,10,11
 606 713 606 713 550 615 c 0,12,13
 409 371 409 371 374 155 c 1,14,-1
 759 155 l 1,15,-1
 759 0 l 1,16,-1
 174 0 l 1,17,-1
 174 98 l 2,18,19
 174 297 174 297 374 685 c 0,20,21
 375 686 375 686 439 810 c 128,-1,22
 503 934 503 934 516 952 c 1,23,24
 549 1013 549 1013 569.5 1115 c 128,-1,25
 590 1217 590 1217 590 1322 c 128,-1,26
 590 1427 590 1427 575 1494 c 128,-1,27
 560 1561 560 1561 538 1582.5 c 128,-1,28
 516 1604 516 1604 485.5 1604 c 128,-1,29
 455 1604 455 1604 436 1592 c 0,30,31
 364 1548 364 1548 364 1294 c 2,32,-1
 364 1065 l 1,33,-1
 162 1065 l 1,34,-1
 162 1173 l 2,0,1
EndSplineSet
Validated: 1
EndChar

StartChar: three
Encoding: 51 51 22
Width: 908
GlyphClass: 2
Flags: W
LayerCount: 2
UndoRedoHistory
Layer: 1
Undoes
EndUndoes
Redoes
EndRedoes
EndUndoRedoHistory
Fore
SplineSet
624 927 m 1,0,1
 806 844 806 844 806 485 c 0,2,3
 806 228 806 228 721 104 c 128,-1,4
 636 -20 636 -20 451 -20 c 128,-1,5
 266 -20 266 -20 190 99 c 128,-1,6
 114 218 114 218 114 474 c 2,7,-1
 114 552 l 1,8,-1
 314 552 l 1,9,-1
 314 471 l 2,10,11
 314 284 314 284 339.5 219.5 c 128,-1,12
 365 155 365 155 452.5 155 c 128,-1,13
 540 155 540 155 570.5 229 c 128,-1,14
 601 303 601 303 601 494.5 c 128,-1,15
 601 686 601 686 559.5 763.5 c 128,-1,16
 518 841 518 841 412 841 c 2,17,-1
 355 841 l 1,18,-1
 355 1006 l 1,19,-1
 410 1006 l 2,20,21
 484 1006 484 1006 522 1030 c 0,22,23
 599 1078 599 1078 599 1313 c 0,24,25
 599 1316 599 1316 599 1319 c 0,26,27
 599 1494 599 1494 560 1549 c 128,-1,28
 521 1604 521 1604 452.5 1604 c 128,-1,29
 384 1604 384 1604 352.5 1541.5 c 128,-1,30
 321 1479 321 1479 321 1316 c 2,31,-1
 321 1274 l 1,32,-1
 118 1274 l 1,33,-1
 118 1319 l 2,34,35
 118 1556 118 1556 195 1668 c 128,-1,36
 272 1780 272 1780 453 1780 c 128,-1,37
 634 1780 634 1780 718 1665.5 c 128,-1,38
 802 1551 802 1551 802 1319 c 0,39,40
 802 993 802 993 624 927 c 1,0,1
EndSplineSet
Validated: 1
EndChar

StartChar: four
Encoding: 52 52 23
Width: 892
GlyphClass: 2
Flags: W
LayerCount: 2
UndoRedoHistory
Layer: 1
Undoes
EndUndoes
Redoes
EndRedoes
EndUndoRedoHistory
Fore
SplineSet
487 1761 m 1,0,-1
 700 1761 l 1,1,-1
 700 496 l 1,2,-1
 845 496 l 1,3,-1
 845 332 l 1,4,-1
 700 332 l 1,5,-1
 700 -1 l 1,6,-1
 512 -1 l 1,7,-1
 512 332 l 1,8,-1
 96 332 l 1,9,-1
 96 477 l 1,10,-1
 487 1761 l 1,0,-1
512 496 m 1,11,-1
 512 1412 l 1,12,-1
 266 496 l 1,13,-1
 512 496 l 1,11,-1
EndSplineSet
Validated: 1
EndChar

StartChar: five
Encoding: 53 53 24
Width: 892
GlyphClass: 2
Flags: W
LayerCount: 2
UndoRedoHistory
Layer: 1
Undoes
EndUndoes
Redoes
EndRedoes
EndUndoRedoHistory
Fore
SplineSet
335 1163 m 1,0,1
 370 1233 370 1233 508 1233 c 1,2,3
 509 1233 509 1233 511 1233 c 0,4,5
 579 1233 579 1233 632 1186 c 0,6,7
 741 1088 741 1088 741 668 c 0,8,9
 741 342 741 342 725.5 263 c 128,-1,10
 710 184 710 184 694 138 c 0,11,12
 642 -20 642 -20 435 -20 c 0,13,14
 128 -20 128 -20 128 316 c 2,15,-1
 128 510 l 1,16,-1
 328 510 l 1,17,-1
 328 315 l 2,18,19
 328 239 328 239 351.5 196.5 c 128,-1,20
 375 154 375 154 433 154 c 128,-1,21
 491 154 491 154 516.5 196 c 128,-1,22
 542 238 542 238 542 326 c 2,23,-1
 542 851 l 2,24,25
 542 958 542 958 519 1008 c 128,-1,26
 496 1058 496 1058 440 1058 c 0,27,28
 324 1058 324 1058 324 871 c 1,29,-1
 146 887 l 1,30,-1
 146 1760 l 1,31,-1
 699 1760 l 1,32,-1
 699 1574 l 1,33,-1
 335 1574 l 1,34,-1
 335 1163 l 1,0,1
EndSplineSet
Validated: 1
EndChar

StartChar: six
Encoding: 54 54 25
Width: 892
GlyphClass: 2
Flags: W
LayerCount: 2
UndoRedoHistory
Layer: 1
Undoes
EndUndoes
Redoes
EndRedoes
EndUndoRedoHistory
Fore
SplineSet
313 1016 m 1,0,1
 378 1102 378 1102 531 1102 c 128,-1,2
 684 1102 684 1102 752.5 981 c 128,-1,3
 821 860 821 860 821 569 c 2,4,-1
 821 462 l 2,5,6
 821 221 821 221 747.5 100.5 c 128,-1,7
 674 -20 674 -20 470 -20 c 0,8,9
 222 -20 222 -20 149 190 c 0,10,11
 107 312 107 312 107 516 c 2,12,-1
 107 1257 l 2,13,14
 107 1542 107 1542 187.5 1661 c 128,-1,15
 268 1780 268 1780 456 1780 c 128,-1,16
 644 1780 644 1780 709.5 1671.5 c 128,-1,17
 775 1563 775 1563 777 1309 c 1,18,-1
 777 1249 l 1,19,-1
 578 1249 l 1,20,-1
 578 1282 l 2,21,22
 578 1519 578 1519 548 1561 c 128,-1,23
 518 1603 518 1603 443 1603 c 128,-1,24
 368 1603 368 1603 340.5 1534 c 128,-1,25
 313 1465 313 1465 313 1262 c 2,26,-1
 313 1016 l 1,0,1
618 573 m 2,27,28
 618 773 618 773 589 849.5 c 128,-1,29
 560 926 560 926 476 926 c 0,30,31
 418 926 418 926 372 902 c 128,-1,32
 326 878 326 878 313 854 c 1,33,-1
 313 482 l 2,34,35
 313 306 313 306 346 232 c 128,-1,36
 379 158 379 158 470 158 c 0,37,38
 530 158 530 158 560 182 c 0,39,40
 618 227 618 227 618 440 c 2,41,-1
 618 573 l 2,27,28
EndSplineSet
Validated: 1
EndChar

StartChar: seven
Encoding: 55 55 26
Width: 892
GlyphClass: 2
Flags: W
LayerCount: 2
UndoRedoHistory
Layer: 1
Undoes
EndUndoes
Redoes
EndRedoes
EndUndoRedoHistory
Fore
SplineSet
113 1761 m 1,0,-1
 815 1761 l 1,1,-1
 815 1611 l 1,2,3
 813 1595 813 1595 757 1436.5 c 128,-1,4
 701 1278 701 1278 655 1113 c 1,5,6
 491 549 491 549 457 1 c 1,7,-1
 236 1 l 1,8,9
 277 548 277 548 476 1183 c 1,10,11
 538 1391 538 1391 576 1488.5 c 128,-1,12
 614 1586 614 1586 614 1587 c 1,13,-1
 113 1587 l 1,14,-1
 113 1761 l 1,0,-1
EndSplineSet
Validated: 1
EndChar

StartChar: eight
Encoding: 56 56 27
Width: 892
GlyphClass: 2
Flags: W
LayerCount: 2
UndoRedoHistory
Layer: 1
Undoes
EndUndoes
Redoes
EndRedoes
EndUndoRedoHistory
Fore
SplineSet
116 1344 m 0,0,1
 116 1576 116 1576 193 1678 c 128,-1,2
 270 1780 270 1780 452.5 1780 c 128,-1,3
 635 1780 635 1780 710.5 1678.5 c 128,-1,4
 786 1577 786 1577 786 1344 c 0,5,6
 786 1044 786 1044 643 946 c 1,7,8
 709 897 709 897 749 768.5 c 128,-1,9
 789 640 789 640 789 494 c 2,10,-1
 789 424 l 1,11,12
 785 191 785 191 706 85.5 c 128,-1,13
 627 -20 627 -20 451 -20 c 128,-1,14
 275 -20 275 -20 192 85 c 128,-1,15
 109 190 109 190 104 417 c 0,16,17
 103 429 103 429 103 535.5 c 128,-1,18
 103 642 103 642 144 769 c 128,-1,19
 185 896 185 896 255 943 c 1,20,21
 116 1042 116 1042 116 1344 c 0,0,1
583 507 m 2,22,23
 583 685 583 685 548.5 774 c 128,-1,24
 514 863 514 863 452.5 863 c 128,-1,25
 391 863 391 863 350.5 771.5 c 128,-1,26
 310 680 310 680 310 504 c 2,27,-1
 310 435 l 1,28,29
 311 274 311 274 339 214 c 128,-1,30
 367 154 367 154 442 154 c 128,-1,31
 517 154 517 154 545 189.5 c 128,-1,32
 573 225 573 225 578 297.5 c 128,-1,33
 583 370 583 370 583 440 c 2,34,-1
 583 507 l 2,22,23
562 1132.5 m 128,-1,36
 580 1208 580 1208 580 1318.5 c 128,-1,37
 580 1429 580 1429 572.5 1485.5 c 128,-1,38
 565 1542 565 1542 547 1570 c 128,-1,39
 529 1598 529 1598 508 1606 c 128,-1,40
 487 1614 487 1614 445.5 1614 c 128,-1,41
 404 1614 404 1614 378 1596 c 0,42,43
 322 1555 322 1555 322 1321.5 c 128,-1,44
 322 1088 322 1088 382 1032 c 0,45,46
 408 1007 408 1007 449 1007 c 128,-1,47
 490 1007 490 1007 517 1032 c 128,-1,35
 544 1057 544 1057 562 1132.5 c 128,-1,36
EndSplineSet
Validated: 1
EndChar

StartChar: nine
Encoding: 57 57 28
Width: 892
GlyphClass: 2
Flags: W
LayerCount: 2
UndoRedoHistory
Layer: 1
Undoes
EndUndoes
Redoes
EndRedoes
EndUndoRedoHistory
Fore
SplineSet
67 1250 m 2,0,1
 67 1455 67 1455 95.5 1548.5 c 128,-1,2
 124 1642 124 1642 160 1685 c 0,3,4
 241 1780 241 1780 407.5 1780 c 128,-1,5
 574 1780 574 1780 647.5 1693 c 128,-1,6
 721 1606 721 1606 736 1425 c 0,7,8
 742 1352 742 1352 742 1244 c 2,9,-1
 742 536 l 2,10,11
 742 178 742 178 641 66 c 0,12,13
 563 -20 563 -20 405.5 -20 c 128,-1,14
 248 -20 248 -20 176 90 c 128,-1,15
 104 200 104 200 101 449 c 1,16,-1
 101 513 l 1,17,-1
 297 513 l 1,18,-1
 297 483 l 2,19,20
 297 240 297 240 331 197.5 c 128,-1,21
 365 155 365 155 430 155 c 128,-1,22
 495 155 495 155 515.5 209.5 c 128,-1,23
 536 264 536 264 536 432 c 2,24,-1
 536 706 l 1,25,26
 484 663 484 663 385 663 c 0,27,28
 197 663 197 663 132 798 c 128,-1,29
 67 933 67 933 67 1205 c 2,30,-1
 67 1250 l 2,0,1
536 1279 m 2,31,32
 536 1446 536 1446 517 1504.5 c 128,-1,33
 498 1563 498 1563 472 1582.5 c 128,-1,34
 446 1602 446 1602 404 1602 c 0,35,36
 321 1602 321 1602 296 1523 c 128,-1,37
 271 1444 271 1444 271 1278 c 2,38,-1
 271 1177 l 2,39,40
 271 975 271 975 297.5 901.5 c 128,-1,41
 324 828 324 828 417.5 828 c 128,-1,42
 511 828 511 828 536 884 c 1,43,-1
 536 1279 l 2,31,32
EndSplineSet
Validated: 1
EndChar

StartChar: colon
Encoding: 58 58 29
Width: 555
GlyphClass: 2
Flags: W
LayerCount: 2
UndoRedoHistory
Layer: 1
Undoes
EndUndoes
Redoes
EndRedoes
EndUndoRedoHistory
Fore
SplineSet
152 1307 m 1,0,-1
 403 1307 l 1,1,-1
 403 1057 l 1,2,-1
 152 1057 l 1,3,-1
 152 1307 l 1,0,-1
152 520 m 1,4,-1
 403 520 l 1,5,-1
 403 270 l 1,6,-1
 152 270 l 1,7,-1
 152 520 l 1,4,-1
EndSplineSet
Validated: 1
EndChar

StartChar: semicolon
Encoding: 59 59 30
Width: 561
GlyphClass: 2
Flags: W
LayerCount: 2
UndoRedoHistory
Layer: 1
Undoes
EndUndoes
Redoes
EndRedoes
EndUndoRedoHistory
Fore
SplineSet
143 534 m 1,0,-1
 428 534 l 1,1,-1
 428 291 l 1,2,-1
 314 -103 l 1,3,-1
 190 -103 l 1,4,-1
 276 282 l 1,5,-1
 143 282 l 1,6,-1
 143 534 l 1,0,-1
133 1234 m 1,7,-1
 414 1234 l 1,8,-1
 414 954 l 1,9,-1
 133 954 l 1,10,-1
 133 1234 l 1,7,-1
EndSplineSet
Validated: 1
EndChar

StartChar: less
Encoding: 60 60 31
Width: 730
GlyphClass: 2
Flags: W
LayerCount: 2
UndoRedoHistory
Layer: 1
Undoes
EndUndoes
Redoes
EndRedoes
EndUndoRedoHistory
Fore
SplineSet
64 860 m 1,0,-1
 640 1241 l 1,1,-1
 640 1021 l 1,2,-1
 207 755 l 1,3,-1
 640 478 l 1,4,-1
 640 264 l 1,5,-1
 64 649 l 1,6,-1
 64 860 l 1,0,-1
EndSplineSet
Validated: 1
EndChar

StartChar: equal
Encoding: 61 61 32
Width: 722
GlyphClass: 2
Flags: W
LayerCount: 2
UndoRedoHistory
Layer: 1
Undoes
EndUndoes
Redoes
EndRedoes
EndUndoRedoHistory
Fore
SplineSet
84 735 m 1,0,-1
 668 735 l 1,1,-1
 668 576 l 1,2,-1
 84 576 l 1,3,-1
 84 735 l 1,0,-1
84 1050 m 1,4,-1
 668 1050 l 1,5,-1
 668 892 l 1,6,-1
 84 892 l 1,7,-1
 84 1050 l 1,4,-1
EndSplineSet
Validated: 1
EndChar

StartChar: greater
Encoding: 62 62 33
Width: 730
GlyphClass: 2
Flags: W
LayerCount: 2
UndoRedoHistory
Layer: 1
Undoes
EndUndoes
Redoes
EndRedoes
EndUndoRedoHistory
Fore
SplineSet
87 1027 m 1,0,-1
 87 1241 l 1,1,-1
 663 857 l 1,2,-1
 663 646 l 1,3,-1
 87 264 l 1,4,-1
 87 484 l 1,5,-1
 520 749 l 1,6,-1
 87 1027 l 1,0,-1
EndSplineSet
Validated: 1
EndChar

StartChar: question
Encoding: 63 63 34
Width: 799
GlyphClass: 2
Flags: W
LayerCount: 2
UndoRedoHistory
Layer: 1
Undoes
EndUndoes
Redoes
EndRedoes
EndUndoRedoHistory
Fore
SplineSet
140 1370 m 2,0,1
 140 1529 140 1529 160 1585 c 0,2,3
 197 1691 197 1691 258 1736.5 c 128,-1,4
 319 1782 319 1782 427 1782 c 0,5,6
 594 1782 594 1782 654 1685 c 0,7,8
 695 1617 695 1617 705.5 1524 c 128,-1,9
 716 1431 716 1431 716 1310.5 c 128,-1,10
 716 1190 716 1190 708 1112 c 0,11,12
 690 938 690 938 624 848 c 128,-1,13
 558 758 558 758 418 718 c 1,14,-1
 418 494 l 1,15,-1
 239 494 l 1,16,-1
 239 810 l 1,17,18
 326 836 326 836 360.5 860 c 128,-1,19
 395 884 395 884 414.5 899.5 c 128,-1,20
 434 915 434 915 449 941 c 0,21,22
 502 1033 502 1033 507 1192 c 0,23,24
 509 1262 509 1262 509 1387.5 c 128,-1,25
 509 1513 509 1513 497 1558.5 c 128,-1,26
 485 1604 485 1604 427.5 1604 c 128,-1,27
 370 1604 370 1604 356.5 1557 c 128,-1,28
 343 1510 343 1510 343 1356 c 2,29,-1
 343 1160 l 1,30,-1
 140 1160 l 1,31,-1
 140 1370 l 2,0,1
242 299 m 1,32,-1
 419 299 l 1,33,-1
 419 1 l 1,34,-1
 242 1 l 1,35,-1
 242 299 l 1,32,-1
EndSplineSet
Validated: 1
EndChar

StartChar: at
Encoding: 64 64 35
Width: 1406
GlyphClass: 2
Flags: W
LayerCount: 2
UndoRedoHistory
Layer: 1
Undoes
EndUndoes
Redoes
EndRedoes
EndUndoRedoHistory
Fore
SplineSet
1077 518 m 0,0,1
 1173 518 1173 518 1173 866 c 0,2,3
 1173 1105 1173 1105 1157.5 1204 c 128,-1,4
 1142 1303 1142 1303 1122 1360 c 0,5,6
 1028 1636 1028 1636 751 1636 c 0,7,8
 254 1636 254 1636 254 833 c 0,9,10
 254 430 254 430 363 257 c 128,-1,11
 472 84 472 84 694 84 c 1,12,13
 838 88 838 88 889 112 c 1,14,-1
 911 -27 l 1,15,16
 769 -56 769 -56 690 -56 c 0,17,18
 398 -56 398 -56 246 167.5 c 128,-1,19
 94 391 94 391 94 831 c 128,-1,20
 94 1271 94 1271 251.5 1526 c 128,-1,21
 409 1781 409 1781 764 1781 c 0,22,23
 1181 1781 1181 1781 1284 1270 c 0,24,25
 1316 1112 1316 1112 1316 931.5 c 128,-1,26
 1316 751 1316 751 1291.5 635 c 128,-1,27
 1267 519 1267 519 1211 448.5 c 128,-1,28
 1155 378 1155 378 1083 378 c 128,-1,29
 1011 378 1011 378 961.5 440.5 c 128,-1,30
 912 503 912 503 894 591 c 1,31,32
 876 487 876 487 821 424 c 128,-1,33
 766 361 766 361 700 361 c 0,34,35
 577 361 577 361 493 463.5 c 128,-1,36
 409 566 409 566 409 795.5 c 128,-1,37
 409 1025 409 1025 477 1154 c 128,-1,38
 545 1283 545 1283 669 1283 c 0,39,40
 739 1283 739 1283 791 1243.5 c 128,-1,41
 843 1204 843 1204 875 1148 c 1,42,-1
 905 1270 l 1,43,-1
 1005 1270 l 1,44,-1
 1005 713 l 2,45,46
 1005 614 1005 614 1021 566 c 128,-1,47
 1037 518 1037 518 1077 518 c 0,0,1
696 1133 m 0,48,49
 548 1133 548 1133 548 821 c 128,-1,50
 548 509 548 509 701 509 c 0,51,52
 774 509 774 509 820.5 579 c 128,-1,53
 867 649 867 649 867 759 c 2,54,-1
 867 1062 l 1,55,56
 766 1133 766 1133 696 1133 c 0,48,49
EndSplineSet
Validated: 1
EndChar

StartChar: A
Encoding: 65 65 36
Width: 939
GlyphClass: 2
Flags: W
LayerCount: 2
UndoRedoHistory
Layer: 1
Undoes
EndUndoes
Redoes
EndRedoes
EndUndoRedoHistory
Fore
SplineSet
333 1760 m 1,0,-1
 582 1760 l 1,1,-1
 873 0 l 1,2,-1
 678 0 l 1,3,-1
 628 336 l 1,4,-1
 309 336 l 1,5,-1
 263 0 l 1,6,-1
 66 0 l 1,7,-1
 333 1760 l 1,0,-1
332 504 m 1,8,-1
 602 504 l 1,9,-1
 463 1434 l 1,10,-1
 460 1434 l 1,11,-1
 332 504 l 1,8,-1
EndSplineSet
Validated: 1
EndChar

StartChar: B
Encoding: 66 66 37
Width: 952
GlyphClass: 2
Flags: W
LayerCount: 2
UndoRedoHistory
Layer: 1
Undoes
EndUndoes
Redoes
EndRedoes
EndUndoRedoHistory
Fore
SplineSet
160 1760 m 1,0,-1
 478 1760 l 2,1,2
 677 1760 677 1760 748.5 1669.5 c 128,-1,3
 820 1579 820 1579 822 1364 c 1,4,-1
 822 1326 l 2,5,6
 822 1171 822 1171 793 1082 c 128,-1,7
 764 993 764 993 689 953 c 1,8,9
 851 887 851 887 851 530 c 2,10,-1
 851 493 l 1,11,12
 848 229 848 229 771 114.5 c 128,-1,13
 694 0 694 0 504 0 c 2,14,-1
 160 0 l 1,15,-1
 160 1760 l 1,0,-1
643 560 m 2,16,17
 643 730 643 730 615 798 c 128,-1,18
 587 866 587 866 505 866 c 2,19,-1
 367 866 l 1,20,-1
 367 167 l 1,21,-1
 494 167 l 2,22,23
 582 167 582 167 612.5 236 c 128,-1,24
 643 305 643 305 643 499 c 2,25,-1
 643 560 l 2,16,17
617 1361 m 1,26,27
 617 1364 617 1364 617 1367 c 0,28,29
 617 1543 617 1543 556 1575 c 0,30,31
 526 1591 526 1591 469 1591 c 2,32,-1
 367 1591 l 1,33,-1
 367 1025 l 1,34,-1
 484 1025 l 2,35,36
 544 1025 544 1025 569.5 1044.5 c 128,-1,37
 595 1064 595 1064 606 1122 c 128,-1,38
 617 1180 617 1180 617 1312 c 2,39,-1
 617 1361 l 1,26,27
EndSplineSet
Validated: 1
EndChar

StartChar: C
Encoding: 67 67 38
Width: 918
GlyphClass: 2
Flags: W
LayerCount: 2
UndoRedoHistory
Layer: 1
Undoes
EndUndoes
Redoes
EndRedoes
EndUndoRedoHistory
Fore
SplineSet
124 1252 m 2,0,1
 124 1452 124 1452 157 1546 c 128,-1,2
 190 1640 190 1640 229 1684 c 0,3,4
 314 1780 314 1780 477 1781 c 1,5,6
 705 1780 705 1780 771 1580 c 0,7,8
 809 1465 809 1465 809 1274 c 2,9,-1
 809 1079 l 1,10,-1
 606 1079 l 1,11,-1
 606 1275 l 2,12,13
 606 1444 606 1444 587.5 1503.5 c 128,-1,14
 569 1563 569 1563 543 1582.5 c 128,-1,15
 517 1602 517 1602 477 1602 c 0,16,17
 394 1602 394 1602 362.5 1523.5 c 128,-1,18
 331 1445 331 1445 331 1276 c 2,19,-1
 331 514 l 2,20,21
 331 314 331 314 359.5 234.5 c 128,-1,22
 388 155 388 155 469.5 155 c 128,-1,23
 551 155 551 155 578.5 235 c 128,-1,24
 606 315 606 315 606 515 c 2,25,-1
 606 710 l 1,26,-1
 811 710 l 1,27,-1
 811 517 l 2,28,29
 811 240 811 240 735.5 109.5 c 128,-1,30
 660 -21 660 -21 472 -21 c 128,-1,31
 284 -21 284 -21 204 113.5 c 128,-1,32
 124 248 124 248 124 519 c 2,33,-1
 124 1252 l 2,0,1
EndSplineSet
Validated: 1
EndChar

StartChar: D
Encoding: 68 68 39
Width: 949
GlyphClass: 2
Flags: W
LayerCount: 2
UndoRedoHistory
Layer: 1
Undoes
EndUndoes
Redoes
EndRedoes
EndUndoRedoHistory
Fore
SplineSet
143 1760 m 1,0,-1
 474 1760 l 2,1,2
 676 1760 676 1760 752 1635.5 c 128,-1,3
 828 1511 828 1511 828 1282 c 2,4,-1
 829 509 l 2,5,6
 829 238 829 238 746 119 c 128,-1,7
 663 0 663 0 467 0 c 2,8,-1
 143 0 l 1,9,-1
 143 1760 l 1,0,-1
622 1287 m 2,10,11
 622 1452 622 1452 583 1524 c 128,-1,12
 544 1596 544 1596 455 1596 c 2,13,-1
 349 1596 l 1,14,-1
 349 167 l 1,15,-1
 455 167 l 2,16,17
 515 167 515 167 549 191 c 0,18,19
 622 243 622 243 622 477 c 2,20,-1
 622 1287 l 2,10,11
EndSplineSet
Validated: 1
EndChar

StartChar: E
Encoding: 69 69 40
Width: 771
GlyphClass: 2
Flags: W
LayerCount: 2
UndoRedoHistory
Layer: 1
Undoes
EndUndoes
Redoes
EndRedoes
EndUndoRedoHistory
Fore
SplineSet
144 1760 m 1,0,-1
 670 1760 l 1,1,-1
 670 1588 l 1,2,-1
 351 1588 l 1,3,-1
 351 986 l 1,4,-1
 653 986 l 1,5,-1
 653 814 l 1,6,-1
 351 814 l 1,7,-1
 351 172 l 1,8,-1
 674 172 l 1,9,-1
 674 0 l 1,10,-1
 144 0 l 1,11,-1
 144 1760 l 1,0,-1
EndSplineSet
Validated: 1
EndChar

StartChar: F
Encoding: 70 70 41
Width: 746
GlyphClass: 2
Flags: W
LayerCount: 2
UndoRedoHistory
Layer: 1
Undoes
EndUndoes
Redoes
EndRedoes
EndUndoRedoHistory
Fore
SplineSet
143 1760 m 1,0,-1
 673 1760 l 1,1,-1
 673 1587 l 1,2,-1
 349 1587 l 1,3,-1
 349 1031 l 1,4,-1
 653 1031 l 1,5,-1
 653 856 l 1,6,-1
 349 856 l 1,7,-1
 349 0 l 1,8,-1
 143 0 l 1,9,-1
 143 1760 l 1,0,-1
EndSplineSet
Validated: 1
EndChar

StartChar: G
Encoding: 71 71 42
Width: 942
GlyphClass: 2
Flags: W
LayerCount: 2
UndoRedoHistory
Layer: 1
Undoes
EndUndoes
Redoes
EndRedoes
EndUndoRedoHistory
Fore
SplineSet
124 1262 m 2,0,1
 124 1650 124 1650 308 1744 c 0,2,3
 380 1780 380 1780 466 1781 c 1,4,5
 627 1781 627 1781 699 1712.5 c 128,-1,6
 771 1644 771 1644 792 1531.5 c 128,-1,7
 813 1419 813 1419 813 1258 c 2,8,-1
 813 1122 l 1,9,-1
 613 1122 l 1,10,-1
 613 1351 l 2,11,12
 613 1486 613 1486 585.5 1544 c 128,-1,13
 558 1602 558 1602 477.5 1602 c 128,-1,14
 397 1602 397 1602 364 1529 c 128,-1,15
 331 1456 331 1456 331 1271 c 2,16,-1
 331 531 l 2,17,18
 331 320 331 320 360 237.5 c 128,-1,19
 389 155 389 155 474.5 155 c 128,-1,20
 560 155 560 155 591.5 240 c 128,-1,21
 623 325 623 325 623 535 c 2,22,-1
 623 764 l 1,23,-1
 480 764 l 1,24,-1
 480 924 l 1,25,-1
 813 924 l 1,26,-1
 813 0 l 1,27,-1
 704 0 l 1,28,-1
 676 136 l 1,29,30
 617 -17 617 -17 450.5 -17 c 128,-1,31
 284 -17 284 -17 204 112.5 c 128,-1,32
 124 242 124 242 124 524 c 2,33,-1
 124 1262 l 2,0,1
EndSplineSet
Validated: 1
EndChar

StartChar: H
Encoding: 72 72 43
Width: 984
GlyphClass: 2
Flags: W
LayerCount: 2
UndoRedoHistory
Layer: 1
Undoes
EndUndoes
Redoes
EndRedoes
EndUndoRedoHistory
Fore
SplineSet
633 1760 m 1,0,-1
 840 1760 l 1,1,-1
 840 0 l 1,2,-1
 633 0 l 1,3,-1
 633 853 l 1,4,-1
 351 853 l 1,5,-1
 351 0 l 1,6,-1
 144 0 l 1,7,-1
 144 1760 l 1,8,-1
 351 1760 l 1,9,-1
 351 1022 l 1,10,-1
 633 1022 l 1,11,-1
 633 1760 l 1,0,-1
EndSplineSet
Validated: 1
EndChar

StartChar: I
Encoding: 73 73 44
Width: 527
GlyphClass: 2
Flags: W
LayerCount: 2
UndoRedoHistory
Layer: 1
Undoes
EndUndoes
Redoes
EndRedoes
EndUndoRedoHistory
Fore
SplineSet
160 1760 m 1,0,-1
 367 1760 l 1,1,-1
 367 0 l 1,2,-1
 160 0 l 1,3,-1
 160 1760 l 1,0,-1
EndSplineSet
Validated: 1
EndChar

StartChar: J
Encoding: 74 74 45
Width: 858
GlyphClass: 2
Flags: W
LayerCount: 2
UndoRedoHistory
Layer: 1
Undoes
EndUndoes
Redoes
EndRedoes
EndUndoRedoHistory
Fore
SplineSet
511 1760 m 1,0,-1
 718 1760 l 1,1,-1
 718 426 l 2,2,3
 718 -21 718 -21 404 -21 c 0,4,5
 238 -21 238 -21 160 80.5 c 128,-1,6
 82 182 82 182 82 389 c 2,7,-1
 82 619 l 1,8,-1
 284 619 l 1,9,-1
 284 402 l 2,10,11
 284 268 284 268 296 238 c 0,12,13
 308 208 308 208 320 190 c 0,14,15
 344 155 344 155 399.5 155 c 128,-1,16
 455 155 455 155 478.5 192.5 c 128,-1,17
 502 230 502 230 506.5 284.5 c 128,-1,18
 511 339 511 339 511 418 c 2,19,-1
 511 1760 l 1,0,-1
EndSplineSet
Validated: 1
EndChar

StartChar: K
Encoding: 75 75 46
Width: 894
GlyphClass: 2
Flags: W
LayerCount: 2
UndoRedoHistory
Layer: 1
Undoes
EndUndoes
Redoes
EndRedoes
EndUndoRedoHistory
Fore
SplineSet
664 1760 m 1,0,-1
 872 1760 l 1,1,-1
 544 891 l 1,2,-1
 895 0 l 1,3,-1
 679 0 l 1,4,-1
 353 842 l 1,5,-1
 353 0 l 1,6,-1
 144 0 l 1,7,-1
 144 1760 l 1,8,-1
 351 1760 l 1,9,-1
 351 921 l 1,10,-1
 664 1760 l 1,0,-1
EndSplineSet
Validated: 1
EndChar

StartChar: L
Encoding: 76 76 47
Width: 712
GlyphClass: 2
Flags: W
LayerCount: 2
UndoRedoHistory
Layer: 1
Undoes
EndUndoes
Redoes
EndRedoes
EndUndoRedoHistory
Fore
SplineSet
144 1760 m 1,0,-1
 351 1760 l 1,1,-1
 351 171 l 1,2,-1
 676 171 l 1,3,-1
 676 0 l 1,4,-1
 144 0 l 1,5,-1
 144 1760 l 1,0,-1
EndSplineSet
Validated: 1
EndChar

StartChar: M
Encoding: 77 77 48
Width: 1296
GlyphClass: 2
Flags: W
LayerCount: 2
UndoRedoHistory
Layer: 1
Undoes
EndUndoes
Redoes
EndRedoes
EndUndoRedoHistory
Fore
SplineSet
893 1760 m 1,0,-1
 1152 1760 l 1,1,-1
 1152 0 l 1,2,-1
 968 0 l 1,3,-1
 968 706 l 1,4,-1
 985 1364 l 1,5,-1
 746 3 l 1,6,-1
 559 3 l 1,7,-1
 310 1364 l 1,8,-1
 327 706 l 1,9,-1
 327 0 l 1,10,-1
 144 0 l 1,11,-1
 144 1760 l 1,12,-1
 402 1760 l 1,13,-1
 654 313 l 1,14,-1
 893 1760 l 1,0,-1
EndSplineSet
Validated: 1
EndChar

StartChar: N
Encoding: 78 78 49
Width: 1014
GlyphClass: 2
Flags: W
LayerCount: 2
UndoRedoHistory
Layer: 1
Undoes
EndUndoes
Redoes
EndRedoes
EndUndoRedoHistory
Fore
SplineSet
687 1760 m 1,0,-1
 870 1760 l 1,1,-1
 870 0 l 1,2,-1
 718 0 l 1,3,-1
 323 1208 l 1,4,-1
 335 764 l 1,5,-1
 335 0 l 1,6,-1
 144 0 l 1,7,-1
 144 1760 l 1,8,-1
 300 1760 l 1,9,-1
 708 562 l 1,10,-1
 687 1071 l 1,11,-1
 687 1760 l 1,0,-1
EndSplineSet
Validated: 1
EndChar

StartChar: O
Encoding: 79 79 50
Width: 944
GlyphClass: 2
Flags: W
LayerCount: 2
UndoRedoHistory
Layer: 1
Undoes
EndUndoes
Redoes
EndRedoes
EndUndoRedoHistory
Fore
SplineSet
124 1282 m 2,0,1
 124 1582 124 1582 232 1694 c 0,2,3
 317 1782 317 1782 479 1782 c 0,4,5
 715 1782 715 1782 781 1588 c 0,6,7
 820 1473 820 1473 820 1282 c 2,8,-1
 820 506 l 2,9,10
 820 231 820 231 743 105.5 c 128,-1,11
 666 -20 666 -20 473.5 -20 c 128,-1,12
 281 -20 281 -20 202.5 106 c 128,-1,13
 124 232 124 232 124 506 c 2,14,-1
 124 1282 l 2,0,1
613 1294 m 2,15,16
 613 1463 613 1463 586 1533.5 c 128,-1,17
 559 1604 559 1604 477 1604 c 128,-1,18
 395 1604 395 1604 363 1532 c 128,-1,19
 331 1460 331 1460 331 1295 c 2,20,-1
 331 504 l 2,21,22
 331 303 331 303 359 230.5 c 128,-1,23
 387 158 387 158 472 158 c 128,-1,24
 557 158 557 158 585 231.5 c 128,-1,25
 613 305 613 305 613 504 c 2,26,-1
 613 1294 l 2,15,16
EndSplineSet
Validated: 1
EndChar

StartChar: P
Encoding: 80 80 51
Width: 890
GlyphClass: 2
Flags: W
LayerCount: 2
UndoRedoHistory
Layer: 1
Undoes
EndUndoes
Redoes
EndRedoes
EndUndoRedoHistory
Fore
SplineSet
144 1760 m 1,0,-1
 498 1760 l 2,1,2
 732 1760 732 1760 792 1566 c 0,3,4
 830 1444 830 1444 830 1281 c 128,-1,5
 830 1118 830 1118 821 1036 c 0,6,7
 801 856 801 856 726 773.5 c 128,-1,8
 651 691 651 691 498 691 c 2,9,-1
 351 691 l 1,10,-1
 351 0 l 1,11,-1
 144 0 l 1,12,-1
 144 1760 l 1,0,-1
623 1263 m 2,13,14
 623 1444 623 1444 594.5 1520 c 128,-1,15
 566 1596 566 1596 482 1596 c 2,16,-1
 351 1596 l 1,17,-1
 351 863 l 1,18,-1
 477 863 l 2,19,20
 565 863 565 863 594 940 c 128,-1,21
 623 1017 623 1017 623 1229 c 2,22,-1
 623 1263 l 2,13,14
EndSplineSet
Validated: 1
EndChar

StartChar: Q
Encoding: 81 81 52
Width: 944
GlyphClass: 2
Flags: W
LayerCount: 2
UndoRedoHistory
Layer: 1
Undoes
EndUndoes
Redoes
EndRedoes
EndUndoRedoHistory
Fore
SplineSet
613 1294 m 2,0,1
 613 1463 613 1463 586 1533.5 c 128,-1,2
 559 1604 559 1604 477 1604 c 128,-1,3
 395 1604 395 1604 363 1532 c 128,-1,4
 331 1460 331 1460 331 1295 c 2,5,-1
 331 504 l 2,6,7
 331 303 331 303 359 230.5 c 128,-1,8
 387 158 387 158 472 158 c 128,-1,9
 557 158 557 158 585 231.5 c 128,-1,10
 613 305 613 305 613 504 c 2,11,-1
 613 1294 l 2,0,1
124 1282 m 2,12,13
 124 1582 124 1582 232 1694 c 0,14,15
 317 1782 317 1782 479 1782 c 0,16,17
 715 1782 715 1782 781 1588 c 0,18,19
 820 1473 820 1473 820 1282 c 2,20,-1
 820 506 l 2,21,22
 820 232 820 232 743 106 c 0,23,24
 698 33 698 33 615 2 c 1,25,-1
 769 -176 l 1,26,-1
 667 -269 l 1,27,-1
 437 -19 l 1,28,29
 273 -8 273 -8 198.5 112 c 128,-1,30
 124 232 124 232 124 506 c 2,31,-1
 124 1282 l 2,12,13
EndSplineSet
Validated: 1
EndChar

StartChar: R
Encoding: 82 82 53
Width: 953
GlyphClass: 2
Flags: W
LayerCount: 2
UndoRedoHistory
Layer: 1
Undoes
EndUndoes
Redoes
EndRedoes
EndUndoRedoHistory
Fore
SplineSet
144 1760 m 1,0,-1
 513 1760 l 2,1,2
 670 1760 670 1760 739 1695 c 128,-1,3
 808 1630 808 1630 822 1474 c 0,4,5
 828 1410 828 1410 828 1274.5 c 128,-1,6
 828 1139 828 1139 792.5 1047 c 128,-1,7
 757 955 757 955 667 928 c 1,8,9
 733 917 733 917 767 858.5 c 128,-1,10
 801 800 801 800 815 672.5 c 128,-1,11
 829 545 829 545 829 293.5 c 128,-1,12
 829 42 829 42 845 0 c 1,13,-1
 639 0 l 1,14,15
 623 32 623 32 623 593 c 0,16,17
 623 782 623 782 586 812.5 c 128,-1,18
 549 843 549 843 474 843 c 1,19,-1
 351 850 l 1,20,-1
 351 0 l 1,21,-1
 144 0 l 1,22,-1
 144 1760 l 1,0,-1
623 1329 m 2,23,24
 623 1532 623 1532 586.5 1564 c 128,-1,25
 550 1596 550 1596 481 1596 c 2,26,-1
 351 1596 l 1,27,-1
 351 1002 l 1,28,-1
 483 1002 l 2,29,30
 543 1002 543 1002 571 1025 c 128,-1,31
 599 1048 599 1048 611 1113 c 128,-1,32
 623 1178 623 1178 623 1317 c 2,33,-1
 623 1329 l 2,23,24
EndSplineSet
Validated: 1
EndChar

StartChar: S
Encoding: 83 83 54
Width: 872
GlyphClass: 2
Flags: W
LayerCount: 2
UndoRedoHistory
Layer: 1
Undoes
EndUndoes
Redoes
EndRedoes
EndUndoRedoHistory
Fore
SplineSet
124 1215 m 0,0,1
 106 1278 106 1278 106 1366 c 0,2,3
 106 1557 106 1557 176.5 1669.5 c 128,-1,4
 247 1782 247 1782 446 1782 c 0,5,6
 702 1782 702 1782 748 1536 c 0,7,8
 768 1430 768 1430 768 1269 c 2,9,-1
 768 1165 l 1,10,-1
 570 1165 l 1,11,-1
 570 1283 l 2,12,13
 570 1451 570 1451 553 1509 c 128,-1,14
 536 1567 536 1567 511 1586 c 128,-1,15
 486 1605 486 1605 446 1605 c 0,16,17
 371 1605 371 1605 338 1550 c 128,-1,18
 305 1495 305 1495 305 1387 c 128,-1,19
 305 1279 305 1279 335 1229 c 128,-1,20
 365 1179 365 1179 409 1133.5 c 128,-1,21
 453 1088 453 1088 458 1082 c 2,22,-1
 578 955 l 1,23,24
 794 729 794 729 794 449 c 0,25,26
 794 221 794 221 723.5 100.5 c 128,-1,27
 653 -20 653 -20 455 -20 c 0,28,29
 216 -20 216 -20 152 190 c 1,30,31
 115 308 115 308 115 499 c 0,32,33
 115 504 115 504 115 509 c 1,34,-1
 115 680 l 1,35,-1
 316 680 l 1,36,-1
 316 501 l 2,37,38
 316 308 316 308 344 232.5 c 128,-1,39
 372 157 372 157 448 157 c 128,-1,40
 524 157 524 157 553 192.5 c 128,-1,41
 582 228 582 228 586.5 301 c 128,-1,42
 591 374 591 374 591 465 c 0,43,44
 591 648 591 648 430 809 c 2,45,-1
 315 924 l 1,46,47
 161 1082 161 1082 124 1215 c 0,0,1
EndSplineSet
Validated: 1
EndChar

StartChar: T
Encoding: 84 84 55
Width: 637
GlyphClass: 2
Flags: W
LayerCount: 2
UndoRedoHistory
Layer: 1
Undoes
EndUndoes
Redoes
EndRedoes
EndUndoRedoHistory
Fore
SplineSet
28 1760 m 1,0,-1
 609 1760 l 1,1,-1
 609 1588 l 1,2,-1
 428 1588 l 1,3,-1
 428 0 l 1,4,-1
 222 0 l 1,5,-1
 222 1588 l 1,6,-1
 28 1588 l 1,7,-1
 28 1760 l 1,0,-1
EndSplineSet
Validated: 1
EndChar

StartChar: U
Encoding: 85 85 56
Width: 963
GlyphClass: 2
Flags: W
LayerCount: 2
UndoRedoHistory
Layer: 1
Undoes
EndUndoes
Redoes
EndRedoes
EndUndoRedoHistory
Fore
SplineSet
623 1760 m 1,0,-1
 829 1760 l 1,1,-1
 829 452 l 2,2,3
 829 205 829 205 751.5 92 c 128,-1,4
 674 -21 674 -21 483 -21 c 128,-1,5
 292 -21 292 -21 213 92 c 128,-1,6
 134 205 134 205 134 452 c 2,7,-1
 134 1760 l 1,8,-1
 341 1760 l 1,9,-1
 341 457 l 2,10,11
 341 281 341 281 355.5 246.5 c 128,-1,12
 370 212 370 212 386 192 c 1,13,14
 414 154 414 154 483 154 c 128,-1,15
 552 154 552 154 585 196 c 128,-1,16
 618 238 618 238 620.5 321 c 128,-1,17
 623 404 623 404 623 456 c 2,18,-1
 623 1760 l 1,0,-1
EndSplineSet
Validated: 1
EndChar

StartChar: V
Encoding: 86 86 57
Width: 921
GlyphClass: 2
Flags: W
LayerCount: 2
UndoRedoHistory
Layer: 1
Undoes
EndUndoes
Redoes
EndRedoes
EndUndoRedoHistory
Fore
SplineSet
666 1760 m 1,0,-1
 861 1760 l 1,1,-1
 594 0 l 1,2,-1
 353 0 l 1,3,-1
 60 1760 l 1,4,-1
 257 1760 l 1,5,-1
 374 1015 l 1,6,-1
 474 360 l 1,7,-1
 478 360 l 1,8,-1
 565 1015 l 1,9,-1
 666 1760 l 1,0,-1
EndSplineSet
Validated: 1
EndChar

StartChar: W
Encoding: 87 87 58
Width: 1359
GlyphClass: 2
Flags: W
LayerCount: 2
UndoRedoHistory
Layer: 1
Undoes
EndUndoes
Redoes
EndRedoes
EndUndoRedoHistory
Fore
SplineSet
1106 1760 m 1,0,-1
 1296 1760 l 1,1,-1
 1088 0 l 1,2,-1
 883 0 l 1,3,-1
 695 1299 l 1,4,-1
 496 0 l 1,5,-1
 296 0 l 1,6,-1
 64 1760 l 1,7,-1
 255 1760 l 1,8,-1
 405 411 l 1,9,-1
 605 1760 l 1,10,-1
 774 1760 l 1,11,-1
 979 411 l 1,12,-1
 1106 1760 l 1,0,-1
EndSplineSet
Validated: 1
EndChar

StartChar: X
Encoding: 88 88 59
Width: 814
GlyphClass: 2
Flags: W
LayerCount: 2
UndoRedoHistory
Layer: 1
Undoes
EndUndoes
Redoes
EndRedoes
EndUndoRedoHistory
Fore
SplineSet
567 1760 m 1,0,-1
 753 1760 l 1,1,-1
 509 857 l 1,2,-1
 761 0 l 1,3,-1
 581 0 l 1,4,-1
 402 608 l 1,5,-1
 244 0 l 1,6,-1
 55 0 l 1,7,-1
 307 932 l 1,8,-1
 63 1760 l 1,9,-1
 244 1760 l 1,10,-1
 416 1174 l 1,11,-1
 567 1760 l 1,0,-1
EndSplineSet
Validated: 1
EndChar

StartChar: Y
Encoding: 89 89 60
Width: 836
GlyphClass: 2
Flags: W
LayerCount: 2
UndoRedoHistory
Layer: 1
Undoes
EndUndoes
Redoes
EndRedoes
EndUndoRedoHistory
Fore
SplineSet
614 1760 m 1,0,-1
 817 1760 l 1,1,-1
 533 739 l 1,2,-1
 533 0 l 1,3,-1
 326 0 l 1,4,-1
 326 739 l 1,5,-1
 20 1760 l 1,6,-1
 221 1760 l 1,7,-1
 429 1040 l 1,8,-1
 433 1040 l 1,9,-1
 614 1760 l 1,0,-1
EndSplineSet
Validated: 1
EndChar

StartChar: Z
Encoding: 90 90 61
Width: 764
GlyphClass: 2
Flags: W
LayerCount: 2
UndoRedoHistory
Layer: 1
Undoes
EndUndoes
Redoes
EndRedoes
EndUndoRedoHistory
Fore
SplineSet
148 1760 m 1,0,-1
 692 1760 l 1,1,-1
 692 1602 l 1,2,-1
 329 172 l 1,3,-1
 684 172 l 1,4,-1
 684 0 l 1,5,-1
 115 0 l 1,6,-1
 115 179 l 1,7,-1
 478 1588 l 1,8,-1
 148 1588 l 1,9,-1
 148 1760 l 1,0,-1
EndSplineSet
Validated: 1
EndChar

StartChar: bracketleft
Encoding: 91 91 62
Width: 764
GlyphClass: 2
Flags: W
LayerCount: 2
UndoRedoHistory
Layer: 1
Undoes
EndUndoes
Redoes
EndRedoes
EndUndoRedoHistory
Fore
SplineSet
217 1761 m 1,0,-1
 632 1761 l 1,1,-1
 632 1601 l 1,2,-1
 423 1601 l 1,3,-1
 423 160 l 1,4,-1
 632 160 l 1,5,-1
 632 0 l 1,6,-1
 217 0 l 1,7,-1
 217 1761 l 1,0,-1
EndSplineSet
Validated: 1
EndChar

StartChar: backslash
Encoding: 92 92 63
Width: 868
GlyphClass: 2
Flags: W
LayerCount: 2
UndoRedoHistory
Layer: 1
Undoes
EndUndoes
Redoes
EndRedoes
EndUndoRedoHistory
Fore
SplineSet
115 1761 m 1,0,-1
 297 1761 l 1,1,-1
 707 0 l 1,2,-1
 526 0 l 1,3,-1
 115 1761 l 1,0,-1
EndSplineSet
Validated: 1
EndChar

StartChar: bracketright
Encoding: 93 93 64
Width: 764
GlyphClass: 2
Flags: W
LayerCount: 2
UndoRedoHistory
Layer: 1
Undoes
EndUndoes
Redoes
EndRedoes
EndUndoRedoHistory
Fore
SplineSet
166 1761 m 1,0,-1
 581 1761 l 1,1,-1
 581 0 l 1,2,-1
 166 0 l 1,3,-1
 166 160 l 1,4,-1
 376 160 l 1,5,-1
 376 1601 l 1,6,-1
 166 1601 l 1,7,-1
 166 1761 l 1,0,-1
EndSplineSet
Validated: 1
EndChar

StartChar: asciicircum
Encoding: 94 94 65
Width: 1030
GlyphClass: 2
Flags: W
LayerCount: 2
UndoRedoHistory
Layer: 1
Undoes
EndUndoes
Redoes
EndRedoes
EndUndoRedoHistory
Fore
SplineSet
384 1500 m 1,0,-1
 645 1500 l 1,1,-1
 886 577 l 1,2,-1
 685 577 l 1,3,-1
 515 1340 l 1,4,-1
 345 577 l 1,5,-1
 143 577 l 1,6,-1
 384 1500 l 1,0,-1
EndSplineSet
Validated: 1
EndChar

StartChar: underscore
Encoding: 95 95 66
Width: 748
GlyphClass: 2
Flags: W
LayerCount: 2
UndoRedoHistory
Layer: 1
Undoes
EndUndoes
Redoes
EndRedoes
EndUndoRedoHistory
Fore
SplineSet
48 -46 m 1,0,-1
 699 -46 l 1,1,-1
 699 -198 l 1,2,-1
 48 -198 l 1,3,-1
 48 -46 l 1,0,-1
EndSplineSet
Validated: 1
EndChar

StartChar: grave
Encoding: 96 96 67
Width: 650
GlyphClass: 2
Flags: W
LayerCount: 2
UndoRedoHistory
Layer: 1
Undoes
EndUndoes
Redoes
EndRedoes
EndUndoRedoHistory
Fore
SplineSet
121 492 m 1,0,-1
 121 703 l 1,1,-1
 492 509 l 1,2,-1
 492 398 l 1,3,-1
 121 492 l 1,0,-1
EndSplineSet
Validated: 1
EndChar

StartChar: a
Encoding: 97 97 68
Width: 926
GlyphClass: 2
Flags: W
LayerCount: 2
UndoRedoHistory
Layer: 1
Undoes
EndUndoes
Redoes
EndRedoes
EndUndoRedoHistory
Fore
SplineSet
586 827 m 1,0,1
 460 770 460 770 418 739 c 128,-1,2
 376 708 376 708 354.5 666.5 c 128,-1,3
 333 625 333 625 333 530 c 2,4,-1
 333 391 l 2,5,6
 333 260 333 260 356 206.5 c 128,-1,7
 379 153 379 153 435 153 c 128,-1,8
 491 153 491 153 531 185.5 c 128,-1,9
 571 218 571 218 586 256 c 1,10,-1
 586 827 l 1,0,1
145 1066 m 2,11,12
 145 1338 145 1338 230 1428 c 128,-1,13
 315 1518 315 1518 472 1518 c 128,-1,14
 629 1518 629 1518 699.5 1442 c 128,-1,15
 770 1366 770 1366 786 1198 c 0,16,17
 793 1126 793 1126 793 1021 c 2,18,-1
 793 0 l 1,19,-1
 587 0 l 1,20,-1
 587 130 l 1,21,22
 571 76 571 76 517 31.5 c 128,-1,23
 463 -13 463 -13 383 -13 c 0,24,25
 128 -13 128 -13 126 385 c 1,26,-1
 126 531 l 2,27,28
 126 660 126 660 196.5 751.5 c 128,-1,29
 267 843 267 843 586 960 c 1,30,-1
 586 1076 l 2,31,32
 586 1269 586 1269 558 1308 c 128,-1,33
 530 1347 530 1347 462.5 1347 c 128,-1,34
 395 1347 395 1347 372 1288 c 128,-1,35
 349 1229 349 1229 349 1075 c 2,36,-1
 349 1023 l 1,37,-1
 145 1023 l 1,38,-1
 145 1066 l 2,11,12
EndSplineSet
Validated: 1
EndChar

StartChar: b
Encoding: 98 98 69
Width: 937
GlyphClass: 2
Flags: W
LayerCount: 2
UndoRedoHistory
Layer: 1
Undoes
EndUndoes
Redoes
EndRedoes
EndUndoRedoHistory
Fore
SplineSet
147 1779 m 1,0,-1
 352 1779 l 1,1,-1
 352 1381 l 1,2,3
 368 1439 368 1439 423 1478.5 c 128,-1,4
 478 1518 478 1518 541 1518 c 0,5,6
 726 1518 726 1518 779 1335 c 0,7,8
 814 1217 814 1217 814 1040 c 2,9,-1
 814 463 l 2,10,11
 814 185 814 185 738 76 c 0,12,13
 676 -13 676 -13 556 -13 c 0,14,15
 410 -13 410 -13 352 126 c 1,16,-1
 352 0 l 1,17,-1
 147 0 l 1,18,-1
 147 1779 l 1,0,-1
608 1067 m 2,19,20
 608 1216 608 1216 594.5 1254 c 128,-1,21
 581 1292 581 1292 563 1319 c 128,-1,22
 545 1346 545 1346 500 1346 c 0,23,24
 456 1346 456 1346 432 1336 c 0,25,26
 352 1300 352 1300 352 1066 c 2,27,-1
 352 458 l 2,28,29
 352 295 352 295 379.5 224.5 c 128,-1,30
 407 154 407 154 483.5 154 c 128,-1,31
 560 154 560 154 584 224 c 128,-1,32
 608 294 608 294 608 463 c 2,33,-1
 608 1067 l 2,19,20
EndSplineSet
Validated: 1
EndChar

StartChar: c
Encoding: 99 99 70
Width: 880
GlyphClass: 2
Flags: W
LayerCount: 2
UndoRedoHistory
Layer: 1
Undoes
EndUndoes
Redoes
EndRedoes
EndUndoRedoHistory
Fore
SplineSet
124 1008 m 2,0,1
 124 1203 124 1203 153.5 1293.5 c 128,-1,2
 183 1384 183 1384 220 1426 c 0,3,4
 301 1518 301 1518 458 1518 c 128,-1,5
 615 1518 615 1518 684 1440 c 0,6,7
 752 1362 752 1362 768 1208 c 0,8,9
 774 1142 774 1142 775 1051 c 1,10,-1
 775 947 l 1,11,-1
 573 947 l 1,12,-1
 573 1079 l 2,13,14
 573 1219 573 1219 562 1262 c 1,15,16
 522 1326 522 1326 466 1342 c 1,17,18
 368 1342 368 1342 345 1244 c 0,19,20
 330 1182 330 1182 330 1073 c 2,21,-1
 330 435 l 2,22,23
 330 281 330 281 353.5 219.5 c 128,-1,24
 377 158 377 158 444 158 c 128,-1,25
 511 158 511 158 542 201.5 c 128,-1,26
 573 245 573 245 573 431 c 2,27,-1
 573 576 l 1,28,-1
 775 576 l 1,29,-1
 775 479 l 2,30,31
 775 172 775 172 694 77 c 128,-1,32
 613 -18 613 -18 447 -18 c 0,33,34
 185 -18 185 -18 140 262 c 0,35,36
 124 365 124 365 124 506 c 2,37,-1
 124 1008 l 2,0,1
EndSplineSet
Validated: 1
EndChar

StartChar: d
Encoding: 100 100 71
Width: 938
GlyphClass: 2
Flags: W
LayerCount: 2
UndoRedoHistory
Layer: 1
Undoes
EndUndoes
Redoes
EndRedoes
EndUndoRedoHistory
Fore
SplineSet
586 1779 m 1,0,-1
 792 1779 l 1,1,-1
 792 0 l 1,2,-1
 586 0 l 1,3,-1
 586 126 l 1,4,5
 530 -13 530 -13 379 -13 c 0,6,7
 172 -13 172 -13 136 260 c 0,8,9
 124 351 124 351 124 480 c 2,10,-1
 124 1047 l 2,11,12
 124 1318 124 1318 212 1430 c 0,13,14
 282 1518 282 1518 410 1518 c 0,15,16
 466 1518 466 1518 513.5 1485 c 128,-1,17
 561 1452 561 1452 586 1400 c 1,18,-1
 586 1779 l 1,0,-1
587 1050 m 2,19,20
 587 1208 587 1208 560.5 1277 c 128,-1,21
 534 1346 534 1346 458.5 1346 c 128,-1,22
 383 1346 383 1346 356.5 1276.5 c 128,-1,23
 330 1207 330 1207 330 1045 c 2,24,-1
 330 439 l 2,25,26
 330 219 330 219 388 173 c 0,27,28
 412 154 412 154 456 154 c 128,-1,29
 500 154 500 154 528 178 c 0,30,31
 587 228 587 228 587 448 c 2,32,-1
 587 1050 l 2,19,20
EndSplineSet
Validated: 1
EndChar

StartChar: e
Encoding: 101 101 72
Width: 893
GlyphClass: 2
Flags: W
LayerCount: 2
UndoRedoHistory
Layer: 1
Undoes
EndUndoes
Redoes
EndRedoes
EndUndoRedoHistory
Fore
SplineSet
124 1035 m 2,0,1
 124 1319 124 1319 226 1430 c 0,2,3
 306 1518 306 1518 462 1518 c 0,4,5
 688 1518 688 1518 746 1323 c 0,6,7
 778 1213 778 1213 778 1026 c 2,8,-1
 778 743 l 1,9,-1
 330 743 l 1,10,-1
 330 444 l 2,11,12
 330 249 330 249 361 201 c 128,-1,13
 392 153 392 153 459 153 c 128,-1,14
 526 153 526 153 548.5 209 c 128,-1,15
 571 265 571 265 572 330.5 c 128,-1,16
 573 396 573 396 573 441 c 2,17,-1
 573 562 l 1,18,-1
 774 562 l 1,19,-1
 774 498 l 2,20,21
 774 259 774 259 740.5 163 c 128,-1,22
 707 67 707 67 639 24.5 c 128,-1,23
 571 -18 571 -18 470.5 -18 c 128,-1,24
 370 -18 370 -18 309.5 7.5 c 128,-1,25
 249 33 249 33 213.5 75 c 128,-1,26
 178 117 178 117 151 209 c 128,-1,27
 124 301 124 301 124 505 c 2,28,-1
 124 1035 l 2,0,1
573 1073 m 2,29,30
 573 1233 573 1233 561.5 1266 c 128,-1,31
 550 1299 550 1299 532 1324 c 128,-1,32
 514 1349 514 1349 467 1349 c 0,33,34
 377 1349 377 1349 353 1273.5 c 128,-1,35
 329 1198 329 1198 329 1066 c 2,36,-1
 329 882 l 1,37,-1
 573 882 l 1,38,-1
 573 1073 l 2,29,30
EndSplineSet
Validated: 1
EndChar

StartChar: f
Encoding: 102 102 73
Width: 623
GlyphClass: 2
Flags: W
LayerCount: 2
UndoRedoHistory
Layer: 1
Undoes
EndUndoes
Redoes
EndRedoes
EndUndoRedoHistory
Fore
SplineSet
200 1515 m 2,0,1
 200 1786 200 1786 432 1786 c 0,2,3
 518 1786 518 1786 581 1765 c 1,4,-1
 581 1622 l 1,5,6
 541 1628 541 1628 494 1628 c 128,-1,7
 447 1628 447 1628 426 1602.5 c 128,-1,8
 405 1577 405 1577 405 1523 c 2,9,-1
 405 1442 l 1,10,-1
 581 1442 l 1,11,-1
 581 1291 l 1,12,-1
 405 1291 l 1,13,-1
 405 0 l 1,14,-1
 200 0 l 1,15,-1
 200 1291 l 1,16,-1
 71 1291 l 1,17,-1
 71 1442 l 1,18,-1
 200 1442 l 1,19,-1
 200 1515 l 2,0,1
EndSplineSet
Validated: 1
EndChar

StartChar: g
Encoding: 103 103 74
Width: 929
GlyphClass: 2
Flags: W
LayerCount: 2
UndoRedoHistory
Layer: 1
Undoes
EndUndoes
Redoes
EndRedoes
EndUndoRedoHistory
Fore
SplineSet
400 1518 m 0,0,1
 541 1518 541 1518 583 1390 c 1,2,-1
 583 1500 l 1,3,-1
 788 1500 l 1,4,-1
 788 140 l 2,5,6
 788 -128 788 -128 586 -203 c 0,7,8
 516 -229 516 -229 424 -229 c 0,9,10
 240 -229 240 -229 119 -133 c 1,11,-1
 193 7 l 1,12,13
 302 -67 302 -67 424 -67 c 0,14,15
 505 -67 505 -67 544 -16 c 128,-1,16
 583 35 583 35 583 121 c 2,17,-1
 583 264 l 1,18,19
 556 194 556 194 508 167 c 0,20,21
 458 140 458 140 384 140 c 0,22,23
 234 140 234 140 178 267 c 128,-1,24
 122 394 122 394 122 608 c 2,25,-1
 122 1038 l 2,26,27
 122 1518 122 1518 400 1518 c 0,0,1
583 1068 m 2,28,29
 583 1214 583 1214 556.5 1280.5 c 128,-1,30
 530 1347 530 1347 463.5 1347 c 128,-1,31
 397 1347 397 1347 370 1309 c 128,-1,32
 343 1271 343 1271 335.5 1214 c 128,-1,33
 328 1157 328 1157 328 1070 c 2,34,-1
 328 603 l 2,35,36
 328 444 328 444 357 373.5 c 128,-1,37
 386 303 386 303 466 303 c 0,38,39
 508 303 508 303 532 327 c 0,40,41
 582 376 582 376 583 605 c 1,42,-1
 583 1068 l 2,28,29
EndSplineSet
Validated: 1
EndChar

StartChar: h
Encoding: 104 104 75
Width: 969
GlyphClass: 2
Flags: W
LayerCount: 2
UndoRedoHistory
Layer: 1
Undoes
EndUndoes
Redoes
EndRedoes
EndUndoRedoHistory
Fore
SplineSet
147 1779 m 1,0,-1
 352 1779 l 1,1,-1
 352 1341 l 1,2,3
 373 1414 373 1414 439 1466.5 c 128,-1,4
 505 1519 505 1519 605.5 1519 c 128,-1,5
 706 1519 706 1519 769 1437.5 c 128,-1,6
 832 1356 832 1356 832 1196 c 2,7,-1
 832 0 l 1,8,-1
 627 0 l 1,9,-1
 627 1179 l 2,10,11
 627 1342 627 1342 504 1342 c 0,12,13
 437 1342 437 1342 394.5 1294.5 c 128,-1,14
 352 1247 352 1247 352 1154 c 2,15,-1
 352 0 l 1,16,-1
 147 0 l 1,17,-1
 147 1779 l 1,0,-1
EndSplineSet
Validated: 1
EndChar

StartChar: i
Encoding: 105 105 76
Width: 503
GlyphClass: 2
Flags: W
LayerCount: 2
UndoRedoHistory
Layer: 1
Undoes
EndUndoes
Redoes
EndRedoes
EndUndoRedoHistory
Fore
SplineSet
150 1500 m 1,0,-1
 355 1500 l 1,1,-1
 355 0 l 1,2,-1
 150 0 l 1,3,-1
 150 1500 l 1,0,-1
150 1826 m 1,4,-1
 356 1826 l 1,5,-1
 356 1638 l 1,6,-1
 150 1638 l 1,7,-1
 150 1826 l 1,4,-1
EndSplineSet
Validated: 1
EndChar

StartChar: j
Encoding: 106 106 77
Width: 533
GlyphClass: 2
Flags: W
LayerCount: 2
UndoRedoHistory
Layer: 1
Undoes
EndUndoes
Redoes
EndRedoes
EndUndoRedoHistory
Fore
SplineSet
80 -56 m 1,0,1
 94 -58 94 -58 109 -58 c 128,-1,2
 124 -58 124 -58 132 -57 c 0,3,4
 182 -52 182 -52 182 10 c 2,5,-1
 182 1500 l 1,6,-1
 387 1500 l 1,7,-1
 387 20 l 2,8,9
 387 -97 387 -97 338.5 -151 c 128,-1,10
 290 -205 290 -205 221 -209 c 0,11,12
 199 -211 199 -211 144.5 -211 c 128,-1,13
 90 -211 90 -211 74 -200 c 1,14,-1
 74 -56 l 1,15,-1
 80 -56 l 1,0,1
180 1826 m 1,16,-1
 386 1826 l 1,17,-1
 386 1638 l 1,18,-1
 180 1638 l 1,19,-1
 180 1826 l 1,16,-1
EndSplineSet
Validated: 1
EndChar

StartChar: k
Encoding: 107 107 78
Width: 866
GlyphClass: 2
Flags: W
LayerCount: 2
UndoRedoHistory
Layer: 1
Undoes
EndUndoes
Redoes
EndRedoes
EndUndoRedoHistory
Fore
SplineSet
147 1779 m 1,0,-1
 352 1779 l 1,1,-1
 352 787 l 1,2,-1
 647 1500 l 1,3,-1
 854 1500 l 1,4,-1
 538 759 l 1,5,-1
 871 0 l 1,6,-1
 660 0 l 1,7,-1
 352 730 l 1,8,-1
 352 0 l 1,9,-1
 147 0 l 1,10,-1
 147 1779 l 1,0,-1
EndSplineSet
Validated: 1
EndChar

StartChar: l
Encoding: 108 108 79
Width: 501
GlyphClass: 2
Flags: W
LayerCount: 2
UndoRedoHistory
Layer: 1
Undoes
EndUndoes
Redoes
EndRedoes
EndUndoRedoHistory
Fore
SplineSet
148 1779 m 1,0,-1
 353 1779 l 1,1,-1
 353 0 l 1,2,-1
 148 0 l 1,3,-1
 148 1779 l 1,0,-1
EndSplineSet
Validated: 1
EndChar

StartChar: m
Encoding: 109 109 80
Width: 1432
GlyphClass: 2
Flags: W
LayerCount: 2
UndoRedoHistory
Layer: 1
Undoes
EndUndoes
Redoes
EndRedoes
EndUndoRedoHistory
Fore
SplineSet
352 1344 m 1,0,1
 373 1420 373 1420 435 1469.5 c 128,-1,2
 497 1519 497 1519 586 1519 c 0,3,4
 744 1519 744 1519 798 1367 c 1,5,6
 836 1437 836 1437 901.5 1478 c 128,-1,7
 967 1519 967 1519 1052 1519 c 0,8,9
 1171 1519 1171 1519 1233 1434 c 128,-1,10
 1295 1349 1295 1349 1295 1184 c 2,11,-1
 1295 0 l 1,12,-1
 1090 0 l 1,13,-1
 1090 1190 l 2,14,15
 1090 1342 1090 1342 970 1342 c 0,16,17
 834 1342 834 1342 824 1203 c 1,18,-1
 824 0 l 1,19,-1
 618 0 l 1,20,-1
 618 1191 l 2,21,22
 618 1342 618 1342 500 1342 c 0,23,24
 428 1342 428 1342 390 1295.5 c 128,-1,25
 352 1249 352 1249 352 1168 c 2,26,-1
 352 0 l 1,27,-1
 147 0 l 1,28,-1
 147 1500 l 1,29,-1
 352 1500 l 1,30,-1
 352 1344 l 1,0,1
EndSplineSet
Validated: 1
EndChar

StartChar: n
Encoding: 110 110 81
Width: 970
GlyphClass: 2
Flags: W
LayerCount: 2
UndoRedoHistory
Layer: 1
Undoes
EndUndoes
Redoes
EndRedoes
EndUndoRedoHistory
Fore
SplineSet
352 1341 m 1,0,1
 372 1414 372 1414 439.5 1466.5 c 128,-1,2
 507 1519 507 1519 607.5 1519 c 128,-1,3
 708 1519 708 1519 770.5 1437.5 c 128,-1,4
 833 1356 833 1356 833 1196 c 2,5,-1
 833 0 l 1,6,-1
 628 0 l 1,7,-1
 628 1195 l 2,8,9
 628 1271 628 1271 593 1309 c 128,-1,10
 558 1347 558 1347 496 1347 c 128,-1,11
 434 1347 434 1347 393 1304 c 128,-1,12
 352 1261 352 1261 352 1175 c 2,13,-1
 352 0 l 1,14,-1
 147 0 l 1,15,-1
 147 1500 l 1,16,-1
 352 1500 l 1,17,-1
 352 1341 l 1,0,1
EndSplineSet
Validated: 1
EndChar

StartChar: o
Encoding: 111 111 82
Width: 914
GlyphClass: 2
Flags: W
LayerCount: 2
UndoRedoHistory
Layer: 1
Undoes
EndUndoes
Redoes
EndRedoes
EndUndoRedoHistory
Fore
SplineSet
124 1027 m 2,0,1
 124 1392 124 1392 292 1482 c 0,2,3
 360 1518 360 1518 450 1518 c 0,4,5
 685 1518 685 1518 750 1329 c 0,6,7
 790 1210 790 1210 790 1027 c 2,8,-1
 790 496 l 2,9,10
 790 180 790 180 705 81 c 128,-1,11
 620 -18 620 -18 459 -18 c 0,12,13
 224 -18 224 -18 160 182 c 0,14,15
 124 297 124 297 124 496 c 2,16,-1
 124 1027 l 2,0,1
584 1068 m 2,17,18
 584 1282 584 1282 523 1328 c 0,19,20
 498 1347 498 1347 458 1347 c 0,21,22
 377 1347 377 1347 353.5 1274 c 128,-1,23
 330 1201 330 1201 330 1068 c 2,24,-1
 330 439 l 2,25,26
 330 218 330 218 392 172 c 0,27,28
 417 153 417 153 454 153 c 0,29,30
 456 153 456 153 458 153 c 1,31,32
 537 153 537 153 560.5 227.5 c 128,-1,33
 584 302 584 302 584 439 c 2,34,-1
 584 1068 l 2,17,18
EndSplineSet
Validated: 1
EndChar

StartChar: p
Encoding: 112 112 83
Width: 938
GlyphClass: 2
Flags: W
LayerCount: 2
UndoRedoHistory
Layer: 1
Undoes
EndUndoes
Redoes
EndRedoes
EndUndoRedoHistory
Fore
SplineSet
352 1375 m 1,0,1
 380 1444 380 1444 437 1478.5 c 128,-1,2
 494 1513 494 1513 558 1513 c 0,3,4
 737 1513 737 1513 785 1327 c 0,5,6
 815 1211 815 1211 815 1030 c 2,7,-1
 815 487 l 2,8,9
 815 188 815 188 739.5 85 c 128,-1,10
 664 -18 664 -18 527 -18 c 0,11,12
 472 -18 472 -18 425 16 c 128,-1,13
 378 50 378 50 352 100 c 1,14,-1
 352 -274 l 1,15,-1
 147 -274 l 1,16,-1
 147 1500 l 1,17,-1
 352 1500 l 1,18,-1
 352 1375 l 1,0,1
609 1066 m 2,19,20
 609 1076 609 1076 609 1085 c 128,-1,21
 609 1094 609 1094 609 1102 c 128,-1,22
 609 1110 609 1110 609 1117 c 128,-1,23
 609 1124 609 1124 609 1130 c 0,24,25
 609.066666667 1135.66666667 609.066666667 1135.66666667 609.066666667 1141.12444444 c 0,26,27
 609.066666667 1217.53333333 609.066666667 1217.53333333 596 1253 c 0,28,29
 582 1292 582 1292 569 1310 c 0,30,31
 543 1346 543 1346 493.5 1346 c 128,-1,32
 444 1346 444 1346 416 1327 c 0,33,34
 352 1284 352 1284 352 1066 c 2,35,-1
 352 451 l 2,36,37
 352 292 352 292 379.5 223 c 128,-1,38
 407 154 407 154 482.5 154 c 128,-1,39
 558 154 558 154 583.5 224 c 128,-1,40
 609 294 609 294 609 459 c 2,41,-1
 609 1066 l 2,19,20
EndSplineSet
EndChar

StartChar: q
Encoding: 113 113 84
Width: 931
GlyphClass: 2
Flags: W
LayerCount: 2
UndoRedoHistory
Layer: 1
Undoes
EndUndoes
Redoes
EndRedoes
EndUndoRedoHistory
Fore
SplineSet
380 1513 m 1,0,1
 529 1513 529 1513 585 1383 c 1,2,-1
 585 1500 l 1,3,-1
 790 1500 l 1,4,-1
 790 -274 l 1,5,-1
 585 -274 l 1,6,-1
 585 104 l 1,7,8
 563 52 563 52 515.5 17 c 128,-1,9
 468 -18 468 -18 406 -18 c 0,10,11
 344 -18 344 -18 292 7 c 0,12,13
 195 54 195 54 159.5 175 c 128,-1,14
 124 296 124 296 124 480 c 2,15,-1
 124 1030 l 2,16,17
 124 1312 124 1312 198 1422 c 0,18,19
 259 1512 259 1512 380 1513 c 1,0,1
584 1050 m 2,20,21
 584 1209 584 1209 556 1277.5 c 128,-1,22
 528 1346 528 1346 453 1346 c 128,-1,23
 378 1346 378 1346 353.5 1277.5 c 128,-1,24
 329 1209 329 1209 329 1044 c 2,25,-1
 329 437 l 2,26,27
 329 257 329 257 357 205.5 c 128,-1,28
 385 154 385 154 439.5 154 c 128,-1,29
 494 154 494 154 522 174 c 0,30,31
 584 218 584 218 584 435 c 2,32,-1
 584 1050 l 2,20,21
EndSplineSet
Validated: 1
EndChar

StartChar: r
Encoding: 114 114 85
Width: 651
GlyphClass: 2
Flags: W
LayerCount: 2
UndoRedoHistory
Layer: 1
Undoes
EndUndoes
Redoes
EndRedoes
EndUndoRedoHistory
Fore
SplineSet
608 1518 m 0,0,1
 612 1518 612 1518 612 1388 c 1,2,-1
 611 1344 l 1,3,4
 431 1344 431 1344 353 1219 c 1,5,-1
 353 0 l 1,6,-1
 147 0 l 1,7,-1
 147 1500 l 1,8,-1
 353 1500 l 1,9,-1
 353 1333 l 1,10,11
 379 1421 379 1421 444.5 1469.5 c 128,-1,12
 510 1518 510 1518 608 1518 c 0,0,1
EndSplineSet
Validated: 1
EndChar

StartChar: s
Encoding: 115 115 86
Width: 805
GlyphClass: 2
Flags: W
LayerCount: 2
UndoRedoHistory
Layer: 1
Undoes
EndUndoes
Redoes
EndRedoes
EndUndoRedoHistory
Fore
SplineSet
745 344 m 0,0,1
 744 -20 744 -20 424 -20 c 0,2,3
 262 -20 262 -20 181 83 c 128,-1,4
 100 186 100 186 100 414 c 2,5,-1
 100 527 l 1,6,-1
 299 527 l 1,7,-1
 299 415 l 2,8,9
 299 155 299 155 417 155 c 0,10,11
 482 155 482 155 510.5 197 c 128,-1,12
 539 239 539 239 539 343 c 0,13,14
 539 506 539 506 389 653 c 0,15,16
 378 664 378 664 337 702.5 c 128,-1,17
 296 741 296 741 283 754 c 0,18,19
 88 940 88 940 88 1165 c 0,20,21
 88 1343 88 1343 172 1430.5 c 128,-1,22
 256 1518 256 1518 411 1518 c 0,23,24
 516 1518 516 1518 582 1475 c 0,25,26
 720 1385 720 1385 720 1050 c 2,27,-1
 720 978 l 1,28,-1
 525 978 l 1,29,-1
 525 1082 l 2,30,31
 525 1213 525 1213 499.5 1277.5 c 128,-1,32
 474 1342 474 1342 412 1342 c 128,-1,33
 350 1342 350 1342 319 1303 c 128,-1,34
 288 1264 288 1264 288 1171 c 0,35,36
 288 1025 288 1025 425 889 c 1,37,-1
 533 788 l 1,38,39
 745 585 745 585 745 344 c 0,0,1
EndSplineSet
Validated: 1
EndChar

StartChar: t
Encoding: 116 116 87
Width: 612
GlyphClass: 2
Flags: W
LayerCount: 2
UndoRedoHistory
Layer: 1
Undoes
EndUndoes
Redoes
EndRedoes
EndUndoRedoHistory
Fore
SplineSet
183 1760 m 1,0,-1
 388 1760 l 1,1,-1
 388 1488 l 1,2,-1
 550 1488 l 1,3,-1
 550 1336 l 1,4,-1
 388 1336 l 1,5,-1
 388 241 l 2,6,7
 388 183 388 183 415 168.5 c 128,-1,8
 442 154 442 154 552 154 c 1,9,-1
 552 -9 l 1,10,-1
 411 -9 l 2,11,12
 269 -9 269 -9 226 42.5 c 128,-1,13
 183 94 183 94 183 223 c 2,14,-1
 183 1336 l 1,15,-1
 46 1336 l 1,16,-1
 46 1488 l 1,17,-1
 183 1488 l 1,18,-1
 183 1760 l 1,0,-1
EndSplineSet
Validated: 1
EndChar

StartChar: u
Encoding: 117 117 88
Width: 968
GlyphClass: 2
Flags: W
LayerCount: 2
UndoRedoHistory
Layer: 1
Undoes
EndUndoes
Redoes
EndRedoes
EndUndoRedoHistory
Fore
SplineSet
616 1500 m 1,0,-1
 822 1500 l 1,1,-1
 822 0 l 1,2,-1
 616 0 l 1,3,-1
 616 153 l 1,4,5
 592 77 592 77 533.5 28.5 c 128,-1,6
 475 -20 475 -20 376.5 -20 c 128,-1,7
 278 -20 278 -20 207.5 61.5 c 128,-1,8
 137 143 137 143 137 312 c 2,9,-1
 137 1500 l 1,10,-1
 342 1500 l 1,11,-1
 342 335 l 2,12,13
 342 158 342 158 471 158 c 0,14,15
 543 158 543 158 579.5 208 c 128,-1,16
 616 258 616 258 616 340 c 2,17,-1
 616 1500 l 1,0,-1
EndSplineSet
Validated: 1
EndChar

StartChar: v
Encoding: 118 118 89
Width: 753
GlyphClass: 2
Flags: W
LayerCount: 2
UndoRedoHistory
Layer: 1
Undoes
EndUndoes
Redoes
EndRedoes
EndUndoRedoHistory
Fore
SplineSet
521 1500 m 1,0,-1
 711 1500 l 1,1,-1
 496 0 l 1,2,-1
 255 0 l 1,3,-1
 42 1500 l 1,4,-1
 233 1500 l 1,5,-1
 341 655 l 1,6,-1
 376 320 l 1,7,-1
 395 320 l 1,8,-1
 424 656 l 1,9,-1
 521 1500 l 1,0,-1
EndSplineSet
Validated: 1
EndChar

StartChar: w
Encoding: 119 119 90
Width: 1160
GlyphClass: 2
Flags: W
LayerCount: 2
UndoRedoHistory
Layer: 1
Undoes
EndUndoes
Redoes
EndRedoes
EndUndoRedoHistory
Fore
SplineSet
940 1500 m 1,0,-1
 1108 1500 l 1,1,-1
 927 0 l 1,2,-1
 738 0 l 1,3,-1
 587 1174 l 1,4,-1
 407 0 l 1,5,-1
 226 0 l 1,6,-1
 51 1500 l 1,7,-1
 223 1500 l 1,8,-1
 302 665 l 1,9,-1
 325 378 l 1,10,-1
 334 378 l 1,11,-1
 372 666 l 1,12,-1
 491 1500 l 1,13,-1
 670 1500 l 1,14,-1
 789 688 l 1,15,-1
 830 378 l 1,16,-1
 838 378 l 1,17,-1
 862 689 l 1,18,-1
 940 1500 l 1,0,-1
EndSplineSet
Validated: 1
EndChar

StartChar: x
Encoding: 120 120 91
Width: 743
GlyphClass: 2
Flags: W
LayerCount: 2
UndoRedoHistory
Layer: 1
Undoes
EndUndoes
Redoes
EndRedoes
EndUndoRedoHistory
Fore
SplineSet
43 1500 m 1,0,-1
 224 1500 l 1,1,-1
 382 1021 l 1,2,-1
 522 1500 l 1,3,-1
 708 1500 l 1,4,-1
 466 766 l 1,5,-1
 718 0 l 1,6,-1
 527 0 l 1,7,-1
 363 510 l 1,8,-1
 212 0 l 1,9,-1
 26 0 l 1,10,-1
 278 773 l 1,11,-1
 43 1500 l 1,0,-1
EndSplineSet
Validated: 1
EndChar

StartChar: y
Encoding: 121 121 92
Width: 791
GlyphClass: 2
Flags: W
LayerCount: 2
UndoRedoHistory
Layer: 1
Undoes
EndUndoes
Redoes
EndRedoes
EndUndoRedoHistory
Fore
SplineSet
558 1500 m 1,0,-1
 756 1500 l 1,1,-1
 507 -29 l 1,2,3
 489 -154 489 -154 461 -192 c 128,-1,4
 433 -230 433 -230 399 -240.5 c 128,-1,5
 365 -251 365 -251 310 -251 c 2,6,-1
 109 -251 l 1,7,-1
 109 -96 l 1,8,-1
 180 -96 l 2,9,10
 285 -96 285 -96 296 -72 c 1,11,12
 305 -61 305 -61 305 -29 c 128,-1,13
 305 3 305 3 297 53 c 2,14,-1
 52 1500 l 1,15,-1
 251 1500 l 1,16,-1
 359 720 l 1,17,-1
 403 314 l 1,18,-1
 421 314 l 1,19,-1
 460 720 l 1,20,-1
 558 1500 l 1,0,-1
EndSplineSet
Validated: 1
EndChar

StartChar: z
Encoding: 122 122 93
Width: 680
GlyphClass: 2
Flags: W
LayerCount: 2
UndoRedoHistory
Layer: 1
Undoes
EndUndoes
Redoes
EndRedoes
EndUndoRedoHistory
Fore
SplineSet
101 1500 m 1,0,-1
 618 1500 l 1,1,-1
 618 1359 l 1,2,-1
 287 175 l 1,3,-1
 601 175 l 1,4,-1
 601 0 l 1,5,-1
 76 0 l 1,6,-1
 76 153 l 1,7,-1
 406 1323 l 1,8,-1
 101 1323 l 1,9,-1
 101 1500 l 1,0,-1
EndSplineSet
Validated: 1
EndChar

StartChar: braceleft
Encoding: 123 123 94
Width: 798
GlyphClass: 2
Flags: W
LayerCount: 2
UndoRedoHistory
Layer: 1
Undoes
EndUndoes
Redoes
EndRedoes
EndUndoRedoHistory
Fore
SplineSet
587 1781 m 2,0,-1
 647 1781 l 1,1,-1
 647 1614 l 1,2,3
 556 1614 556 1614 532 1582 c 128,-1,4
 508 1550 508 1550 508 1430 c 2,5,-1
 508 1184 l 2,6,7
 508 948 508 948 466.5 901.5 c 128,-1,8
 425 855 425 855 342 830 c 1,9,10
 425 805 425 805 453.5 773 c 128,-1,11
 482 741 482 741 495 683 c 128,-1,12
 508 625 508 625 508 476 c 2,13,-1
 508 230 l 2,14,15
 508 110 508 110 532 78 c 128,-1,16
 556 46 556 46 647 46 c 1,17,-1
 647 -121 l 1,18,-1
 587 -121 l 2,19,20
 427 -121 427 -121 365.5 -49 c 128,-1,21
 304 23 304 23 304 217 c 2,22,-1
 304 492 l 2,23,24
 304 639 304 639 281 679.5 c 128,-1,25
 258 720 258 720 165 720 c 1,26,-1
 165 940 l 1,27,28
 258 940 258 940 281 980.5 c 128,-1,29
 304 1021 304 1021 304 1168 c 2,30,-1
 304 1443 l 2,31,32
 304 1637 304 1637 365.5 1709 c 128,-1,33
 427 1781 427 1781 587 1781 c 2,0,-1
EndSplineSet
Validated: 1
EndChar

StartChar: bar
Encoding: 124 124 95
Width: 537
GlyphClass: 2
Flags: W
LayerCount: 2
UndoRedoHistory
Layer: 1
Undoes
EndUndoes
Redoes
EndRedoes
EndUndoRedoHistory
Fore
SplineSet
175 1877 m 1,0,-1
 372 1877 l 1,1,-1
 372 -84 l 1,2,-1
 175 -84 l 1,3,-1
 175 1877 l 1,0,-1
EndSplineSet
Validated: 1
EndChar

StartChar: braceright
Encoding: 125 125 96
Width: 798
GlyphClass: 2
Flags: W
LayerCount: 2
UndoRedoHistory
Layer: 1
Undoes
EndUndoes
Redoes
EndRedoes
EndUndoRedoHistory
Fore
SplineSet
165 1781 m 1,0,-1
 225 1781 l 2,1,2
 385 1781 385 1781 446.5 1709 c 128,-1,3
 508 1637 508 1637 508 1443 c 2,4,-1
 508 1168 l 2,5,6
 508 1021 508 1021 531 980.5 c 128,-1,7
 554 940 554 940 647 940 c 1,8,-1
 647 720 l 1,9,10
 554 720 554 720 531 679.5 c 128,-1,11
 508 639 508 639 508 492 c 2,12,-1
 508 217 l 2,13,14
 508 23 508 23 446.5 -49 c 128,-1,15
 385 -121 385 -121 225 -121 c 2,16,-1
 165 -121 l 1,17,-1
 165 46 l 1,18,19
 256 46 256 46 280 78 c 128,-1,20
 304 110 304 110 304 230 c 2,21,-1
 304 476 l 2,22,23
 304 712 304 712 345.5 758.5 c 128,-1,24
 387 805 387 805 470 830 c 1,25,26
 387 855 387 855 358.5 887 c 128,-1,27
 330 919 330 919 317 977 c 128,-1,28
 304 1035 304 1035 304 1184 c 2,29,-1
 304 1430 l 2,30,31
 304 1550 304 1550 280 1582 c 128,-1,32
 256 1614 256 1614 165 1614 c 1,33,-1
 165 1781 l 1,0,-1
EndSplineSet
Validated: 1
EndChar

StartChar: asciitilde
Encoding: 126 126 97
Width: 1117
GlyphClass: 2
Flags: W
LayerCount: 2
UndoRedoHistory
Layer: 1
Undoes
EndUndoes
Redoes
EndRedoes
EndUndoRedoHistory
Fore
SplineSet
341 1134 m 0,0,1
 398 1134 398 1134 550 1090 c 0,2,3
 699 1047 699 1047 717 1047 c 0,4,5
 718 1047 718 1047 718 1047 c 0,6,7
 795 1047 795 1047 829 1161 c 1,8,-1
 993 1119 l 1,9,10
 964 1005 964 1005 902 918.5 c 128,-1,11
 840 832 840 832 773 832 c 128,-1,12
 706 832 706 832 556.5 878 c 128,-1,13
 407 924 407 924 353.5 924 c 128,-1,14
 300 924 300 924 260 831 c 1,15,-1
 111 909 l 1,16,17
 190 1134 190 1134 341 1134 c 0,0,1
EndSplineSet
Validated: 1
EndChar

StartChar: cent
Encoding: 162 162 100
Width: 788
GlyphClass: 2
Flags: W
LayerCount: 2
UndoRedoHistory
Layer: 1
Undoes
EndUndoes
Redoes
EndRedoes
EndUndoRedoHistory
Fore
SplineSet
124 1008 m 2,0,1
 124 1203 124 1203 153.5 1293.5 c 128,-1,2
 183 1384 183 1384 220 1426 c 0,3,4
 284 1499 284 1499 402 1514 c 1,5,-1
 402 1767 l 1,6,-1
 515 1767 l 1,7,-1
 515 1515 l 1,8,9
 628 1503 628 1503 691 1433 c 0,10,11
 775 1339 775 1339 775 1051 c 2,12,-1
 775 947 l 1,13,-1
 573 947 l 1,14,-1
 573 1079 l 2,15,16
 573 1219 573 1219 562 1262 c 1,17,18
 522 1326 522 1326 466 1342 c 1,19,20
 368 1342 368 1342 345 1244 c 0,21,22
 330 1182 330 1182 330 1073 c 2,23,-1
 330 435 l 2,24,25
 330 281 330 281 353.5 219.5 c 128,-1,26
 377 158 377 158 444 158 c 128,-1,27
 511 158 511 158 542 201.5 c 128,-1,28
 573 245 573 245 573 431 c 2,29,-1
 573 576 l 1,30,-1
 775 576 l 1,31,-1
 775 479 l 2,32,33
 775 172 775 172 689 71 c 0,34,35
 628 -1 628 -1 515 -15 c 1,36,-1
 515 -250 l 1,37,-1
 402 -250 l 1,38,-1
 402 -15 l 1,39,40
 268 2 268 2 206 90 c 0,41,42
 157 160 157 160 140.5 262.5 c 128,-1,43
 124 365 124 365 124 506 c 2,44,-1
 124 1008 l 2,0,1
EndSplineSet
Validated: 1
EndChar

StartChar: sterling
Encoding: 163 163 101
Width: 892
GlyphClass: 2
Flags: W
LayerCount: 2
UndoRedoHistory
Layer: 1
Undoes
EndUndoes
Redoes
EndRedoes
EndUndoRedoHistory
Fore
SplineSet
173 1383 m 0,0,1
 173 1781 173 1781 520 1781 c 0,2,3
 684 1781 684 1781 762.5 1683 c 128,-1,4
 841 1585 841 1585 841 1381 c 2,5,-1
 841 1246 l 1,6,-1
 655 1246 l 1,7,-1
 655 1393 l 2,8,9
 655 1533 655 1533 620 1579 c 128,-1,10
 585 1625 585 1625 520 1625 c 0,11,12
 363 1625 363 1625 363 1386 c 0,13,14
 363 1222 363 1222 437 954 c 1,15,-1
 787 954 l 1,16,-1
 787 809 l 1,17,-1
 476 809 l 1,18,19
 491 712 491 712 491 634 c 0,20,21
 491 260 491 260 297 164 c 1,22,-1
 842 164 l 1,23,-1
 842 0 l 1,24,-1
 65 0 l 1,25,-1
 65 143 l 1,26,27
 188 197 188 197 240 310 c 128,-1,28
 292 423 292 423 292 632 c 0,29,30
 292 722 292 722 275 809 c 1,31,-1
 38 809 l 1,32,-1
 38 954 l 1,33,-1
 241 954 l 1,34,35
 173 1204 173 1204 173 1383 c 0,0,1
EndSplineSet
Validated: 1
EndChar

StartChar: currency
Encoding: 164 164 102
Width: 1159
GlyphClass: 2
Flags: W
LayerCount: 2
UndoRedoHistory
Layer: 1
Undoes
EndUndoes
Redoes
EndRedoes
EndUndoRedoHistory
Fore
SplineSet
797 1331 m 1,0,-1
 884 1418 l 1,1,-1
 1034 1269 l 1,2,-1
 944 1179 l 1,3,4
 998 1082 998 1082 998 964 c 128,-1,5
 998 846 998 846 944 748 c 1,6,-1
 1034 658 l 1,7,-1
 884 509 l 1,8,-1
 795 597 l 1,9,10
 703 545 703 545 579 545 c 128,-1,11
 455 545 455 545 363 598 c 1,12,-1
 274 509 l 1,13,-1
 125 659 l 1,14,-1
 216 750 l 1,15,16
 163 848 163 848 163 964.5 c 128,-1,17
 163 1081 163 1081 215 1178 c 1,18,-1
 125 1268 l 1,19,-1
 274 1418 l 1,20,-1
 361 1330 l 1,21,22
 458 1385 458 1385 579 1385 c 128,-1,23
 700 1385 700 1385 797 1331 c 1,0,-1
755.5 779 m 128,-1,25
 823 855 823 855 823 967 c 128,-1,26
 823 1079 823 1079 756.5 1151.5 c 128,-1,27
 690 1224 690 1224 580.5 1224 c 128,-1,28
 471 1224 471 1224 403.5 1149 c 128,-1,29
 336 1074 336 1074 336 963.5 c 128,-1,30
 336 853 336 853 403 778 c 128,-1,31
 470 703 470 703 579 703 c 128,-1,24
 688 703 688 703 755.5 779 c 128,-1,25
EndSplineSet
Validated: 1
EndChar

StartChar: yen
Encoding: 165 165 103
Width: 843
GlyphClass: 2
Flags: W
LayerCount: 2
UndoRedoHistory
Layer: 1
Undoes
EndUndoes
Redoes
EndRedoes
EndUndoRedoHistory
Fore
SplineSet
614 1760 m 1,0,-1
 817 1760 l 1,1,-1
 549 798 l 1,2,-1
 763 798 l 1,3,-1
 763 682 l 1,4,-1
 533 682 l 1,5,-1
 533 507 l 1,6,-1
 763 507 l 1,7,-1
 763 391 l 1,8,-1
 533 391 l 1,9,-1
 533 0 l 1,10,-1
 326 0 l 1,11,-1
 326 391 l 1,12,-1
 85 391 l 1,13,-1
 85 507 l 1,14,-1
 326 507 l 1,15,-1
 326 682 l 1,16,-1
 85 682 l 1,17,-1
 85 798 l 1,18,-1
 308 798 l 1,19,-1
 20 1760 l 1,20,-1
 221 1760 l 1,21,-1
 429 1040 l 1,22,-1
 433 1040 l 1,23,-1
 614 1760 l 1,0,-1
EndSplineSet
Validated: 1
EndChar

StartChar: brokenbar
Encoding: 166 166 104
Width: 530
GlyphClass: 2
Flags: W
LayerCount: 2
UndoRedoHistory
Layer: 1
Undoes
EndUndoes
Redoes
EndRedoes
EndUndoRedoHistory
Fore
SplineSet
122 1727 m 1,0,-1
 319 1727 l 1,1,-1
 319 897 l 1,2,-1
 122 897 l 1,3,-1
 122 1727 l 1,0,-1
122 690 m 1,4,-1
 319 690 l 1,5,-1
 319 -118 l 1,6,-1
 122 -118 l 1,7,-1
 122 690 l 1,4,-1
EndSplineSet
Validated: 1
EndChar

StartChar: section
Encoding: 167 167 105
Width: 805
GlyphClass: 2
Flags: W
LayerCount: 2
UndoRedoHistory
Layer: 1
Undoes
EndUndoes
Redoes
EndRedoes
EndUndoRedoHistory
Fore
SplineSet
88 1487 m 0,0,1
 88 1620 88 1620 177 1701 c 128,-1,2
 266 1782 266 1782 408 1782 c 128,-1,3
 550 1782 550 1782 634.5 1675 c 128,-1,4
 719 1568 719 1568 719 1393 c 2,5,-1
 719 1332 l 1,6,-1
 525 1332 l 1,7,-1
 525 1418 l 2,8,9
 525 1533 525 1533 485.5 1585 c 128,-1,10
 446 1637 446 1637 389.5 1637 c 128,-1,11
 333 1637 333 1637 300.5 1596 c 128,-1,12
 268 1555 268 1555 268 1496 c 128,-1,13
 268 1437 268 1437 313 1370.5 c 128,-1,14
 358 1304 358 1304 425 1249 c 1,15,16
 745 998 745 998 745 800 c 0,17,18
 745 723 745 723 696.5 678.5 c 128,-1,19
 648 634 648 634 586 596 c 1,20,21
 745 461 745 461 745 281 c 0,22,23
 745 145 745 145 657 62.5 c 128,-1,24
 569 -20 569 -20 422 -20 c 128,-1,25
 275 -20 275 -20 187.5 72 c 128,-1,26
 100 164 100 164 100 340 c 2,27,-1
 100 434 l 1,28,-1
 299 434 l 1,29,-1
 299 342 l 2,30,31
 299 232 299 232 326.5 178.5 c 128,-1,32
 354 125 354 125 426 125 c 0,33,34
 559.007407407 125 559.007407407 125 559.007407407 278.69744856 c 0,35,36
 559.007407407 279.844444444 559.007407407 279.844444444 559 281 c 1,37,38
 559.010526316 282.4 559.010526316 282.4 559.010526316 283.795789474 c 0,39,40
 559.010526316 415 559.010526316 415 466 509 c 0,41,42
 418 558 418 558 320 630 c 0,43,44
 222 700 222 700 180 740 c 0,45,46
 87 828 87 828 87 950 c 0,47,48
 87 1026 87 1026 127 1083 c 128,-1,49
 167 1140 167 1140 242 1172 c 1,50,51
 173 1234 173 1234 130.5 1321 c 128,-1,52
 88 1408 88 1408 88 1487 c 0,0,1
339 1074 m 1,53,-1
 338 1075 l 1,54,55
 257 1028 257 1028 257 948 c 0,56,57
 257 900 257 900 309.5 846 c 128,-1,58
 362 792 362 792 514 673 c 1,59,60
 588 723 588 723 588 786 c 128,-1,61
 588 849 588 849 532 913 c 128,-1,62
 476 977 476 977 339 1074 c 1,53,-1
EndSplineSet
EndChar

StartChar: dieresis
Encoding: 168 168 106
Width: 976
GlyphClass: 2
Flags: W
LayerCount: 2
UndoRedoHistory
Layer: 1
Undoes
EndUndoes
Redoes
EndRedoes
EndUndoRedoHistory
Fore
SplineSet
615 596 m 1,0,-1
 845 596 l 1,1,-1
 845 418 l 1,2,-1
 615 418 l 1,3,-1
 615 596 l 1,0,-1
131 596 m 1,4,-1
 361 596 l 1,5,-1
 361 418 l 1,6,-1
 131 418 l 1,7,-1
 131 596 l 1,4,-1
EndSplineSet
Validated: 1
EndChar

StartChar: copyright
Encoding: 169 169 107
Width: 1466
GlyphClass: 2
Flags: W
LayerCount: 2
UndoRedoHistory
Layer: 1
Undoes
EndUndoes
Redoes
EndRedoes
EndUndoRedoHistory
Fore
SplineSet
527 1089 m 2,0,1
 527 1194 527 1194 573.5 1249.5 c 128,-1,2
 620 1305 620 1305 731 1305 c 128,-1,3
 842 1305 842 1305 891 1259 c 128,-1,4
 940 1213 940 1213 940 1095 c 2,5,-1
 940 977 l 1,6,-1
 815 977 l 1,7,-1
 815 1084 l 2,8,9
 815 1155 815 1155 793.5 1172 c 128,-1,10
 772 1189 772 1189 748 1189 c 0,11,12
 724 1190 724 1190 712 1188 c 0,13,14
 652 1180 652 1180 652 1097 c 2,15,-1
 652 616 l 2,16,17
 652 569 652 569 675.5 552.5 c 128,-1,18
 699 536 699 536 737 536 c 128,-1,19
 775 536 775 536 795 552 c 128,-1,20
 815 568 815 568 815 616 c 2,21,-1
 815 765 l 1,22,-1
 944 765 l 1,23,-1
 944 623 l 2,24,25
 944 523 944 523 896 473.5 c 128,-1,26
 848 424 848 424 739.5 424 c 128,-1,27
 631 424 631 424 579 479 c 128,-1,28
 527 534 527 534 527 628 c 2,29,-1
 527 1089 l 2,0,1
84 862 m 128,-1,31
 84 1046 84 1046 170 1196.5 c 128,-1,32
 256 1347 256 1347 406.5 1433 c 128,-1,33
 557 1519 557 1519 741 1519 c 128,-1,34
 925 1519 925 1519 1075.5 1433 c 128,-1,35
 1226 1347 1226 1347 1312 1196.5 c 128,-1,36
 1398 1046 1398 1046 1398 862 c 128,-1,37
 1398 678 1398 678 1312 527.5 c 128,-1,38
 1226 377 1226 377 1075.5 291 c 128,-1,39
 925 205 925 205 741 205 c 128,-1,40
 557 205 557 205 406.5 291 c 128,-1,41
 256 377 256 377 170 527.5 c 128,-1,30
 84 678 84 678 84 862 c 128,-1,31
741 1390 m 128,-1,43
 641 1390 641 1390 556 1360.5 c 128,-1,44
 471 1331 471 1331 410.5 1280 c 128,-1,45
 350 1229 350 1229 308 1161.5 c 128,-1,46
 266 1094 266 1094 245.5 1018 c 128,-1,47
 225 942 225 942 225 861.5 c 128,-1,48
 225 781 225 781 245 705 c 128,-1,49
 265 629 265 629 307.5 561.5 c 128,-1,50
 350 494 350 494 410 443.5 c 128,-1,51
 470 393 470 393 555.5 363.5 c 128,-1,52
 641 334 641 334 741 334 c 128,-1,53
 841 334 841 334 926 363.5 c 128,-1,54
 1011 393 1011 393 1071.5 444 c 128,-1,55
 1132 495 1132 495 1174 562.5 c 128,-1,56
 1216 630 1216 630 1236.5 706 c 128,-1,57
 1257 782 1257 782 1257 862.5 c 128,-1,58
 1257 943 1257 943 1237 1019 c 128,-1,59
 1217 1095 1217 1095 1174.5 1162.5 c 128,-1,60
 1132 1230 1132 1230 1072 1280.5 c 128,-1,61
 1012 1331 1012 1331 926.5 1360.5 c 128,-1,42
 841 1390 841 1390 741 1390 c 128,-1,43
EndSplineSet
Validated: 1
EndChar

StartChar: ordfeminine
Encoding: 170 170 108
Width: 927
GlyphClass: 2
Flags: W
LayerCount: 2
UndoRedoHistory
Layer: 1
Undoes
EndUndoes
Redoes
EndRedoes
EndUndoRedoHistory
Fore
SplineSet
216 1246 m 2,0,1
 216 1463 216 1463 283.5 1535.5 c 128,-1,2
 351 1608 351 1608 480 1608 c 0,3,4
 661 1608 661 1608 707 1460 c 0,5,6
 734 1373 734 1373 734 1210 c 2,7,-1
 734 393 l 1,8,-1
 570 393 l 1,9,-1
 570 493 l 1,10,11
 559 454 559 454 514.5 418 c 128,-1,12
 470 382 470 382 406 382 c 0,13,14
 203 382 203 382 201 700 c 1,15,-1
 201 818 l 2,16,17
 201 918 201 918 255 991.5 c 128,-1,18
 309 1065 309 1065 524 1146 c 0,19,20
 562 1160 562 1160 569 1163 c 1,21,-1
 569 1231 l 2,22,23
 569 1372 569 1372 557 1412 c 0,24,25
 539 1471 539 1471 477.5 1471 c 128,-1,26
 416 1471 416 1471 397.5 1424.5 c 128,-1,27
 379 1378 379 1378 379 1255 c 2,28,-1
 379 1211 l 1,29,-1
 216 1211 l 1,30,-1
 216 1246 l 2,0,1
569 598 m 1,31,-1
 569 1051 l 1,32,33
 499 1020 499 1020 466 1002 c 128,-1,34
 433 984 433 984 406.5 957 c 128,-1,35
 380 930 380 930 373 898.5 c 128,-1,36
 366 867 366 867 366 814 c 2,37,-1
 366 706 l 2,38,39
 366 601 366 601 384.5 558 c 128,-1,40
 403 515 403 515 448 515 c 128,-1,41
 493 515 493 515 525 541 c 128,-1,42
 557 567 557 567 569 598 c 1,31,-1
EndSplineSet
Validated: 1
EndChar

StartChar: guillemotleft
Encoding: 171 171 109
Width: 1304
GlyphClass: 2
Flags: W
LayerCount: 2
UndoRedoHistory
Layer: 1
Undoes
EndUndoes
Redoes
EndRedoes
EndUndoRedoHistory
Fore
SplineSet
620 839 m 1,0,-1
 1098 1110 l 1,1,-1
 1098 903 l 1,2,-1
 786 749 l 1,3,-1
 1098 586 l 1,4,-1
 1098 372 l 1,5,-1
 620 657 l 1,6,-1
 620 839 l 1,0,-1
82 839 m 1,7,-1
 560 1110 l 1,8,-1
 560 903 l 1,9,-1
 248 749 l 1,10,-1
 560 586 l 1,11,-1
 560 372 l 1,12,-1
 82 657 l 1,13,-1
 82 839 l 1,7,-1
EndSplineSet
Validated: 1
EndChar

StartChar: logicalnot
Encoding: 172 172 110
Width: 947
GlyphClass: 2
Flags: W
LayerCount: 2
UndoRedoHistory
Layer: 1
Undoes
EndUndoes
Redoes
EndRedoes
EndUndoRedoHistory
Fore
SplineSet
97 979 m 1,0,-1
 793 979 l 1,1,-1
 793 439 l 1,2,-1
 602 439 l 1,3,-1
 602 796 l 1,4,-1
 97 796 l 1,5,-1
 97 979 l 1,0,-1
EndSplineSet
Validated: 1
EndChar

StartChar: uni00AD
Encoding: 173 173 111
Width: 696
GlyphClass: 2
Flags: W
LayerCount: 2
UndoRedoHistory
Layer: 1
Undoes
EndUndoes
Redoes
EndRedoes
EndUndoRedoHistory
Fore
SplineSet
90 741 m 1,0,-1
 606 741 l 1,1,-1
 606 573 l 1,2,-1
 90 573 l 1,3,-1
 90 741 l 1,0,-1
EndSplineSet
Validated: 1
EndChar

StartChar: registered
Encoding: 174 174 112
Width: 1502
GlyphClass: 2
Flags: W
LayerCount: 2
UndoRedoHistory
Layer: 1
Undoes
EndUndoes
Redoes
EndRedoes
EndUndoRedoHistory
Fore
SplineSet
94 862 m 128,-1,1
 94 1046 94 1046 180 1196.5 c 128,-1,2
 266 1347 266 1347 416.5 1433 c 128,-1,3
 567 1519 567 1519 751 1519 c 128,-1,4
 935 1519 935 1519 1085.5 1433 c 128,-1,5
 1236 1347 1236 1347 1322 1196.5 c 128,-1,6
 1408 1046 1408 1046 1408 862 c 128,-1,7
 1408 678 1408 678 1322 527.5 c 128,-1,8
 1236 377 1236 377 1085.5 291 c 128,-1,9
 935 205 935 205 751 205 c 128,-1,10
 567 205 567 205 416.5 291 c 128,-1,11
 266 377 266 377 180 527.5 c 128,-1,0
 94 678 94 678 94 862 c 128,-1,1
751 1390 m 0,12,13
 460 1390 460 1390 318 1162 c 0,14,15
 235 1030 235 1030 235 862 c 0,16,17
 235 600 235 600 420 444 c 0,18,19
 550 335 550 335 751 334 c 1,20,21
 993 334 993 334 1130 490 c 128,-1,22
 1267 646 1267 646 1267 863 c 0,23,24
 1267 1124 1267 1124 1082 1280 c 0,25,26
 952 1390 952 1390 751 1390 c 0,12,13
946 1073 m 2,27,-1
 946 1046 l 2,28,29
 946 975 946 975 936 959 c 128,-1,30
 926 943 926 943 911.5 926.5 c 128,-1,31
 897 910 897 910 848 899 c 1,32,33
 893 895 893 895 916 868 c 0,34,35
 939 840 939 840 939 778 c 2,36,-1
 939 430 l 1,37,-1
 811 430 l 1,38,-1
 811 762 l 2,39,40
 811 806 811 806 789.5 827 c 128,-1,41
 768 848 768 848 699 848 c 1,42,-1
 699 430 l 1,43,-1
 567 430 l 1,44,-1
 567 1282 l 1,45,-1
 778 1282 l 2,46,47
 881 1282 881 1282 913.5 1235.5 c 128,-1,48
 946 1189 946 1189 946 1073 c 2,27,-1
823 1010 m 128,-1,50
 825 1029 825 1029 825 1086 c 128,-1,51
 825 1143 825 1143 803 1163.5 c 128,-1,52
 781 1184 781 1184 700 1184 c 1,53,-1
 700 945 l 1,54,55
 746 945 746 945 771 950 c 128,-1,56
 796 955 796 955 808.5 973 c 128,-1,49
 821 991 821 991 823 1010 c 128,-1,50
EndSplineSet
Validated: 1
EndChar

StartChar: macron
Encoding: 175 175 113
Width: 696
GlyphClass: 2
Flags: W
LayerCount: 2
UndoRedoHistory
Layer: 1
Undoes
EndUndoes
Redoes
EndRedoes
EndUndoRedoHistory
Fore
SplineSet
90 544 m 1,0,-1
 591 544 l 1,1,-1
 591 412 l 1,2,-1
 90 412 l 1,3,-1
 90 544 l 1,0,-1
EndSplineSet
Validated: 1
EndChar

StartChar: degree
Encoding: 176 176 114
Width: 915
GlyphClass: 2
Flags: W
LayerCount: 2
UndoRedoHistory
Layer: 1
Undoes
EndUndoes
Redoes
EndRedoes
EndUndoRedoHistory
Fore
SplineSet
104 1269 m 128,-1,1
 104 1431 104 1431 210.5 1517 c 128,-1,2
 317 1603 317 1603 457.5 1603 c 128,-1,3
 598 1603 598 1603 704.5 1517 c 128,-1,4
 811 1431 811 1431 811 1269 c 0,5,6
 811 1189 811 1189 780.5 1123.5 c 128,-1,7
 750 1058 750 1058 700 1018 c 0,8,9
 597 934 597 934 457.5 934 c 128,-1,10
 318 934 318 934 211 1020.5 c 128,-1,0
 104 1107 104 1107 104 1269 c 128,-1,1
628 1151 m 0,11,12
 657 1199 657 1199 657 1260 c 0,13,14
 657 1437 657 1437 500 1478 c 0,15,16
 479 1484 479 1484 458 1484 c 1,17,-1
 416 1478 l 1,18,19
 259 1437 259 1437 259 1265 c 0,20,21
 259 1201 259 1201 288 1152 c 0,22,23
 344 1056 344 1056 458 1056 c 0,24,25
 459 1056 459 1056 460 1056 c 0,26,27
 572 1056 572 1056 628 1151 c 0,11,12
EndSplineSet
Validated: 1
EndChar

StartChar: plusminus
Encoding: 177 177 115
Width: 854
GlyphClass: 2
Flags: W
LayerCount: 2
UndoRedoHistory
Layer: 1
Undoes
EndUndoes
Redoes
EndRedoes
EndUndoRedoHistory
Fore
SplineSet
353 1152 m 1,0,-1
 501 1152 l 1,1,-1
 501 906 l 1,2,-1
 729 906 l 1,3,-1
 729 766 l 1,4,-1
 501 766 l 1,5,-1
 501 516 l 1,6,-1
 353 516 l 1,7,-1
 353 766 l 1,8,-1
 129 766 l 1,9,-1
 129 906 l 1,10,-1
 353 906 l 1,11,-1
 353 1152 l 1,0,-1
165 337 m 1,12,-1
 681 337 l 1,13,-1
 681 188 l 1,14,-1
 165 188 l 1,15,-1
 165 337 l 1,12,-1
EndSplineSet
Validated: 1
EndChar

StartChar: uni00B2
Encoding: 178 178 116
Width: 846
GlyphClass: 2
Flags: W
LayerCount: 2
UndoRedoHistory
Layer: 1
Undoes
EndUndoes
Redoes
EndRedoes
EndUndoRedoHistory
Fore
SplineSet
222 1340 m 2,0,1
 222 1586 222 1586 261 1665 c 128,-1,2
 300 1744 300 1744 372 1766 c 0,3,4
 412 1778 412 1778 468 1779 c 1,5,6
 680 1779 680 1779 680 1427 c 0,7,8
 680 1250 680 1250 590 1078 c 1,9,10
 550 1004 550 1004 509 932 c 0,11,12
 405 751 405 751 381 603 c 1,13,-1
 664 603 l 1,14,-1
 664 490 l 1,15,-1
 226 490 l 1,16,-1
 226 557 l 2,17,18
 226 638 226 638 337 887.5 c 128,-1,19
 448 1137 448 1137 482 1179 c 1,20,21
 536 1278 536 1278 536 1440 c 128,-1,22
 536 1602 536 1602 498 1637 c 0,23,24
 482 1652 482 1652 456 1652 c 0,25,26
 430 1652 430 1652 412 1636 c 0,27,28
 370 1599 370 1599 370 1428 c 2,29,-1
 370 1262 l 1,30,-1
 222 1262 l 1,31,-1
 222 1340 l 2,0,1
EndSplineSet
Validated: 1
EndChar

StartChar: uni00B3
Encoding: 179 179 117
Width: 868
GlyphClass: 2
Flags: W
LayerCount: 2
UndoRedoHistory
Layer: 1
Undoes
EndUndoes
Redoes
EndRedoes
EndUndoRedoHistory
Fore
SplineSet
201 1467 m 2,0,1
 201 1626 201 1626 255.5 1701.5 c 128,-1,2
 310 1777 310 1777 436 1777 c 128,-1,3
 562 1777 562 1777 621 1699.5 c 128,-1,4
 680 1622 680 1622 680 1467 c 0,5,6
 680 1250 680 1250 560 1206 c 1,7,8
 682 1152 682 1152 682 910 c 0,9,10
 682 738 682 738 622 654.5 c 128,-1,11
 562 571 562 571 433.5 571 c 128,-1,12
 305 571 305 571 251 651 c 128,-1,13
 197 731 197 731 197 902 c 2,14,-1
 197 956 l 1,15,-1
 339 956 l 1,16,-1
 339 902 l 2,17,18
 339 777 339 777 357 733 c 128,-1,19
 375 689 375 689 435 689 c 128,-1,20
 495 689 495 689 515.5 738 c 128,-1,21
 536 787 536 787 536 915 c 128,-1,22
 536 1043 536 1043 506.5 1095.5 c 128,-1,23
 477 1148 477 1148 402 1148 c 2,24,-1
 373 1148 l 1,25,-1
 373 1261 l 1,26,-1
 401 1261 l 1,27,28
 452 1262 452 1262 479 1277 c 0,29,30
 535 1308 535 1308 535 1443 c 128,-1,31
 535 1578 535 1578 509.5 1618 c 128,-1,32
 484 1658 484 1658 435.5 1658 c 128,-1,33
 387 1658 387 1658 365.5 1616 c 128,-1,34
 344 1574 344 1574 344 1464 c 2,35,-1
 344 1439 l 1,36,-1
 201 1439 l 1,37,-1
 201 1467 l 2,0,1
EndSplineSet
Validated: 1
EndChar

StartChar: acute
Encoding: 180 180 118
Width: 650
GlyphClass: 2
Flags: W
LayerCount: 2
UndoRedoHistory
Layer: 1
Undoes
EndUndoes
Redoes
EndRedoes
EndUndoRedoHistory
Fore
SplineSet
100 1955 m 1,0,-1
 519 2129 l 1,1,-1
 519 1930 l 1,2,-1
 100 1844 l 1,3,-1
 100 1955 l 1,0,-1
EndSplineSet
Validated: 1
EndChar

StartChar: paragraph
Encoding: 182 182 119
Width: 1119
GlyphClass: 2
Flags: W
LayerCount: 2
UndoRedoHistory
Layer: 1
Undoes
EndUndoes
Redoes
EndRedoes
EndUndoRedoHistory
Fore
SplineSet
654 1761 m 2,0,-1
 957 1761 l 1,1,-1
 957 0 l 1,2,-1
 779 0 l 1,3,-1
 779 1575 l 1,4,-1
 636 1575 l 1,5,-1
 636 0 l 1,6,-1
 458 0 l 1,7,-1
 458 1135 l 1,8,9
 135 1171 135 1171 135 1456 c 0,10,11
 135 1547 135 1547 162 1605.5 c 128,-1,12
 189 1664 189 1664 254 1699 c 0,13,14
 369 1761 369 1761 654 1761 c 2,0,-1
EndSplineSet
Validated: 1
EndChar

StartChar: periodcentered
Encoding: 183 183 120
Width: 480
GlyphClass: 2
Flags: W
LayerCount: 2
UndoRedoHistory
Layer: 1
Undoes
EndUndoes
Redoes
EndRedoes
EndUndoRedoHistory
Fore
SplineSet
148 977 m 1,0,-1
 348 977 l 1,1,-1
 348 769 l 1,2,-1
 148 769 l 1,3,-1
 148 977 l 1,0,-1
EndSplineSet
Validated: 1
EndChar

StartChar: cedilla
Encoding: 184 184 121
Width: 1015
GlyphClass: 2
Flags: W
LayerCount: 2
UndoRedoHistory
Layer: 1
Undoes
EndUndoes
Redoes
EndRedoes
EndUndoRedoHistory
Fore
SplineSet
351 -501 m 1,0,1
 582 -501 582 -501 582 -360 c 0,2,3
 582 -296 582 -296 535.5 -253.5 c 128,-1,4
 489 -211 489 -211 422 -196 c 1,5,-1
 462 0 l 1,6,-1
 531 0 l 1,7,-1
 543 -144 l 1,8,9
 746 -228 746 -228 746 -397 c 0,10,11
 746 -480 746 -480 668.5 -548.5 c 128,-1,12
 591 -617 591 -617 468 -617 c 0,13,14
 411 -617 411 -617 351 -599 c 1,15,-1
 351 -501 l 1,0,1
EndSplineSet
Validated: 1
EndChar

StartChar: uni00B9
Encoding: 185 185 122
Width: 627
GlyphClass: 2
Flags: W
LayerCount: 2
UndoRedoHistory
Layer: 1
Undoes
EndUndoes
Redoes
EndRedoes
EndUndoRedoHistory
Fore
SplineSet
302 1759 m 1,0,-1
 409 1759 l 1,1,-1
 409 487 l 1,2,-1
 253 487 l 1,3,-1
 253 1557 l 1,4,5
 193 1499 193 1499 90 1499 c 1,6,-1
 90 1600 l 1,7,8
 155 1607 155 1607 217 1650 c 128,-1,9
 279 1693 279 1693 302 1759 c 1,0,-1
EndSplineSet
Validated: 1
EndChar

StartChar: ordmasculine
Encoding: 186 186 123
Width: 908
GlyphClass: 2
Flags: W
LayerCount: 2
UndoRedoHistory
Layer: 1
Undoes
EndUndoes
Redoes
EndRedoes
EndUndoRedoHistory
Fore
SplineSet
200 1213 m 2,0,1
 200 1506 200 1506 336 1578 c 0,2,3
 390 1607 390 1607 464 1607 c 0,4,5
 657 1607 657 1607 706 1455 c 0,6,7
 737 1360 737 1360 737 1213 c 2,8,-1
 737 789 l 2,9,10
 737 538 737 538 668.5 457.5 c 128,-1,11
 600 377 600 377 471 377 c 0,12,13
 282 377 282 377 230 537 c 0,14,15
 200 631 200 631 200 789 c 2,16,-1
 200 1213 l 2,0,1
571 1246 m 2,17,18
 571 1359 571 1359 550.5 1414.5 c 128,-1,19
 530 1470 530 1470 469 1470 c 128,-1,20
 408 1470 408 1470 387 1415 c 128,-1,21
 366 1360 366 1360 366 1246 c 2,22,-1
 366 743 l 2,23,24
 366 627 366 627 387.5 570.5 c 128,-1,25
 409 514 409 514 471 514 c 0,26,27
 548 514 548 514 564 620 c 0,28,29
 571 663 571 663 571 727 c 0,30,31
 571 735 571 735 571 743 c 1,32,-1
 571 1246 l 2,17,18
EndSplineSet
Validated: 1
EndChar

StartChar: guillemotright
Encoding: 187 187 124
Width: 1304
GlyphClass: 2
Flags: W
LayerCount: 2
UndoRedoHistory
Layer: 1
Undoes
EndUndoes
Redoes
EndRedoes
EndUndoRedoHistory
Fore
SplineSet
710 903 m 1,0,-1
 710 1110 l 1,1,-1
 1188 839 l 1,2,-1
 1188 657 l 1,3,-1
 710 372 l 1,4,-1
 710 586 l 1,5,-1
 1022 749 l 1,6,-1
 710 903 l 1,0,-1
172 903 m 1,7,-1
 172 1110 l 1,8,-1
 650 839 l 1,9,-1
 650 657 l 1,10,-1
 172 372 l 1,11,-1
 172 586 l 1,12,-1
 484 749 l 1,13,-1
 172 903 l 1,7,-1
EndSplineSet
Validated: 1
EndChar

StartChar: onequarter
Encoding: 188 188 125
Width: 1535
GlyphClass: 2
Flags: W
LayerCount: 2
UndoRedoHistory
Layer: 1
Undoes
EndUndoes
Redoes
EndRedoes
EndUndoRedoHistory
Fore
SplineSet
936 1768 m 1,0,-1
 1089 1768 l 1,1,-1
 610 0 l 1,2,-1
 457 0 l 1,3,-1
 936 1768 l 1,0,-1
297 1728 m 1,4,-1
 397 1728 l 1,5,-1
 397 482 l 1,6,-1
 250 482 l 1,7,-1
 250 1533 l 1,8,9
 195 1476 195 1476 95 1476 c 1,10,-1
 95 1572 l 1,11,12
 156 1579 156 1579 214.5 1621 c 128,-1,13
 273 1663 273 1663 297 1728 c 1,4,-1
1160 1147 m 1,14,-1
 1316 1147 l 1,15,-1
 1316 325 l 1,16,-1
 1406 325 l 1,17,-1
 1406 219 l 1,18,-1
 1316 219 l 1,19,-1
 1316 0 l 1,20,-1
 1190 0 l 1,21,-1
 1190 219 l 1,22,-1
 909 219 l 1,23,-1
 909 310 l 1,24,-1
 1160 1147 l 1,14,-1
1190 325 m 1,25,-1
 1190 928 l 1,26,-1
 1028 325 l 1,27,-1
 1190 325 l 1,25,-1
EndSplineSet
Validated: 1
EndChar

StartChar: onehalf
Encoding: 189 189 126
Width: 1620
GlyphClass: 2
Flags: W
LayerCount: 2
UndoRedoHistory
Layer: 1
Undoes
EndUndoes
Redoes
EndRedoes
EndUndoRedoHistory
Fore
SplineSet
936 1768 m 1,0,-1
 1089 1768 l 1,1,-1
 610 0 l 1,2,-1
 457 0 l 1,3,-1
 936 1768 l 1,0,-1
297 1728 m 1,4,-1
 397 1728 l 1,5,-1
 397 482 l 1,6,-1
 250 482 l 1,7,-1
 250 1533 l 1,8,9
 195 1476 195 1476 95 1476 c 1,10,-1
 95 1572 l 1,11,12
 156 1579 156 1579 214.5 1621 c 128,-1,13
 273 1663 273 1663 297 1728 c 1,4,-1
1092 834 m 2,14,15
 1092 1076 1092 1076 1130 1153.5 c 128,-1,16
 1168 1231 1168 1231 1238 1252 c 0,17,18
 1278 1264 1278 1264 1332 1264 c 0,19,20
 1538 1264 1538 1264 1538 919 c 0,21,22
 1538 746 1538 746 1448 576 c 1,23,24
 1410 502 1410 502 1370 432 c 0,25,26
 1270 255 1270 255 1245 109 c 1,27,-1
 1522 109 l 1,28,-1
 1522 1 l 1,29,-1
 1096 1 l 1,30,-1
 1096 66 l 2,31,32
 1096 119 1096 119 1153.5 264.5 c 128,-1,33
 1211 410 1211 410 1270.5 533 c 128,-1,34
 1330 656 1330 656 1346 675 c 1,35,36
 1399 770 1399 770 1399 956 c 128,-1,37
 1399 1142 1399 1142 1319 1142 c 0,38,39
 1293 1142 1293 1142 1276 1127 c 0,40,41
 1235 1091 1235 1091 1235 920 c 2,42,-1
 1235 757 l 1,43,-1
 1092 757 l 1,44,-1
 1092 834 l 2,14,15
EndSplineSet
Validated: 1
EndChar

StartChar: threequarters
Encoding: 190 190 127
Width: 1555
GlyphClass: 2
Flags: W
LayerCount: 2
UndoRedoHistory
Layer: 1
Undoes
EndUndoes
Redoes
EndRedoes
EndUndoRedoHistory
Fore
SplineSet
994 1768 m 1,0,-1
 1148 1768 l 1,1,-1
 668 0 l 1,2,-1
 515 0 l 1,3,-1
 994 1768 l 1,0,-1
123 1446 m 2,4,5
 123 1600 123 1600 174.5 1673.5 c 128,-1,6
 226 1747 226 1747 344 1747 c 128,-1,7
 462 1747 462 1747 517 1672.5 c 128,-1,8
 572 1598 572 1598 572 1446 c 0,9,10
 572 1234 572 1234 458 1191 c 1,11,12
 575 1138 575 1138 575 902 c 0,13,14
 575 736 575 736 518.5 655 c 128,-1,15
 462 574 462 574 342 574 c 128,-1,16
 222 574 222 574 170.5 652 c 128,-1,17
 119 730 119 730 119 896 c 2,18,-1
 119 946 l 1,19,-1
 251 946 l 1,20,-1
 251 896 l 2,21,22
 251 771 251 771 268 728.5 c 128,-1,23
 285 686 285 686 343.5 686 c 128,-1,24
 402 686 402 686 422 734.5 c 128,-1,25
 442 783 442 783 442 908 c 128,-1,26
 442 1033 442 1033 413 1084.5 c 128,-1,27
 384 1136 384 1136 313 1136 c 2,28,-1
 285 1136 l 1,29,-1
 285 1247 l 1,30,-1
 311 1247 l 1,31,32
 360 1248 360 1248 386 1262 c 0,33,34
 440 1291 440 1291 440 1423.5 c 128,-1,35
 440 1556 440 1556 415.5 1595.5 c 128,-1,36
 391 1635 391 1635 344 1635 c 128,-1,37
 297 1635 297 1635 276.5 1593.5 c 128,-1,38
 256 1552 256 1552 256 1443 c 1,39,-1
 255 1419 l 1,40,-1
 123 1419 l 1,41,-1
 123 1446 l 2,4,5
1180 1147 m 1,42,-1
 1336 1147 l 1,43,-1
 1336 325 l 1,44,-1
 1426 325 l 1,45,-1
 1426 219 l 1,46,-1
 1336 219 l 1,47,-1
 1336 0 l 1,48,-1
 1210 0 l 1,49,-1
 1210 219 l 1,50,-1
 929 219 l 1,51,-1
 929 310 l 1,52,-1
 1180 1147 l 1,42,-1
1210 325 m 1,53,-1
 1210 928 l 1,54,-1
 1048 325 l 1,55,-1
 1210 325 l 1,53,-1
EndSplineSet
Validated: 1
EndChar

StartChar: AE
Encoding: 198 198 135
Width: 1206
GlyphClass: 2
Flags: W
LayerCount: 2
UndoRedoHistory
Layer: 1
Undoes
EndUndoes
Redoes
EndRedoes
EndUndoRedoHistory
Fore
SplineSet
419 1760 m 1,0,-1
 1105 1760 l 1,1,-1
 1105 1588 l 1,2,-1
 803 1588 l 1,3,-1
 803 986 l 1,4,-1
 1088 986 l 1,5,-1
 1088 812 l 1,6,-1
 803 812 l 1,7,-1
 803 172 l 1,8,-1
 1109 172 l 1,9,-1
 1109 0 l 1,10,-1
 596 0 l 1,11,-1
 596 336 l 1,12,-1
 329 336 l 1,13,-1
 264 0 l 1,14,-1
 66 0 l 1,15,-1
 419 1760 l 1,0,-1
596 497 m 1,16,-1
 596 1590 l 1,17,-1
 570 1589 l 1,18,-1
 359 497 l 1,19,-1
 596 497 l 1,16,-1
EndSplineSet
Validated: 1
EndChar

StartChar: multiply
Encoding: 215 215 152
Width: 710
GlyphClass: 2
Flags: W
LayerCount: 2
UndoRedoHistory
Layer: 1
Undoes
EndUndoes
Redoes
EndRedoes
EndUndoRedoHistory
Fore
SplineSet
534 936 m 1,0,-1
 634 832 l 1,1,-1
 458 655 l 1,2,-1
 634 478 l 1,3,-1
 534 374 l 1,4,-1
 355 552 l 1,5,-1
 176 374 l 1,6,-1
 76 478 l 1,7,-1
 252 655 l 1,8,-1
 76 832 l 1,9,-1
 176 936 l 1,10,-1
 355 758 l 1,11,-1
 534 936 l 1,0,-1
EndSplineSet
Validated: 1
EndChar

StartChar: Oslash
Encoding: 216 216 153
Width: 900
GlyphClass: 2
Flags: W
LayerCount: 2
UndoRedoHistory
Layer: 1
Undoes
EndUndoes
Redoes
EndRedoes
EndUndoRedoHistory
Fore
SplineSet
612 1362 m 1,0,1
 607 1478 607 1478 586 1534 c 0,2,3
 559 1604 559 1604 477 1604 c 128,-1,4
 395 1604 395 1604 363 1532 c 128,-1,5
 331 1460 331 1460 331 1295 c 2,6,-1
 331 563 l 1,7,-1
 612 1362 l 1,0,1
346 279 m 1,8,9
 352 250 352 250 359 230 c 0,10,11
 387 158 387 158 472 158 c 128,-1,12
 557 158 557 158 585 231.5 c 128,-1,13
 613 305 613 305 613 504 c 2,14,-1
 613 1032 l 1,15,-1
 346 279 l 1,8,9
794 1544 m 1,16,17
 820 1445 820 1445 820 1282 c 2,18,-1
 820 506 l 2,19,20
 820 231 820 231 743 105.5 c 128,-1,21
 666 -20 666 -20 474 -20 c 0,22,23
 340 -20 340 -20 261 41 c 1,24,-1
 174 -206 l 1,25,-1
 75 -166 l 1,26,-1
 183 142 l 1,27,28
 124 268 124 268 124 506 c 2,29,-1
 124 1282 l 2,30,31
 124 1582 124 1582 232 1694 c 0,32,33
 317 1782 317 1782 481 1782 c 128,-1,34
 645 1782 645 1782 726 1688 c 1,35,-1
 803 1906 l 1,36,-1
 910 1870 l 1,37,-1
 794 1544 l 1,16,17
EndSplineSet
Validated: 1
EndChar

StartChar: Thorn
Encoding: 222 222 159
Width: 927
GlyphClass: 2
Flags: W
LayerCount: 2
UndoRedoHistory
Layer: 1
Undoes
EndUndoes
Redoes
EndRedoes
EndUndoRedoHistory
Fore
SplineSet
162 1760 m 1,0,-1
 368 1760 l 1,1,-1
 368 1499 l 1,2,-1
 515 1499 l 2,3,4
 676 1499 676 1499 754 1410 c 0,5,6
 847 1304 847 1304 847 987 c 2,7,-1
 847 963 l 1,8,9
 846 623 846 623 746 510 c 0,10,11
 667 422 667 422 515 422 c 2,12,-1
 368 422 l 1,13,-1
 368 0 l 1,14,-1
 162 0 l 1,15,-1
 162 1760 l 1,0,-1
641 994 m 2,16,17
 641 1178 641 1178 612.5 1256.5 c 128,-1,18
 584 1335 584 1335 499 1335 c 2,19,-1
 368 1335 l 1,20,-1
 368 594 l 1,21,-1
 495 594 l 2,22,23
 583 594 583 594 612 672.5 c 128,-1,24
 641 751 641 751 641 964 c 2,25,-1
 641 994 l 2,16,17
EndSplineSet
Validated: 1
EndChar

StartChar: germandbls
Encoding: 223 223 160
Width: 981
GlyphClass: 2
Flags: W
LayerCount: 2
UndoRedoHistory
Layer: 1
Undoes
EndUndoes
Redoes
EndRedoes
EndUndoRedoHistory
Fore
SplineSet
144 1417 m 2,0,1
 144 1616 144 1616 203 1690 c 0,2,3
 276 1780 276 1780 476 1780 c 0,4,5
 477 1780 477 1780 478 1781 c 0,6,7
 675 1780 675 1780 753 1702 c 0,8,9
 831 1624 831 1624 831 1417 c 2,10,-1
 831 1220 l 2,11,12
 831 1096 831 1096 795.5 1036 c 128,-1,13
 760 976 760 976 668 945 c 1,14,15
 795 915 795 915 843 828.5 c 128,-1,16
 891 742 891 742 891 553 c 2,17,-1
 891 476 l 2,18,19
 891 255 891 255 854.5 167 c 128,-1,20
 818 79 818 79 748 39.5 c 128,-1,21
 678 0 678 0 554 0 c 2,22,-1
 450 0 l 1,23,-1
 450 168 l 1,24,25
 605 168 605 168 641.5 203.5 c 128,-1,26
 678 239 678 239 683.5 291.5 c 128,-1,27
 689 344 689 344 689 395 c 2,28,-1
 689 656 l 2,29,30
 689 769 689 769 640.5 810 c 128,-1,31
 592 851 592 851 459 851 c 1,32,-1
 459 1019 l 1,33,34
 556 1019 556 1019 593.5 1052.5 c 128,-1,35
 631 1086 631 1086 631 1170 c 2,36,-1
 631 1470 l 2,37,38
 631 1560 631 1560 599.5 1593.5 c 128,-1,39
 568 1627 568 1627 489 1627 c 128,-1,40
 410 1627 410 1627 379 1592.5 c 128,-1,41
 348 1558 348 1558 348 1470 c 2,42,-1
 348 0 l 1,43,-1
 144 0 l 1,44,-1
 144 1417 l 2,0,1
EndSplineSet
Validated: 1
EndChar

StartChar: ae
Encoding: 230 230 167
Width: 1356
GlyphClass: 2
Flags: W
LayerCount: 2
UndoRedoHistory
Layer: 1
Undoes
EndUndoes
Redoes
EndRedoes
EndUndoRedoHistory
Fore
SplineSet
691 1418 m 1,0,1
 765 1518 765 1518 925 1518 c 0,2,3
 1150 1518 1150 1518 1208 1323 c 0,4,5
 1240 1214 1240 1214 1240 982 c 0,6,7
 1240 905 1240 905 1241 852 c 0,8,9
 1241 747 1241 747 1240 740 c 1,10,-1
 792 740 l 1,11,-1
 792 457 l 2,12,13
 792 289 792 289 816 221 c 128,-1,14
 840 153 840 153 908.5 153 c 128,-1,15
 977 153 977 153 1001 195 c 128,-1,16
 1025 237 1025 237 1030.5 298 c 128,-1,17
 1036 359 1036 359 1036 451 c 2,18,-1
 1036 562 l 1,19,-1
 1238 562 l 1,20,-1
 1238 502 l 2,21,22
 1238 218 1238 218 1188 122 c 0,23,24
 1138 26 1138 26 1048 -2 c 0,25,26
 996 -18 996 -18 925 -18 c 0,27,28
 739 -18 739 -18 670 115 c 1,29,30
 632 66 632 66 556 26.5 c 128,-1,31
 480 -13 480 -13 404 -13 c 0,32,33
 266 -13 266 -13 196 91.5 c 128,-1,34
 126 196 126 196 126 390 c 2,35,-1
 126 537 l 1,36,37
 127 625 127 625 152 686.5 c 128,-1,38
 177 748 177 748 245.5 796.5 c 128,-1,39
 314 845 314 845 379.5 876 c 128,-1,40
 445 907 445 907 586 962 c 1,41,-1
 586 1063 l 2,42,43
 586 1232 586 1232 574 1264 c 0,44,45
 560 1296 560 1296 548 1314 c 0,46,47
 526 1346 526 1346 460 1346 c 0,48,49
 459 1346 459 1346 459 1347 c 0,50,51
 394 1347 394 1347 372 1289 c 0,52,53
 349 1231 349 1231 349 1077 c 2,54,-1
 349 1023 l 1,55,-1
 145 1023 l 1,56,-1
 145 1066 l 2,57,58
 145 1338 145 1338 230 1428 c 128,-1,59
 315 1518 315 1518 475 1518 c 128,-1,60
 635 1518 635 1518 691 1418 c 1,0,1
585 257 m 1,61,-1
 585 822 l 1,62,63
 419 747 419 747 381 703 c 128,-1,64
 343 659 343 659 338 615 c 128,-1,65
 333 571 333 571 333 527 c 2,66,-1
 333 391 l 2,67,68
 333 260 333 260 356 206.5 c 128,-1,69
 379 153 379 153 435 153 c 128,-1,70
 491 153 491 153 531 186 c 128,-1,71
 571 219 571 219 585 257 c 1,61,-1
1036 1073 m 2,72,73
 1036 1235 1036 1235 1024 1267 c 128,-1,74
 1012 1299 1012 1299 995 1324 c 128,-1,75
 978 1349 978 1349 933 1349 c 0,76,77
 826 1349 826 1349 805 1239 c 0,78,79
 792 1170 792 1170 792 1060 c 2,80,-1
 792 889 l 1,81,-1
 1036 889 l 1,82,-1
 1036 1073 l 2,72,73
EndSplineSet
Validated: 1
EndChar

StartChar: eth
Encoding: 240 240 177
Width: 968
GlyphClass: 2
Flags: W
LayerCount: 2
UndoRedoHistory
Layer: 1
Undoes
EndUndoes
Redoes
EndRedoes
EndUndoRedoHistory
Fore
SplineSet
421 1101 m 0,0,1
 548 1101 548 1101 612 1025 c 1,2,3
 612 1067 612 1067 601 1219.5 c 128,-1,4
 590 1372 590 1372 575 1407 c 1,5,-1
 358 1281 l 1,6,-1
 299 1399 l 1,7,-1
 507 1520 l 1,8,9
 423 1617 423 1617 282 1635 c 1,10,-1
 349 1780 l 1,11,12
 563 1770 563 1770 683 1620 c 1,13,-1
 883 1735 l 1,14,-1
 942 1617 l 1,15,-1
 753 1507 l 1,16,17
 780 1451 780 1451 801 1223 c 128,-1,18
 822 995 822 995 822 909 c 2,19,-1
 822 516 l 2,20,21
 822 309 822 309 790 214 c 0,22,23
 758 119 758 119 718 75 c 0,24,25
 633 -20 633 -20 445 -20 c 128,-1,26
 257 -20 257 -20 180.5 100.5 c 128,-1,27
 104 221 104 221 104 462 c 2,28,-1
 104 571 l 2,29,30
 104 859 104 859 176.5 980 c 128,-1,31
 249 1101 249 1101 421 1101 c 0,0,1
616 854 m 1,32,33
 603 879 603 879 557.5 903 c 128,-1,34
 512 927 512 927 454 927 c 0,35,36
 369 927 369 927 340 852 c 128,-1,37
 311 777 311 777 311 578 c 2,38,-1
 311 440 l 2,39,40
 311 272 311 272 341.5 215 c 128,-1,41
 372 158 372 158 461.5 158 c 128,-1,42
 551 158 551 158 583.5 231.5 c 128,-1,43
 616 305 616 305 616 481 c 2,44,-1
 616 854 l 1,32,33
EndSplineSet
Validated: 1
EndChar

StartChar: divide
Encoding: 247 247 184
Width: 804
GlyphClass: 2
Flags: W
LayerCount: 2
UndoRedoHistory
Layer: 1
Undoes
EndUndoes
Redoes
EndRedoes
EndUndoRedoHistory
Fore
SplineSet
94 870 m 1,0,-1
 710 870 l 1,1,-1
 710 638 l 1,2,-1
 94 638 l 1,3,-1
 94 870 l 1,0,-1
253 535 m 1,4,-1
 551 535 l 1,5,-1
 551 237 l 1,6,-1
 253 237 l 1,7,-1
 253 535 l 1,4,-1
253 1274 m 1,8,-1
 551 1274 l 1,9,-1
 551 976 l 1,10,-1
 253 976 l 1,11,-1
 253 1274 l 1,8,-1
EndSplineSet
Validated: 1
EndChar

StartChar: oslash
Encoding: 248 248 185
Width: 879
GlyphClass: 2
Flags: W
LayerCount: 2
UndoRedoHistory
Layer: 1
Undoes
EndUndoes
Redoes
EndRedoes
EndUndoRedoHistory
Fore
SplineSet
557 1280 m 1,0,1
 511 1336 511 1336 459 1347 c 1,2,3
 377 1347 377 1347 353.5 1274 c 128,-1,4
 330 1201 330 1201 330 1068 c 2,5,-1
 330 469 l 1,6,-1
 557 1280 l 1,0,1
364 205 m 1,7,8
 393 153 393 153 465 153 c 128,-1,9
 537 153 537 153 560.5 227.5 c 128,-1,10
 584 302 584 302 584 439 c 2,11,-1
 584 988 l 1,12,-1
 364 205 l 1,7,8
219 72 m 1,13,14
 124 179 124 179 124 496 c 2,15,-1
 124 1027 l 2,16,17
 124 1392 124 1392 292 1482 c 0,18,19
 360 1518 360 1518 454.5 1518 c 128,-1,20
 549 1518 549 1518 615 1486 c 1,21,-1
 667 1672 l 1,22,-1
 768 1644 l 1,23,-1
 704 1415 l 1,24,25
 790 1303 790 1303 790 1027 c 2,26,-1
 790 496 l 2,27,28
 790 180 790 180 705 81 c 128,-1,29
 620 -18 620 -18 459 -18 c 0,30,31
 372 -18 372 -18 309 9 c 1,32,-1
 258 -173 l 1,33,-1
 158 -145 l 1,34,-1
 219 72 l 1,13,14
EndSplineSet
Validated: 1
EndChar

StartChar: thorn
Encoding: 254 254 191
Width: 939
GlyphClass: 2
Flags: W
LayerCount: 2
UndoRedoHistory
Layer: 1
Undoes
EndUndoes
Redoes
EndRedoes
EndUndoRedoHistory
Fore
SplineSet
147 1779 m 1,0,-1
 353 1779 l 1,1,-1
 353 1375 l 1,2,3
 381 1445 381 1445 437 1479 c 0,4,5
 494 1513 494 1513 558 1513 c 0,6,7
 737 1513 737 1513 784 1327 c 0,8,9
 814 1211 814 1211 814 1030 c 2,10,-1
 814 487 l 2,11,12
 814 188 814 188 738.5 85 c 128,-1,13
 663 -18 663 -18 526 -18 c 0,14,15
 472 -18 472 -18 425.5 16 c 128,-1,16
 379 50 379 50 353 100 c 1,17,-1
 353 -274 l 1,18,-1
 147 -274 l 1,19,-1
 147 1779 l 1,0,-1
608 1065 m 2,20,21
 608 1243 608 1243 579 1294 c 128,-1,22
 550 1345 550 1345 493 1345 c 128,-1,23
 436 1345 436 1345 412 1321.5 c 128,-1,24
 388 1298 388 1298 370.5 1249.5 c 128,-1,25
 353 1201 353 1201 353 1065 c 2,26,-1
 353 452 l 2,27,28
 353 292 353 292 380 223.5 c 128,-1,29
 407 155 407 155 483 155 c 128,-1,30
 559 155 559 155 583.5 224.5 c 128,-1,31
 608 294 608 294 608 460 c 2,32,-1
 608 1065 l 2,20,21
EndSplineSet
Validated: 1
EndChar

StartChar: Hbar
Encoding: 294 294 231
Width: 984
GlyphClass: 2
Flags: W
LayerCount: 2
UndoRedoHistory
Layer: 1
Undoes
EndUndoes
Redoes
EndRedoes
EndUndoRedoHistory
Fore
SplineSet
351 1398 m 1,0,-1
 351 1022 l 1,1,-1
 633 1022 l 1,2,-1
 633 1398 l 1,3,-1
 351 1398 l 1,0,-1
633 1760 m 1,4,-1
 840 1760 l 1,5,-1
 840 1504 l 1,6,-1
 951 1504 l 1,7,-1
 951 1398 l 1,8,-1
 840 1398 l 1,9,-1
 840 0 l 1,10,-1
 633 0 l 1,11,-1
 633 853 l 1,12,-1
 351 853 l 1,13,-1
 351 0 l 1,14,-1
 144 0 l 1,15,-1
 144 1398 l 1,16,-1
 55 1398 l 1,17,-1
 55 1504 l 1,18,-1
 144 1504 l 1,19,-1
 144 1760 l 1,20,-1
 351 1760 l 1,21,-1
 351 1504 l 1,22,-1
 633 1504 l 1,23,-1
 633 1760 l 1,4,-1
EndSplineSet
Validated: 1
EndChar

StartChar: hbar
Encoding: 295 295 232
Width: 969
GlyphClass: 2
Flags: W
LayerCount: 2
UndoRedoHistory
Layer: 1
Undoes
EndUndoes
Redoes
EndRedoes
EndUndoRedoHistory
Fore
SplineSet
147 1779 m 1,0,-1
 352 1779 l 1,1,-1
 352 1692 l 1,2,-1
 561 1692 l 1,3,-1
 561 1576 l 1,4,-1
 352 1576 l 1,5,-1
 352 1341 l 1,6,7
 373 1414 373 1414 439 1466.5 c 128,-1,8
 505 1519 505 1519 605.5 1519 c 128,-1,9
 706 1519 706 1519 769 1437.5 c 128,-1,10
 832 1356 832 1356 832 1196 c 2,11,-1
 832 0 l 1,12,-1
 627 0 l 1,13,-1
 627 1179 l 2,14,15
 627 1342 627 1342 504 1342 c 0,16,17
 437 1342 437 1342 394.5 1294.5 c 128,-1,18
 352 1247 352 1247 352 1154 c 2,19,-1
 352 0 l 1,20,-1
 147 0 l 1,21,-1
 147 1576 l 1,22,-1
 0 1576 l 1,23,-1
 0 1692 l 1,24,-1
 147 1692 l 1,25,-1
 147 1779 l 1,0,-1
EndSplineSet
Validated: 1
EndChar

StartChar: dotlessi
Encoding: 305 305 242
Width: 504
GlyphClass: 2
Flags: W
LayerCount: 2
UndoRedoHistory
Layer: 1
Undoes
EndUndoes
Redoes
EndRedoes
EndUndoRedoHistory
Fore
SplineSet
149 1500 m 1,0,-1
 355 1500 l 1,1,-1
 355 0 l 1,2,-1
 149 0 l 1,3,-1
 149 1500 l 1,0,-1
EndSplineSet
Validated: 1
EndChar

StartChar: kgreenlandic
Encoding: 312 312 249
Width: 866
GlyphClass: 2
Flags: W
LayerCount: 2
UndoRedoHistory
Layer: 1
Undoes
EndUndoes
Redoes
EndRedoes
EndUndoRedoHistory
Fore
SplineSet
147 1500 m 1,0,-1
 352 1500 l 1,1,-1
 352 787 l 1,2,-1
 647 1500 l 1,3,-1
 854 1500 l 1,4,-1
 538 759 l 1,5,-1
 871 0 l 1,6,-1
 660 0 l 1,7,-1
 352 730 l 1,8,-1
 352 0 l 1,9,-1
 147 0 l 1,10,-1
 147 1500 l 1,0,-1
EndSplineSet
Validated: 1
EndChar

StartChar: Lcaron
Encoding: 317 317 254
Width: 742
GlyphClass: 2
Flags: W
LayerCount: 2
UndoRedoHistory
Layer: 1
Undoes
EndUndoes
Redoes
EndRedoes
EndUndoRedoHistory
Fore
SplineSet
144 1760 m 1,0,-1
 351 1760 l 1,1,-1
 351 171 l 1,2,-1
 676 171 l 1,3,-1
 676 0 l 1,4,-1
 144 0 l 1,5,-1
 144 1760 l 1,0,-1
625 1753 m 1,6,-1
 860 1753 l 1,7,-1
 860 1535 l 1,8,-1
 774 1238 l 1,9,-1
 684 1238 l 1,10,-1
 733 1526 l 1,11,-1
 625 1526 l 1,12,-1
 625 1753 l 1,6,-1
EndSplineSet
Validated: 1
EndChar

StartChar: Lslash
Encoding: 321 321 258
Width: 748
GlyphClass: 2
Flags: W
LayerCount: 2
UndoRedoHistory
Layer: 1
Undoes
EndUndoes
Redoes
EndRedoes
EndUndoRedoHistory
Fore
SplineSet
144 1760 m 1,0,-1
 351 1760 l 1,1,-1
 351 1057 l 1,2,-1
 554 1139 l 1,3,-1
 554 987 l 1,4,-1
 351 905 l 1,5,-1
 351 171 l 1,6,-1
 676 171 l 1,7,-1
 676 0 l 1,8,-1
 144 0 l 1,9,-1
 144 822 l 1,10,-1
 -1 764 l 1,11,-1
 -1 916 l 1,12,-1
 144 974 l 1,13,-1
 144 1760 l 1,0,-1
EndSplineSet
Validated: 1
EndChar

StartChar: lslash
Encoding: 322 322 259
Width: 691
GlyphClass: 2
Flags: W
LayerCount: 2
UndoRedoHistory
Layer: 1
Undoes
EndUndoes
Redoes
EndRedoes
EndUndoRedoHistory
Fore
SplineSet
216 1779 m 1,0,-1
 421 1779 l 1,1,-1
 421 1074 l 1,2,-1
 601 1153 l 1,3,-1
 601 986 l 1,4,-1
 421 907 l 1,5,-1
 421 0 l 1,6,-1
 216 0 l 1,7,-1
 216 816 l 1,8,-1
 75 754 l 1,9,-1
 75 921 l 1,10,-1
 216 983 l 1,11,-1
 216 1779 l 1,0,-1
EndSplineSet
Validated: 1
EndChar

StartChar: OE
Encoding: 338 338 272
Width: 1214
GlyphClass: 2
Flags: W
LayerCount: 2
UndoRedoHistory
Layer: 1
Undoes
EndUndoes
Redoes
EndRedoes
EndUndoRedoHistory
Fore
SplineSet
478 1760 m 2,0,-1
 1112 1760 l 1,1,-1
 1112 1588 l 1,2,-1
 815 1588 l 1,3,-1
 815 986 l 1,4,-1
 1095 986 l 1,5,-1
 1095 812 l 1,6,-1
 815 812 l 1,7,-1
 815 172 l 1,8,-1
 1117 172 l 1,9,-1
 1117 0 l 1,10,-1
 473 0 l 2,11,12
 279 0 279 0 201.5 118 c 128,-1,13
 124 236 124 236 124 507 c 2,14,-1
 124 1282 l 2,15,16
 124 1516 124 1516 197.5 1638 c 128,-1,17
 271 1760 271 1760 478 1760 c 2,0,-1
609 178 m 1,18,-1
 609 1581 l 1,19,-1
 478 1581 l 2,20,21
 393 1581 393 1581 362 1518 c 128,-1,22
 331 1455 331 1455 331 1293 c 2,23,-1
 331 505 l 2,24,25
 331 307 331 307 357.5 243 c 128,-1,26
 384 179 384 179 473 178 c 1,27,-1
 609 178 l 1,18,-1
EndSplineSet
Validated: 1
EndChar

StartChar: oe
Encoding: 339 339 273
Width: 1358
GlyphClass: 2
Flags: W
LayerCount: 2
UndoRedoHistory
Layer: 1
Undoes
EndUndoes
Redoes
EndRedoes
EndUndoRedoHistory
Fore
SplineSet
693 1403 m 1,0,1
 778 1518 778 1518 927 1518 c 0,2,3
 1152 1518 1152 1518 1210 1323 c 0,4,5
 1242 1214 1242 1214 1242 982 c 0,6,7
 1242 905 1242 905 1243 852 c 0,8,9
 1243 747 1243 747 1242 740 c 1,10,-1
 794 740 l 1,11,-1
 794 444 l 2,12,13
 794 249 794 249 825 201 c 128,-1,14
 856 153 856 153 917 153 c 128,-1,15
 978 153 978 153 1002.5 194 c 128,-1,16
 1027 235 1027 235 1032.5 296.5 c 128,-1,17
 1038 358 1038 358 1038 459.5 c 128,-1,18
 1038 561 1038 561 1037 562 c 1,19,-1
 1240 562 l 1,20,-1
 1240 502 l 2,21,22
 1240 261 1240 261 1206 166 c 128,-1,23
 1172 71 1172 71 1104.5 26.5 c 128,-1,24
 1037 -18 1037 -18 919 -18 c 0,25,26
 770 -18 770 -18 689 96 c 1,27,28
 605 -18 605 -18 462 -18 c 0,29,30
 226 -18 226 -18 162 182 c 0,31,32
 124 299 124 299 124 497 c 2,33,-1
 124 1027 l 2,34,35
 124 1391 124 1391 295 1482 c 0,36,37
 363 1518 363 1518 462 1518 c 0,38,39
 608 1518 608 1518 693 1403 c 1,0,1
588 1068 m 2,40,41
 588 1240 588 1240 554.5 1293.5 c 128,-1,42
 521 1347 521 1347 471 1347 c 0,43,44
 379 1347 379 1347 355 1272.5 c 128,-1,45
 331 1198 331 1198 331 1068 c 2,46,-1
 331 439 l 2,47,48
 331 218 331 218 394 172 c 0,49,50
 420 153 420 153 457 153 c 0,51,52
 459 153 459 153 461 153 c 1,53,54
 539 153 539 153 563.5 228.5 c 128,-1,55
 588 304 588 304 588 439 c 2,56,-1
 588 1068 l 2,40,41
1038 1073 m 2,57,58
 1038 1234 1038 1234 1026.5 1266 c 128,-1,59
 1015 1298 1015 1298 998.5 1323.5 c 128,-1,60
 982 1349 982 1349 937 1349 c 0,61,62
 830 1349 830 1349 809 1241 c 0,63,64
 795 1174 795 1174 795 1061 c 2,65,-1
 795 889 l 1,66,-1
 1038 889 l 1,67,-1
 1038 1073 l 2,57,58
EndSplineSet
Validated: 1
EndChar

StartChar: florin
Encoding: 402 402 313
Width: 767
GlyphClass: 2
Flags: W
LayerCount: 2
UndoRedoHistory
Layer: 1
Undoes
EndUndoes
Redoes
EndRedoes
EndUndoRedoHistory
Fore
SplineSet
115 157 m 1,0,-1
 167 154 l 1,1,2
 243 154 243 154 264.5 183.5 c 128,-1,3
 286 213 286 213 286 305 c 2,4,-1
 286 1102 l 1,5,-1
 107 1102 l 1,6,-1
 107 1255 l 1,7,-1
 286 1255 l 1,8,-1
 286 1539 l 2,9,10
 286 1785 286 1785 483 1785 c 0,11,12
 564 1785 564 1785 652 1752 c 1,13,-1
 652 1603 l 1,14,15
 589 1622 589 1622 551.5 1622 c 128,-1,16
 514 1622 514 1622 497 1594 c 128,-1,17
 480 1566 480 1566 480 1503 c 2,18,-1
 480 1255 l 1,19,-1
 662 1255 l 1,20,-1
 662 1102 l 1,21,-1
 480 1102 l 1,22,-1
 480 221 l 2,23,24
 480 -15 480 -15 270 -15 c 0,25,26
 198 -15 198 -15 115 8 c 1,27,-1
 115 157 l 1,0,-1
EndSplineSet
Validated: 1
EndChar

StartChar: uni0237
Encoding: 567 567 356
Width: 540
GlyphClass: 2
Flags: W
LayerCount: 2
UndoRedoHistory
Layer: 1
Undoes
EndUndoes
Redoes
EndRedoes
EndUndoRedoHistory
Fore
SplineSet
86 -6 m 1,0,1
 100 -8 100 -8 115.5 -8 c 128,-1,2
 131 -8 131 -8 139 -7 c 0,3,4
 188 -2 188 -2 188 60 c 2,5,-1
 188 1500 l 1,6,-1
 394 1500 l 1,7,-1
 394 70 l 2,8,9
 394 -48 394 -48 345.5 -101.5 c 128,-1,10
 297 -155 297 -155 227 -159 c 0,11,12
 205 -161 205 -161 150.5 -161 c 128,-1,13
 96 -161 96 -161 80 -150 c 1,14,-1
 80 -6 l 1,15,-1
 86 -6 l 1,0,1
EndSplineSet
Validated: 1
EndChar

StartChar: circumflex
Encoding: 710 710 357
Width: 970
GlyphClass: 2
Flags: W
LayerCount: 2
UndoRedoHistory
Layer: 1
Undoes
EndUndoes
Redoes
EndRedoes
EndUndoRedoHistory
Fore
SplineSet
369 1886 m 1,0,-1
 601 1886 l 1,1,-1
 754 1592 l 1,2,-1
 571 1592 l 1,3,-1
 485 1797 l 1,4,-1
 399 1592 l 1,5,-1
 215 1592 l 1,6,-1
 369 1886 l 1,0,-1
EndSplineSet
Validated: 1
EndChar

StartChar: caron
Encoding: 711 711 358
Width: 970
GlyphClass: 2
Flags: W
LayerCount: 2
UndoRedoHistory
Layer: 1
Undoes
EndUndoes
Redoes
EndRedoes
EndUndoRedoHistory
Fore
SplineSet
571 1886 m 1,0,-1
 754 1886 l 1,1,-1
 601 1592 l 1,2,-1
 369 1592 l 1,3,-1
 215 1886 l 1,4,-1
 399 1886 l 1,5,-1
 485 1681 l 1,6,-1
 571 1886 l 1,0,-1
EndSplineSet
Validated: 1
EndChar

StartChar: uni02C9
Encoding: 713 713 359
Width: 696
GlyphClass: 2
Flags: W
LayerCount: 2
UndoRedoHistory
Layer: 1
Undoes
EndUndoes
Redoes
EndRedoes
EndUndoRedoHistory
Fore
SplineSet
90 741 m 1,0,-1
 606 741 l 1,1,-1
 606 599 l 1,2,-1
 90 599 l 1,3,-1
 90 741 l 1,0,-1
EndSplineSet
Validated: 1
EndChar

StartChar: breve
Encoding: 728 728 360
Width: 1016
GlyphClass: 2
Flags: W
LayerCount: 2
UndoRedoHistory
Layer: 1
Undoes
EndUndoes
Redoes
EndRedoes
EndUndoRedoHistory
Fore
SplineSet
635 1856 m 1,0,-1
 741 1856 l 1,1,-1
 741 1843 l 2,2,3
 741 1734 741 1734 682 1675.5 c 128,-1,4
 623 1617 623 1617 506.5 1617 c 128,-1,5
 390 1617 390 1617 330.5 1675 c 128,-1,6
 271 1733 271 1733 271 1841 c 2,7,-1
 271 1856 l 1,8,-1
 377 1856 l 1,9,10
 377 1735 377 1735 507 1735 c 0,11,12
 565 1735 565 1735 600 1760.5 c 128,-1,13
 635 1786 635 1786 635 1856 c 1,0,-1
EndSplineSet
Validated: 1
EndChar

StartChar: dotaccent
Encoding: 729 729 361
Width: 572
GlyphClass: 2
Flags: W
LayerCount: 2
UndoRedoHistory
Layer: 1
Undoes
EndUndoes
Redoes
EndRedoes
EndUndoRedoHistory
Fore
SplineSet
184 583 m 1,0,-1
 397 583 l 1,1,-1
 397 405 l 1,2,-1
 184 405 l 1,3,-1
 184 583 l 1,0,-1
EndSplineSet
Validated: 1
EndChar

StartChar: ring
Encoding: 730 730 362
Width: 923
GlyphClass: 2
Flags: W
LayerCount: 2
UndoRedoHistory
Layer: 1
Undoes
EndUndoes
Redoes
EndRedoes
EndUndoRedoHistory
Fore
SplineSet
314.5 450.5 m 128,-1,1
 261 505 261 505 261 583.5 c 128,-1,2
 261 662 261 662 314.5 716.5 c 128,-1,3
 368 771 368 771 461 771 c 128,-1,4
 554 771 554 771 607.5 716.5 c 128,-1,5
 661 662 661 662 661 583.5 c 128,-1,6
 661 505 661 505 607.5 450.5 c 128,-1,7
 554 396 554 396 461 396 c 128,-1,0
 368 396 368 396 314.5 450.5 c 128,-1,1
571 584 m 128,-1,9
 571 631 571 631 542 665.5 c 128,-1,10
 513 700 513 700 462 700 c 128,-1,11
 411 700 411 700 382.5 665.5 c 128,-1,12
 354 631 354 631 354 584 c 128,-1,13
 354 537 354 537 382.5 502.5 c 128,-1,14
 411 468 411 468 462 468 c 128,-1,15
 513 468 513 468 542 502.5 c 128,-1,8
 571 537 571 537 571 584 c 128,-1,9
EndSplineSet
Validated: 1
EndChar

StartChar: ogonek
Encoding: 731 731 363
Width: 1015
GlyphClass: 2
Flags: W
LayerCount: 2
UndoRedoHistory
Layer: 1
Undoes
EndUndoes
Redoes
EndRedoes
EndUndoRedoHistory
Fore
SplineSet
646 0 m 1,0,-1
 731 0 l 1,1,2
 640 -89 640 -89 585.5 -188 c 128,-1,3
 531 -287 531 -287 531 -357 c 0,4,5
 531 -496 531 -496 680 -496 c 0,6,7
 752 -496 752 -496 812 -476 c 1,8,-1
 812 -591 l 1,9,10
 792 -602 792 -602 741 -614 c 128,-1,11
 690 -626 690 -626 643 -626 c 0,12,13
 511 -626 511 -626 442 -563 c 128,-1,14
 373 -500 373 -500 373 -395.5 c 128,-1,15
 373 -291 373 -291 445.5 -181.5 c 128,-1,16
 518 -72 518 -72 646 0 c 1,0,-1
EndSplineSet
Validated: 1
EndChar

StartChar: tilde
Encoding: 732 732 364
Width: 1117
GlyphClass: 2
Flags: W
LayerCount: 2
UndoRedoHistory
Layer: 1
Undoes
EndUndoes
Redoes
EndRedoes
EndUndoRedoHistory
Fore
SplineSet
245 492 m 1,0,1
 272 585 272 585 316 617.5 c 128,-1,2
 360 650 360 650 414.5 650 c 128,-1,3
 469 650 469 650 567.5 613 c 128,-1,4
 666 576 666 576 687 576 c 2,5,-1
 691 576 l 1,6,7
 708 579 708 579 720.5 592.5 c 128,-1,8
 733 606 733 606 747 647 c 1,9,-1
 870 619 l 1,10,-1
 861 582 l 1,11,12
 836 487 836 487 801 454.5 c 128,-1,13
 766 422 766 422 713 422 c 128,-1,14
 660 422 660 422 565.5 463 c 128,-1,15
 471 504 471 504 442.5 504 c 128,-1,16
 414 504 414 504 398.5 500.5 c 128,-1,17
 383 497 383 497 356 443 c 1,18,-1
 245 492 l 1,0,1
EndSplineSet
Validated: 1
EndChar

StartChar: hungarumlaut
Encoding: 733 733 365
Width: 1300
GlyphClass: 2
Flags: W
LayerCount: 2
UndoRedoHistory
Layer: 1
Undoes
EndUndoes
Redoes
EndRedoes
EndUndoRedoHistory
Fore
SplineSet
688 505 m 1,0,-1
 873 920 l 1,1,-1
 1061 825 l 1,2,-1
 777 459 l 1,3,-1
 688 505 l 1,0,-1
396 505 m 1,4,-1
 524 920 l 1,5,-1
 709 833 l 1,6,-1
 486 467 l 1,7,-1
 396 505 l 1,4,-1
EndSplineSet
Validated: 1
EndChar

StartChar: uni0307
Encoding: 775 775 366
Width: 572
GlyphClass: 2
Flags: W
LayerCount: 2
UndoRedoHistory
Layer: 1
Undoes
EndUndoes
Redoes
EndRedoes
EndUndoRedoHistory
Fore
SplineSet
147 716 m 1,0,-1
 425 716 l 1,1,-1
 425 458 l 1,2,-1
 147 458 l 1,3,-1
 147 716 l 1,0,-1
EndSplineSet
Validated: 1
EndChar

StartChar: uni030F
Encoding: 783 783 367
Width: 825
GlyphClass: 2
Flags: W
LayerCount: 2
UndoRedoHistory
Layer: 1
Undoes
EndUndoes
Redoes
EndRedoes
EndUndoRedoHistory
Fore
SplineSet
6 1957 m 1,0,-1
 168 2057 l 1,1,-1
 365 1690 l 1,2,-1
 271 1640 l 1,3,-1
 6 1957 l 1,0,-1
339 1957 m 1,4,-1
 497 2057 l 1,5,-1
 657 1690 l 1,6,-1
 563 1640 l 1,7,-1
 339 1957 l 1,4,-1
EndSplineSet
Validated: 1
EndChar

StartChar: uni0311
Encoding: 785 785 368
Width: 1016
GlyphClass: 2
Flags: W
LayerCount: 2
UndoRedoHistory
Layer: 1
Undoes
EndUndoes
Redoes
EndRedoes
EndUndoRedoHistory
Fore
SplineSet
270 1632 m 2,0,1
 270 1636 270 1636 270 1639 c 0,2,3
 270 1743 270 1743 328 1803 c 128,-1,4
 386 1863 386 1863 503 1863 c 0,5,6
 736 1863 736 1863 740 1643 c 1,7,-1
 740 1628 l 1,8,-1
 634 1626 l 1,9,10
 633 1745 633 1745 506 1745 c 0,11,12
 445 1745 445 1745 410 1718 c 0,13,14
 376 1692 376 1692 376 1625 c 0,15,16
 376 1623 376 1623 376 1621 c 1,17,-1
 270 1619 l 1,18,-1
 270 1632 l 2,0,1
EndSplineSet
EndChar

StartChar: uni0326
Encoding: 806 806 369
Width: 528
GlyphClass: 2
Flags: W
LayerCount: 2
UndoRedoHistory
Layer: 1
Undoes
EndUndoes
Redoes
EndRedoes
EndUndoRedoHistory
Fore
SplineSet
145 128 m 1,0,-1
 379 128 l 1,1,-1
 379 -90 l 1,2,-1
 294 -387 l 1,3,-1
 204 -387 l 1,4,-1
 253 -99 l 1,5,-1
 145 -99 l 1,6,-1
 145 128 l 1,0,-1
EndSplineSet
Validated: 1
EndChar

StartChar: uni0394
Encoding: 916 916 370
Width: 939
GlyphClass: 2
Flags: W
LayerCount: 2
UndoRedoHistory
Layer: 1
Undoes
EndUndoes
Redoes
EndRedoes
EndUndoRedoHistory
Fore
SplineSet
333 1760 m 1,0,-1
 582 1760 l 1,1,-1
 873 0 l 1,2,-1
 66 0 l 1,3,-1
 333 1760 l 1,0,-1
653 168 m 1,4,-1
 463 1434 l 1,5,-1
 460 1434 l 1,6,-1
 286 168 l 1,7,-1
 653 168 l 1,4,-1
EndSplineSet
Validated: 1
EndChar

StartChar: uni03BC
Encoding: 956 956 371
Width: 971
GlyphClass: 2
Flags: W
LayerCount: 2
UndoRedoHistory
Layer: 1
Undoes
EndUndoes
Redoes
EndRedoes
EndUndoRedoHistory
Fore
SplineSet
616 1500 m 1,0,-1
 822 1500 l 1,1,-1
 822 0 l 1,2,-1
 616 0 l 1,3,-1
 616 153 l 1,4,5
 592 77 592 77 533.5 28.5 c 128,-1,6
 475 -20 475 -20 388 -20 c 0,7,8
 358 -20 358 -20 338 -15 c 1,9,-1
 338 -186 l 1,10,-1
 137 -186 l 1,11,-1
 137 1500 l 1,12,-1
 342 1500 l 1,13,-1
 342 335 l 2,14,15
 342 158 342 158 471 158 c 0,16,17
 543 158 543 158 579.5 208 c 128,-1,18
 616 258 616 258 616 340 c 2,19,-1
 616 1500 l 1,0,-1
EndSplineSet
Validated: 1
EndChar

StartChar: endash
Encoding: 8211 8211 395
Width: 756
GlyphClass: 2
Flags: W
LayerCount: 2
UndoRedoHistory
Layer: 1
Undoes
EndUndoes
Redoes
EndRedoes
EndUndoRedoHistory
Fore
SplineSet
120 741 m 1,0,-1
 636 741 l 1,1,-1
 636 509 l 1,2,-1
 120 509 l 1,3,-1
 120 741 l 1,0,-1
EndSplineSet
Validated: 1
EndChar

StartChar: emdash
Encoding: 8212 8212 396
Width: 1153
GlyphClass: 2
Flags: W
LayerCount: 2
UndoRedoHistory
Layer: 1
Undoes
EndUndoes
Redoes
EndRedoes
EndUndoRedoHistory
Fore
SplineSet
60 741 m 1,0,-1
 1092 741 l 1,1,-1
 1092 570 l 1,2,-1
 60 570 l 1,3,-1
 60 741 l 1,0,-1
EndSplineSet
Validated: 1
EndChar

StartChar: quoteleft
Encoding: 8216 8216 397
Width: 591
GlyphClass: 2
Flags: W
LayerCount: 2
UndoRedoHistory
Layer: 1
Undoes
EndUndoes
Redoes
EndRedoes
EndUndoRedoHistory
Fore
SplineSet
268 1779 m 1,0,-1
 397 1779 l 1,1,-1
 305 1356 l 1,2,-1
 453 1356 l 1,3,-1
 453 1116 l 1,4,-1
 144 1116 l 1,5,-1
 144 1347 l 1,6,-1
 268 1779 l 1,0,-1
EndSplineSet
Validated: 1
EndChar

StartChar: quoteright
Encoding: 8217 8217 398
Width: 591
GlyphClass: 2
Flags: W
LayerCount: 2
UndoRedoHistory
Layer: 1
Undoes
EndUndoes
Redoes
EndRedoes
EndUndoRedoHistory
Fore
SplineSet
160 1779 m 1,0,-1
 469 1779 l 1,1,-1
 469 1548 l 1,2,-1
 344 1116 l 1,3,-1
 215 1116 l 1,4,-1
 307 1539 l 1,5,-1
 160 1539 l 1,6,-1
 160 1779 l 1,0,-1
EndSplineSet
Validated: 1
EndChar

StartChar: quotesinglbase
Encoding: 8218 8218 399
Width: 484
GlyphClass: 2
Flags: W
LayerCount: 2
UndoRedoHistory
Layer: 1
Undoes
EndUndoes
Redoes
EndRedoes
EndUndoRedoHistory
Fore
SplineSet
97 232 m 1,0,-1
 399 232 l 1,1,-1
 399 9 l 1,2,-1
 285 -382 l 1,3,-1
 152 -382 l 1,4,-1
 238 0 l 1,5,-1
 97 0 l 1,6,-1
 97 232 l 1,0,-1
EndSplineSet
Validated: 1
EndChar

StartChar: quotedblleft
Encoding: 8220 8220 400
Width: 1030
GlyphClass: 2
Flags: W
LayerCount: 2
UndoRedoHistory
Layer: 1
Undoes
EndUndoes
Redoes
EndRedoes
EndUndoRedoHistory
Fore
SplineSet
730 1779 m 1,0,-1
 862 1779 l 1,1,-1
 776 1378 l 1,2,-1
 917 1378 l 1,3,-1
 917 1145 l 1,4,-1
 615 1145 l 1,5,-1
 615 1369 l 1,6,-1
 730 1779 l 1,0,-1
273 1779 m 1,7,-1
 406 1779 l 1,8,-1
 320 1378 l 1,9,-1
 461 1378 l 1,10,-1
 461 1145 l 1,11,-1
 159 1145 l 1,12,-1
 159 1369 l 1,13,-1
 273 1779 l 1,7,-1
EndSplineSet
Validated: 1
EndChar

StartChar: quotedblright
Encoding: 8221 8221 401
Width: 1077
GlyphClass: 2
Flags: W
LayerCount: 2
UndoRedoHistory
Layer: 1
Undoes
EndUndoes
Redoes
EndRedoes
EndUndoRedoHistory
Fore
SplineSet
630 1779 m 1,0,-1
 932 1779 l 1,1,-1
 932 1555 l 1,2,-1
 817 1145 l 1,3,-1
 684 1145 l 1,4,-1
 770 1546 l 1,5,-1
 630 1546 l 1,6,-1
 630 1779 l 1,0,-1
173 1779 m 1,7,-1
 475 1779 l 1,8,-1
 475 1555 l 1,9,-1
 361 1145 l 1,10,-1
 228 1145 l 1,11,-1
 314 1546 l 1,12,-1
 173 1546 l 1,13,-1
 173 1779 l 1,7,-1
EndSplineSet
Validated: 1
EndChar

StartChar: quotedblbase
Encoding: 8222 8222 402
Width: 1016
GlyphClass: 2
Flags: W
LayerCount: 2
UndoRedoHistory
Layer: 1
Undoes
EndUndoes
Redoes
EndRedoes
EndUndoRedoHistory
Fore
SplineSet
622 233 m 1,0,-1
 924 233 l 1,1,-1
 924 9 l 1,2,-1
 810 -401 l 1,3,-1
 677 -401 l 1,4,-1
 763 0 l 1,5,-1
 622 0 l 1,6,-1
 622 233 l 1,0,-1
166 233 m 1,7,-1
 468 233 l 1,8,-1
 468 9 l 1,9,-1
 353 -401 l 1,10,-1
 221 -401 l 1,11,-1
 307 0 l 1,12,-1
 166 0 l 1,13,-1
 166 233 l 1,7,-1
EndSplineSet
Validated: 1
EndChar

StartChar: dagger
Encoding: 8224 8224 403
Width: 909
GlyphClass: 2
Flags: W
LayerCount: 2
UndoRedoHistory
Layer: 1
Undoes
EndUndoes
Redoes
EndRedoes
EndUndoRedoHistory
Fore
SplineSet
352 1592 m 1,0,-1
 560 1592 l 1,1,-1
 560 1182 l 1,2,-1
 818 1182 l 1,3,-1
 818 1017 l 1,4,-1
 560 1017 l 1,5,-1
 560 0 l 1,6,-1
 352 0 l 1,7,-1
 352 1017 l 1,8,-1
 91 1017 l 1,9,-1
 91 1182 l 1,10,-1
 352 1182 l 1,11,-1
 352 1592 l 1,0,-1
EndSplineSet
Validated: 1
EndChar

StartChar: daggerdbl
Encoding: 8225 8225 404
Width: 927
GlyphClass: 2
Flags: W
LayerCount: 2
UndoRedoHistory
Layer: 1
Undoes
EndUndoes
Redoes
EndRedoes
EndUndoRedoHistory
Fore
SplineSet
352 1592 m 1,0,-1
 560 1592 l 1,1,-1
 560 1182 l 1,2,-1
 818 1182 l 1,3,-1
 818 1017 l 1,4,-1
 560 1017 l 1,5,-1
 560 668 l 1,6,-1
 818 668 l 1,7,-1
 818 503 l 1,8,-1
 560 503 l 1,9,-1
 560 0 l 1,10,-1
 352 0 l 1,11,-1
 352 503 l 1,12,-1
 91 503 l 1,13,-1
 91 668 l 1,14,-1
 352 668 l 1,15,-1
 352 1017 l 1,16,-1
 91 1017 l 1,17,-1
 91 1182 l 1,18,-1
 352 1182 l 1,19,-1
 352 1592 l 1,0,-1
EndSplineSet
Validated: 1
EndChar

StartChar: bullet
Encoding: 8226 8226 405
Width: 861
GlyphClass: 2
Flags: W
LayerCount: 2
UndoRedoHistory
Layer: 1
Undoes
EndUndoes
Redoes
EndRedoes
EndUndoRedoHistory
Fore
SplineSet
197 741 m 128,-1,1
 197 865 197 865 257 932 c 128,-1,2
 317 999 317 999 430.5 999 c 128,-1,3
 544 999 544 999 604 932 c 128,-1,4
 664 865 664 865 664 741 c 128,-1,5
 664 617 664 617 604 550 c 128,-1,6
 544 483 544 483 430.5 483 c 128,-1,7
 317 483 317 483 257 550 c 128,-1,0
 197 617 197 617 197 741 c 128,-1,1
EndSplineSet
Validated: 1
EndChar

StartChar: perthousand
Encoding: 8240 8240 406
Width: 3042
GlyphClass: 2
Flags: W
LayerCount: 2
UndoRedoHistory
Layer: 1
Undoes
EndUndoes
Redoes
EndRedoes
EndUndoRedoHistory
Fore
SplineSet
1360 1760 m 1,0,-1
 1531 1760 l 1,1,-1
 831 0 l 1,2,-1
 652 0 l 1,3,-1
 1360 1760 l 1,0,-1
591 1433 m 2,4,5
 591 1541 591 1541 565 1581 c 128,-1,6
 539 1621 539 1621 466 1621 c 128,-1,7
 393 1621 393 1621 367 1580.5 c 128,-1,8
 341 1540 341 1540 341 1433 c 2,9,-1
 341 937 l 2,10,11
 341 827 341 827 367.5 784.5 c 128,-1,12
 394 742 394 742 466 742 c 128,-1,13
 538 742 538 742 564.5 784.5 c 128,-1,14
 591 827 591 827 591 937 c 2,15,-1
 591 1433 l 2,4,5
156 1364 m 2,16,17
 156 1598 156 1598 224 1690 c 128,-1,18
 292 1782 292 1782 466.5 1782 c 128,-1,19
 641 1782 641 1782 709 1690 c 128,-1,20
 777 1598 777 1598 777 1364 c 2,21,-1
 777 1009 l 2,22,23
 777 771 777 771 708 676 c 128,-1,24
 639 581 639 581 466.5 581 c 128,-1,25
 294 581 294 581 225 676 c 128,-1,26
 156 771 156 771 156 1009 c 2,27,-1
 156 1364 l 2,16,17
1854 832 m 2,28,29
 1854 940 1854 940 1828 980 c 128,-1,30
 1802 1020 1802 1020 1729 1020 c 128,-1,31
 1656 1020 1656 1020 1630 979.5 c 128,-1,32
 1604 939 1604 939 1604 832 c 2,33,-1
 1604 336 l 2,34,35
 1604 226 1604 226 1630.5 183.5 c 128,-1,36
 1657 141 1657 141 1729 141 c 128,-1,37
 1801 141 1801 141 1827.5 183.5 c 128,-1,38
 1854 226 1854 226 1854 336 c 2,39,-1
 1854 832 l 2,28,29
1419 763 m 2,40,41
 1419 997 1419 997 1487 1089 c 128,-1,42
 1555 1181 1555 1181 1729.5 1181 c 128,-1,43
 1904 1181 1904 1181 1972 1089 c 128,-1,44
 2040 997 2040 997 2040 763 c 2,45,-1
 2040 408 l 2,46,47
 2040 170 2040 170 1971 75 c 128,-1,48
 1902 -20 1902 -20 1729.5 -20 c 128,-1,49
 1557 -20 1557 -20 1488 75 c 128,-1,50
 1419 170 1419 170 1419 408 c 2,51,-1
 1419 763 l 2,40,41
2265 763 m 2,52,53
 2265 997 2265 997 2333 1089 c 128,-1,54
 2401 1181 2401 1181 2575.5 1181 c 128,-1,55
 2750 1181 2750 1181 2818 1089 c 128,-1,56
 2886 997 2886 997 2886 763 c 2,57,-1
 2886 408 l 2,58,59
 2886 170 2886 170 2817 75 c 128,-1,60
 2748 -20 2748 -20 2575.5 -20 c 128,-1,61
 2403 -20 2403 -20 2334 75 c 128,-1,62
 2265 170 2265 170 2265 408 c 2,63,-1
 2265 763 l 2,52,53
2701 832 m 2,64,65
 2701 940 2701 940 2675 980 c 128,-1,66
 2649 1020 2649 1020 2576 1020 c 128,-1,67
 2503 1020 2503 1020 2477 979.5 c 128,-1,68
 2451 939 2451 939 2451 832 c 2,69,-1
 2451 336 l 2,70,71
 2451 226 2451 226 2477.5 183.5 c 128,-1,72
 2504 141 2504 141 2576 141 c 128,-1,73
 2648 141 2648 141 2674.5 183.5 c 128,-1,74
 2701 226 2701 226 2701 336 c 2,75,-1
 2701 832 l 2,64,65
EndSplineSet
Validated: 1
EndChar

StartChar: guilsinglleft
Encoding: 8249 8249 407
Width: 606
GlyphClass: 2
Flags: W
LayerCount: 2
UndoRedoHistory
Layer: 1
Undoes
EndUndoes
Redoes
EndRedoes
EndUndoRedoHistory
Fore
SplineSet
70 839 m 1,0,-1
 548 1110 l 1,1,-1
 548 903 l 1,2,-1
 236 749 l 1,3,-1
 548 586 l 1,4,-1
 548 372 l 1,5,-1
 70 657 l 1,6,-1
 70 839 l 1,0,-1
EndSplineSet
Validated: 1
EndChar

StartChar: guilsinglright
Encoding: 8250 8250 408
Width: 727
GlyphClass: 2
Flags: W
LayerCount: 2
UndoRedoHistory
Layer: 1
Undoes
EndUndoes
Redoes
EndRedoes
EndUndoRedoHistory
Fore
SplineSet
153 903 m 1,0,-1
 153 1110 l 1,1,-1
 631 839 l 1,2,-1
 631 657 l 1,3,-1
 153 372 l 1,4,-1
 153 586 l 1,5,-1
 465 749 l 1,6,-1
 153 903 l 1,0,-1
EndSplineSet
Validated: 1
EndChar

StartChar: fraction
Encoding: 8260 8260 409
Width: 829
GlyphClass: 2
Flags: W
LayerCount: 2
UndoRedoHistory
Layer: 1
Undoes
EndUndoes
Redoes
EndRedoes
EndUndoRedoHistory
Fore
SplineSet
531 1768 m 1,0,-1
 709 1768 l 1,1,-1
 253 0 l 1,2,-1
 76 0 l 1,3,-1
 531 1768 l 1,0,-1
EndSplineSet
Validated: 1
EndChar

StartChar: uni2074
Encoding: 8308 8308 410
Width: 855
GlyphClass: 2
Flags: W
LayerCount: 2
UndoRedoHistory
Layer: 1
Undoes
EndUndoes
Redoes
EndRedoes
EndUndoRedoHistory
Fore
SplineSet
448 1761 m 1,0,-1
 619 1761 l 1,1,-1
 619 915 l 1,2,-1
 711 915 l 1,3,-1
 711 803 l 1,4,-1
 619 803 l 1,5,-1
 619 579 l 1,6,-1
 483 579 l 1,7,-1
 483 803 l 1,8,-1
 188 803 l 1,9,-1
 188 900 l 1,10,-1
 448 1761 l 1,0,-1
483 915 m 1,11,-1
 483 1526 l 1,12,-1
 316 915 l 1,13,-1
 483 915 l 1,11,-1
EndSplineSet
Validated: 1
EndChar

StartChar: Euro
Encoding: 8364 8364 411
Width: 1076
GlyphClass: 2
Flags: W
LayerCount: 2
UndoRedoHistory
Layer: 1
Undoes
EndUndoes
Redoes
EndRedoes
EndUndoRedoHistory
Fore
SplineSet
124 1252 m 2,0,1
 124 1452 124 1452 157 1546 c 128,-1,2
 190 1640 190 1640 229 1684 c 0,3,4
 314 1780 314 1780 477 1781 c 1,5,6
 705 1780 705 1780 771 1580 c 0,7,8
 809 1465 809 1465 809 1274 c 2,9,-1
 809 1079 l 1,10,-1
 606 1079 l 1,11,-1
 606 1275 l 2,12,13
 606 1444 606 1444 587.5 1503.5 c 128,-1,14
 569 1563 569 1563 543 1582.5 c 128,-1,15
 517 1602 517 1602 477 1602 c 0,16,17
 394 1602 394 1602 362.5 1523.5 c 128,-1,18
 331 1445 331 1445 331 1276 c 2,19,-1
 331 1106 l 1,20,-1
 518 1106 l 1,21,-1
 518 966 l 1,22,-1
 331 966 l 1,23,-1
 331 869 l 1,24,-1
 518 869 l 1,25,-1
 518 721 l 1,26,-1
 331 721 l 1,27,-1
 331 514 l 2,28,29
 331 314 331 314 359.5 234.5 c 128,-1,30
 388 155 388 155 469.5 155 c 128,-1,31
 551 155 551 155 578.5 235 c 128,-1,32
 606 315 606 315 606 515 c 2,33,-1
 606 710 l 1,34,-1
 811 710 l 1,35,-1
 811 517 l 2,36,37
 811 240 811 240 735.5 109.5 c 128,-1,38
 660 -21 660 -21 472 -21 c 128,-1,39
 284 -21 284 -21 204 113.5 c 128,-1,40
 124 248 124 248 124 519 c 2,41,-1
 124 721 l 1,42,-1
 23 721 l 1,43,-1
 23 869 l 1,44,-1
 124 869 l 1,45,-1
 124 966 l 1,46,-1
 23 966 l 1,47,-1
 23 1106 l 1,48,-1
 124 1106 l 1,49,-1
 124 1252 l 2,0,1
EndSplineSet
Validated: 1
EndChar

StartChar: trademark
Encoding: 8482 8482 412
Width: 1537
GlyphClass: 2
Flags: W
LayerCount: 2
UndoRedoHistory
Layer: 1
Undoes
EndUndoes
Redoes
EndRedoes
EndUndoRedoHistory
Fore
SplineSet
1206 1761 m 1,0,-1
 1413 1761 l 1,1,-1
 1413 476 l 1,2,-1
 1273 476 l 1,3,-1
 1273 1001 l 1,4,-1
 1285 1498 l 1,5,-1
 1115 476 l 1,6,-1
 966 476 l 1,7,-1
 789 1498 l 1,8,-1
 801 1001 l 1,9,-1
 801 476 l 1,10,-1
 661 476 l 1,11,-1
 661 1761 l 1,12,-1
 868 1761 l 1,13,-1
 1040 717 l 1,14,-1
 1206 1761 l 1,0,-1
103 1761 m 1,15,-1
 531 1761 l 1,16,-1
 531 1635 l 1,17,-1
 398 1635 l 1,18,-1
 398 476 l 1,19,-1
 246 476 l 1,20,-1
 246 1635 l 1,21,-1
 103 1635 l 1,22,-1
 103 1761 l 1,15,-1
EndSplineSet
Validated: 1
EndChar

StartChar: partialdiff
Encoding: 8706 8706 413
Width: 1072
GlyphClass: 2
Flags: W
LayerCount: 2
UndoRedoHistory
Layer: 1
Undoes
EndUndoes
Redoes
EndRedoes
EndUndoRedoHistory
Fore
SplineSet
546 1516.5 m 128,-1,1
 523 1520 523 1520 468 1520 c 128,-1,2
 413 1520 413 1520 283 1486 c 1,3,-1
 259 1607 l 1,4,5
 425 1652 425 1652 511.5 1652 c 128,-1,6
 598 1652 598 1652 642 1643 c 0,7,8
 805 1610 805 1610 848 1460 c 0,9,10
 869 1389 869 1389 869 1303 c 128,-1,11
 869 1217 869 1217 850 1099 c 1,12,-1
 750 246 l 2,13,14
 738 143 738 143 671.5 61 c 128,-1,15
 605 -21 605 -21 446 -21 c 0,16,17
 162 -21 162 -21 162 310 c 0,18,19
 162 563 162 563 204 791 c 128,-1,20
 246 1019 246 1019 378 1069 c 0,21,22
 424 1086 424 1086 461 1086 c 128,-1,23
 498 1086 498 1086 509.5 1085.5 c 128,-1,24
 521 1085 521 1085 533.5 1082.5 c 128,-1,25
 546 1080 546 1080 553 1079 c 128,-1,26
 560 1078 560 1078 575.5 1073 c 128,-1,27
 591 1068 591 1068 597.5 1066 c 128,-1,28
 604 1064 604 1064 624.5 1057 c 128,-1,29
 645 1050 645 1050 654 1047 c 1,30,31
 684 1241 684 1241 684 1290.5 c 128,-1,32
 684 1340 684 1340 682 1361 c 128,-1,33
 680 1382 680 1382 675.5 1401 c 128,-1,34
 671 1420 671 1420 663.5 1436 c 128,-1,35
 656 1452 656 1452 645 1465.5 c 128,-1,36
 634 1479 634 1479 619.5 1489 c 128,-1,37
 605 1499 605 1499 587 1506 c 128,-1,0
 569 1513 569 1513 546 1516.5 c 128,-1,1
351 307 m 1,38,-1
 350 296 l 1,39,40
 350 144 350 144 454 144 c 0,41,42
 514 144 514 144 526 158.5 c 128,-1,43
 538 173 538 173 551.5 196.5 c 128,-1,44
 565 220 565 220 571 289 c 2,45,-1
 632 899 l 1,46,47
 567 940 567 940 516 940 c 0,48,49
 411 940 411 940 394 765 c 2,50,-1
 353 345 l 1,51,-1
 351 320 l 1,52,-1
 351 307 l 1,38,-1
EndSplineSet
Validated: 1
EndChar

StartChar: product
Encoding: 8719 8719 414
Width: 981
GlyphClass: 2
Flags: W
LayerCount: 2
UndoRedoHistory
Layer: 1
Undoes
EndUndoes
Redoes
EndRedoes
EndUndoRedoHistory
Fore
SplineSet
146 1760 m 1,0,-1
 835 1760 l 1,1,-1
 835 0 l 1,2,-1
 631 0 l 1,3,-1
 631 1598 l 1,4,-1
 350 1598 l 1,5,-1
 350 0 l 1,6,-1
 146 0 l 1,7,-1
 146 1760 l 1,0,-1
EndSplineSet
Validated: 1
EndChar

StartChar: summation
Encoding: 8721 8721 415
Width: 716
GlyphClass: 2
Flags: W
LayerCount: 2
UndoRedoHistory
Layer: 1
Undoes
EndUndoes
Redoes
EndRedoes
EndUndoRedoHistory
Fore
SplineSet
116 1761 m 1,0,-1
 663 1761 l 1,1,-1
 663 1581 l 1,2,-1
 350 1581 l 1,3,-1
 588 880 l 1,4,-1
 350 185 l 1,5,-1
 663 185 l 1,6,-1
 663 0 l 1,7,-1
 116 0 l 1,8,-1
 116 181 l 1,9,-1
 361 881 l 1,10,-1
 116 1585 l 1,11,-1
 116 1761 l 1,0,-1
EndSplineSet
Validated: 1
EndChar

StartChar: minus
Encoding: 8722 8722 416
Width: 637
GlyphClass: 2
Flags: W
LayerCount: 2
UndoRedoHistory
Layer: 1
Undoes
EndUndoes
Redoes
EndRedoes
EndUndoRedoHistory
Fore
SplineSet
60 741 m 1,0,-1
 576 741 l 1,1,-1
 576 509 l 1,2,-1
 60 509 l 1,3,-1
 60 741 l 1,0,-1
EndSplineSet
Validated: 1
EndChar

StartChar: uni2215
Encoding: 8725 8725 417
Width: 829
GlyphClass: 2
Flags: W
LayerCount: 2
UndoRedoHistory
Layer: 1
Undoes
EndUndoes
Redoes
EndRedoes
EndUndoRedoHistory
Fore
SplineSet
531 1768 m 1,0,-1
 709 1768 l 1,1,-1
 253 0 l 1,2,-1
 76 0 l 1,3,-1
 531 1768 l 1,0,-1
EndSplineSet
Validated: 1
EndChar

StartChar: radical
Encoding: 8730 8730 418
Width: 1177
GlyphClass: 2
Flags: W
LayerCount: 2
UndoRedoHistory
Layer: 1
Undoes
EndUndoes
Redoes
EndRedoes
EndUndoRedoHistory
Fore
SplineSet
679 1500 m 1,0,-1
 1082 1500 l 1,1,-1
 1082 1359 l 1,2,-1
 878 1359 l 1,3,-1
 617 0 l 1,4,-1
 363 0 l 1,5,-1
 99 741 l 1,6,-1
 328 741 l 1,7,-1
 478 258 l 1,8,-1
 679 1500 l 1,0,-1
EndSplineSet
Validated: 1
EndChar

StartChar: infinity
Encoding: 8734 8734 419
Width: 1300
GlyphClass: 2
Flags: W
LayerCount: 2
UndoRedoHistory
Layer: 1
Undoes
EndUndoes
Redoes
EndRedoes
EndUndoRedoHistory
Fore
SplineSet
639 885 m 1,0,1
 696 955 696 955 771 998 c 128,-1,2
 846 1041 846 1041 912 1041 c 0,3,4
 1033 1041 1033 1041 1107.5 959.5 c 128,-1,5
 1182 878 1182 878 1182 742.5 c 128,-1,6
 1182 607 1182 607 1108 523 c 128,-1,7
 1034 439 1034 439 912 439 c 0,8,9
 841 439 841 439 766 479 c 128,-1,10
 691 519 691 519 639 585 c 1,11,12
 586 525 586 525 512 488.5 c 128,-1,13
 438 452 438 452 370 452 c 0,14,15
 252 452 252 452 180 532.5 c 128,-1,16
 108 613 108 613 108 742.5 c 128,-1,17
 108 872 108 872 180 950 c 128,-1,18
 252 1028 252 1028 370 1028 c 0,19,20
 433 1028 433 1028 507 988.5 c 128,-1,21
 581 949 581 949 639 885 c 1,0,1
588 740 m 1,22,23
 547 805 547 805 488.5 844.5 c 128,-1,24
 430 884 430 884 376.5 884 c 128,-1,25
 323 884 323 884 292 844.5 c 128,-1,26
 261 805 261 805 261 739.5 c 128,-1,27
 261 674 261 674 292 634 c 128,-1,28
 323 594 323 594 376 594 c 128,-1,29
 429 594 429 594 487.5 634 c 128,-1,30
 546 674 546 674 588 740 c 1,22,23
1031 740 m 128,-1,32
 1031 806 1031 806 998 846 c 128,-1,33
 965 886 965 886 909 886 c 128,-1,34
 853 886 853 886 791 846 c 128,-1,35
 729 806 729 806 686 740 c 1,36,37
 726 674 726 674 788 634 c 128,-1,38
 850 594 850 594 907.5 594 c 128,-1,39
 965 594 965 594 998 634 c 128,-1,31
 1031 674 1031 674 1031 740 c 128,-1,32
EndSplineSet
Validated: 1
EndChar

StartChar: integral
Encoding: 8747 8747 420
Width: 767
GlyphClass: 2
Flags: W
LayerCount: 2
UndoRedoHistory
Layer: 1
Undoes
EndUndoes
Redoes
EndRedoes
EndUndoRedoHistory
Fore
SplineSet
115 157 m 1,0,-1
 167 154 l 1,1,2
 243 154 243 154 264.5 183.5 c 128,-1,3
 286 213 286 213 286 305 c 2,4,-1
 286 1539 l 2,5,6
 286 1785 286 1785 483 1785 c 0,7,8
 564 1785 564 1785 652 1752 c 1,9,-1
 652 1603 l 1,10,11
 589 1622 589 1622 551.5 1622 c 128,-1,12
 514 1622 514 1622 497 1594 c 128,-1,13
 480 1566 480 1566 480 1503 c 2,14,-1
 480 221 l 2,15,16
 480 -15 480 -15 270 -15 c 0,17,18
 198 -15 198 -15 115 8 c 1,19,-1
 115 157 l 1,0,-1
EndSplineSet
Validated: 1
EndChar

StartChar: approxequal
Encoding: 8776 8776 421
Width: 1117
GlyphClass: 2
Flags: W
LayerCount: 2
UndoRedoHistory
Layer: 1
Undoes
EndUndoes
Redoes
EndRedoes
EndUndoRedoHistory
Fore
SplineSet
349 1150 m 0,0,1
 406 1150 406 1150 558 1106 c 0,2,3
 707 1063 707 1063 725 1063 c 0,4,5
 726 1063 726 1063 726 1063 c 0,6,7
 803 1063 803 1063 837 1177 c 1,8,-1
 1001 1135 l 1,9,10
 972 1021 972 1021 910 934.5 c 128,-1,11
 848 848 848 848 781 848 c 128,-1,12
 714 848 714 848 564.5 894 c 128,-1,13
 415 940 415 940 361.5 940 c 128,-1,14
 308 940 308 940 268 847 c 1,15,-1
 119 925 l 1,16,17
 198 1150 198 1150 349 1150 c 0,0,1
349 704 m 0,18,19
 406 704 406 704 558 660 c 0,20,21
 707 617 707 617 725 617 c 0,22,23
 726 617 726 617 726 617 c 0,24,25
 803 617 803 617 837 731 c 1,26,-1
 1001 689 l 1,27,28
 972 575 972 575 910 488.5 c 128,-1,29
 848 402 848 402 781 402 c 128,-1,30
 714 402 714 402 564.5 448 c 128,-1,31
 415 494 415 494 361.5 494 c 128,-1,32
 308 494 308 494 268 401 c 1,33,-1
 119 479 l 1,34,35
 198 704 198 704 349 704 c 0,18,19
EndSplineSet
Validated: 1
EndChar

StartChar: lessequal
Encoding: 8804 8804 423
Width: 781
GlyphClass: 2
Flags: W
LayerCount: 2
UndoRedoHistory
Layer: 1
Undoes
EndUndoes
Redoes
EndRedoes
EndUndoRedoHistory
Fore
SplineSet
70 878 m 1,0,-1
 647 1259 l 1,1,-1
 647 1039 l 1,2,-1
 213 774 l 1,3,-1
 647 496 l 1,4,-1
 647 282 l 1,5,-1
 70 667 l 1,6,-1
 70 878 l 1,0,-1
102 144 m 1,7,-1
 642 144 l 1,8,-1
 642 0 l 1,9,-1
 102 0 l 1,10,-1
 102 144 l 1,7,-1
EndSplineSet
Validated: 1
EndChar

StartChar: greaterequal
Encoding: 8805 8805 424
Width: 781
GlyphClass: 2
Flags: W
LayerCount: 2
UndoRedoHistory
Layer: 1
Undoes
EndUndoes
Redoes
EndRedoes
EndUndoRedoHistory
Fore
SplineSet
103 1039 m 1,0,-1
 103 1259 l 1,1,-1
 680 878 l 1,2,-1
 680 667 l 1,3,-1
 103 282 l 1,4,-1
 103 496 l 1,5,-1
 536 774 l 1,6,-1
 103 1039 l 1,0,-1
105 144 m 1,7,-1
 645 144 l 1,8,-1
 645 0 l 1,9,-1
 105 0 l 1,10,-1
 105 144 l 1,7,-1
EndSplineSet
Validated: 1
EndChar

StartChar: lozenge
Encoding: 9674 9674 425
Width: 921
GlyphClass: 2
Flags: W
LayerCount: 2
UndoRedoHistory
Layer: 1
Undoes
EndUndoes
Redoes
EndRedoes
EndUndoRedoHistory
Fore
SplineSet
297 1626 m 1,0,-1
 618 1626 l 1,1,-1
 847 863 l 1,2,-1
 618 110 l 1,3,-1
 297 110 l 1,4,-1
 74 863 l 1,5,-1
 297 1626 l 1,0,-1
629 863 m 1,6,-1
 475 1437 l 1,7,-1
 443 1437 l 1,8,-1
 289 863 l 1,9,-1
 443 289 l 1,10,-1
 475 289 l 1,11,-1
 629 863 l 1,6,-1
EndSplineSet
Validated: 1
EndChar

StartChar: uniFB00
Encoding: 64256 64256 427
Width: 1246
GlyphClass: 2
Flags: W
LayerCount: 2
UndoRedoHistory
Layer: 1
Undoes
EndUndoes
Redoes
EndRedoes
EndUndoRedoHistory
Fore
SplineSet
823 1515 m 2,0,1
 823 1786 823 1786 1055 1786 c 0,2,3
 1141 1786 1141 1786 1204 1765 c 1,4,-1
 1204 1622 l 1,5,6
 1164 1628 1164 1628 1117 1628 c 128,-1,7
 1070 1628 1070 1628 1049 1602.5 c 128,-1,8
 1028 1577 1028 1577 1028 1523 c 2,9,-1
 1028 1442 l 1,10,-1
 1204 1442 l 1,11,-1
 1204 1291 l 1,12,-1
 1028 1291 l 1,13,-1
 1028 0 l 1,14,-1
 823 0 l 1,15,-1
 823 1291 l 1,16,-1
 405 1291 l 1,17,-1
 405 0 l 1,18,-1
 200 0 l 1,19,-1
 200 1291 l 1,20,-1
 71 1291 l 1,21,-1
 71 1442 l 1,22,-1
 200 1442 l 1,23,-1
 200 1515 l 2,24,25
 200 1786 200 1786 432 1786 c 0,26,27
 518 1786 518 1786 581 1765 c 1,28,-1
 581 1622 l 1,29,30
 541 1628 541 1628 494 1628 c 128,-1,31
 447 1628 447 1628 426 1602.5 c 128,-1,32
 405 1577 405 1577 405 1523 c 2,33,-1
 405 1442 l 1,34,-1
 823 1442 l 1,35,-1
 823 1515 l 2,0,1
EndSplineSet
Validated: 1
EndChar

StartChar: uniFB01
Encoding: 64257 64257 428
Width: 1126
GlyphClass: 2
Flags: W
LayerCount: 2
UndoRedoHistory
Layer: 1
Undoes
EndUndoes
Redoes
EndRedoes
EndUndoRedoHistory
Fore
SplineSet
200 1535 m 2,0,1
 200 1806 200 1806 432 1806 c 0,2,3
 518 1806 518 1806 581 1785 c 1,4,-1
 581 1642 l 1,5,6
 541 1648 541 1648 494 1648 c 128,-1,7
 447 1648 447 1648 426 1622.5 c 128,-1,8
 405 1597 405 1597 405 1543 c 2,9,-1
 405 1500 l 1,10,-1
 978 1500 l 1,11,-1
 978 0 l 1,12,-1
 773 0 l 1,13,-1
 773 1349 l 1,14,-1
 405 1349 l 1,15,-1
 405 0 l 1,16,-1
 200 0 l 1,17,-1
 200 1349 l 1,18,-1
 71 1349 l 1,19,-1
 71 1500 l 1,20,-1
 200 1500 l 1,21,-1
 200 1535 l 2,0,1
773 1800 m 1,22,-1
 978 1800 l 1,23,-1
 978 1611 l 1,24,-1
 773 1611 l 1,25,-1
 773 1800 l 1,22,-1
EndSplineSet
Validated: 1
EndChar

StartChar: uniFB02
Encoding: 64258 64258 429
Width: 1124
GlyphClass: 2
Flags: W
LayerCount: 2
UndoRedoHistory
Layer: 1
Undoes
EndUndoes
Redoes
EndRedoes
EndUndoRedoHistory
Fore
SplineSet
200 1515 m 2,0,1
 200 1658 200 1658 294 1727 c 128,-1,2
 388 1796 388 1796 543 1796 c 0,3,4
 607 1796 607 1796 681.5 1784 c 128,-1,5
 756 1772 756 1772 976 1725 c 1,6,-1
 976 0 l 1,7,-1
 771 0 l 1,8,-1
 771 1622 l 1,9,10
 675 1642 675 1642 594 1642 c 0,11,12
 405 1642 405 1642 405 1523 c 2,13,-1
 405 1442 l 1,14,-1
 581 1442 l 1,15,-1
 581 1291 l 1,16,-1
 405 1291 l 1,17,-1
 405 0 l 1,18,-1
 200 0 l 1,19,-1
 200 1291 l 1,20,-1
 71 1291 l 1,21,-1
 71 1442 l 1,22,-1
 200 1442 l 1,23,-1
 200 1515 l 2,0,1
EndSplineSet
Validated: 1
EndChar

StartChar: uniFB03
Encoding: 64259 64259 430
Width: 1749
GlyphClass: 2
Flags: W
LayerCount: 2
UndoRedoHistory
Layer: 1
Undoes
EndUndoes
Redoes
EndRedoes
EndUndoRedoHistory
Fore
SplineSet
823 1547 m 2,0,1
 823 1818 823 1818 1055 1818 c 0,2,3
 1141 1818 1141 1818 1204 1797 c 1,4,-1
 1204 1654 l 1,5,6
 1164 1660 1164 1660 1117 1660 c 128,-1,7
 1070 1660 1070 1660 1049 1634.5 c 128,-1,8
 1028 1609 1028 1609 1028 1555 c 2,9,-1
 1028 1500 l 1,10,-1
 1601 1500 l 1,11,-1
 1601 0 l 1,12,-1
 1396 0 l 1,13,-1
 1396 1349 l 1,14,-1
 1028 1349 l 1,15,-1
 1028 0 l 1,16,-1
 823 0 l 1,17,-1
 823 1349 l 1,18,-1
 405 1349 l 1,19,-1
 405 0 l 1,20,-1
 200 0 l 1,21,-1
 200 1349 l 1,22,-1
 71 1349 l 1,23,-1
 71 1500 l 1,24,-1
 200 1500 l 1,25,-1
 200 1547 l 2,26,27
 200 1818 200 1818 432 1818 c 0,28,29
 518 1818 518 1818 581 1797 c 1,30,-1
 581 1654 l 1,31,32
 541 1660 541 1660 494 1660 c 128,-1,33
 447 1660 447 1660 426 1634.5 c 128,-1,34
 405 1609 405 1609 405 1555 c 2,35,-1
 405 1500 l 1,36,-1
 823 1500 l 1,37,-1
 823 1547 l 2,0,1
1396 1800 m 1,38,-1
 1601 1800 l 1,39,-1
 1601 1611 l 1,40,-1
 1396 1611 l 1,41,-1
 1396 1800 l 1,38,-1
EndSplineSet
Validated: 1
EndChar

StartChar: uniFB04
Encoding: 64260 64260 431
Width: 1747
GlyphClass: 2
Flags: W
LayerCount: 2
UndoRedoHistory
Layer: 1
Undoes
EndUndoes
Redoes
EndRedoes
EndUndoRedoHistory
Fore
SplineSet
823 1515 m 2,0,1
 823 1658 823 1658 917 1727 c 128,-1,2
 1011 1796 1011 1796 1166 1796 c 0,3,4
 1230 1796 1230 1796 1304.5 1784 c 128,-1,5
 1379 1772 1379 1772 1599 1725 c 1,6,-1
 1599 0 l 1,7,-1
 1394 0 l 1,8,-1
 1394 1622 l 1,9,10
 1298 1642 1298 1642 1217 1642 c 0,11,12
 1028 1642 1028 1642 1028 1523 c 2,13,-1
 1028 1442 l 1,14,-1
 1204 1442 l 1,15,-1
 1204 1291 l 1,16,-1
 1028 1291 l 1,17,-1
 1028 0 l 1,18,-1
 823 0 l 1,19,-1
 823 1291 l 1,20,-1
 405 1291 l 1,21,-1
 405 0 l 1,22,-1
 200 0 l 1,23,-1
 200 1291 l 1,24,-1
 71 1291 l 1,25,-1
 71 1442 l 1,26,-1
 200 1442 l 1,27,-1
 200 1515 l 2,28,29
 200 1786 200 1786 432 1786 c 0,30,31
 518 1786 518 1786 581 1765 c 1,32,-1
 581 1622 l 1,33,34
 541 1628 541 1628 494 1628 c 128,-1,35
 447 1628 447 1628 426 1602.5 c 128,-1,36
 405 1577 405 1577 405 1523 c 2,37,-1
 405 1442 l 1,38,-1
 823 1442 l 1,39,-1
 823 1515 l 2,0,1
EndSplineSet
Validated: 1
EndChar
